<svg width="498" height="454" viewBox="0 0 498 454" fill="none" xmlns="http://www.w3.org/2000/svg">
<g filter="url(#filter0_d)">
<rect x="48" y="44" width="396" height="352" rx="8" fill="white"/>
</g>
<rect x="65" y="63" width="362" height="48" rx="5" fill="white" stroke="#DDDFE2" stroke-width="2"/>
<path d="M92.2344 87.4136H86.9966V91.6968H93.0811V93H85.4028V80.9141H92.998V82.2256H86.9966V86.1104H92.2344V87.4136ZM96.2686 84.0186L96.3101 85.0146C96.9686 84.2399 97.8568 83.8525 98.9746 83.8525C100.231 83.8525 101.086 84.334 101.54 85.2969C101.838 84.8652 102.226 84.5166 102.702 84.251C103.183 83.9854 103.75 83.8525 104.403 83.8525C106.373 83.8525 107.375 84.8957 107.408 86.9819V93H105.873V87.0732C105.873 86.4313 105.726 85.9526 105.433 85.6372C105.139 85.3162 104.647 85.1558 103.955 85.1558C103.385 85.1558 102.912 85.3273 102.536 85.6704C102.159 86.008 101.941 86.4645 101.88 87.04V93H100.336V87.1147C100.336 85.8088 99.6968 85.1558 98.4185 85.1558C97.4113 85.1558 96.7223 85.5846 96.3516 86.4424V93H94.8159V84.0186H96.2686ZM115.277 93C115.189 92.8229 115.117 92.5075 115.062 92.0537C114.348 92.7952 113.495 93.166 112.505 93.166C111.619 93.166 110.892 92.917 110.322 92.4189C109.757 91.9154 109.475 91.279 109.475 90.5098C109.475 89.5745 109.829 88.8496 110.538 88.335C111.251 87.8148 112.253 87.5547 113.542 87.5547H115.037V86.8491C115.037 86.3123 114.876 85.8862 114.555 85.5708C114.234 85.2498 113.761 85.0894 113.136 85.0894C112.588 85.0894 112.129 85.2277 111.758 85.5044C111.387 85.7811 111.202 86.1159 111.202 86.5088H109.658C109.658 86.0605 109.815 85.6289 110.131 85.2139C110.452 84.7933 110.883 84.4613 111.426 84.2178C111.974 83.9743 112.574 83.8525 113.227 83.8525C114.262 83.8525 115.073 84.1126 115.659 84.6328C116.246 85.1475 116.55 85.8586 116.572 86.7661V90.8999C116.572 91.7244 116.677 92.3802 116.888 92.8672V93H115.277ZM112.729 91.8296C113.21 91.8296 113.667 91.7051 114.099 91.4561C114.53 91.207 114.843 90.8833 115.037 90.4849V88.6421H113.833C111.951 88.6421 111.011 89.1927 111.011 90.2939C111.011 90.7754 111.171 91.1517 111.492 91.4229C111.813 91.694 112.225 91.8296 112.729 91.8296ZM120.648 93H119.112V84.0186H120.648V93ZM118.988 81.6362C118.988 81.3872 119.062 81.1769 119.212 81.0054C119.367 80.8338 119.594 80.748 119.893 80.748C120.191 80.748 120.418 80.8338 120.573 81.0054C120.728 81.1769 120.806 81.3872 120.806 81.6362C120.806 81.8853 120.728 82.0928 120.573 82.2588C120.418 82.4248 120.191 82.5078 119.893 82.5078C119.594 82.5078 119.367 82.4248 119.212 82.2588C119.062 82.0928 118.988 81.8853 118.988 81.6362ZM124.782 93H123.246V80.25H124.782V93ZM131.057 88.4263C131.057 87.5464 131.229 86.755 131.572 86.0522C131.92 85.3494 132.402 84.8071 133.016 84.4253C133.636 84.0435 134.341 83.8525 135.133 83.8525C136.356 83.8525 137.344 84.2759 138.096 85.1226C138.854 85.9692 139.233 87.0954 139.233 88.501V88.6089C139.233 89.4832 139.065 90.269 138.727 90.9663C138.395 91.658 137.916 92.1976 137.291 92.585C136.671 92.9723 135.957 93.166 135.149 93.166C133.932 93.166 132.944 92.7427 132.186 91.896C131.433 91.0493 131.057 89.9287 131.057 88.5342V88.4263ZM132.601 88.6089C132.601 89.605 132.831 90.4046 133.29 91.0078C133.755 91.611 134.375 91.9126 135.149 91.9126C135.93 91.9126 136.549 91.6082 137.009 90.9995C137.468 90.3853 137.698 89.5275 137.698 88.4263C137.698 87.4412 137.463 86.6444 136.992 86.0356C136.527 85.4214 135.908 85.1143 135.133 85.1143C134.375 85.1143 133.763 85.4159 133.298 86.019C132.833 86.6222 132.601 87.4855 132.601 88.6089ZM146.704 92.1118C146.106 92.8146 145.229 93.166 144.073 93.166C143.115 93.166 142.385 92.8893 141.881 92.3359C141.383 91.777 141.132 90.9525 141.126 89.8623V84.0186H142.662V89.8208C142.662 91.1821 143.215 91.8628 144.322 91.8628C145.495 91.8628 146.275 91.4256 146.663 90.5513V84.0186H148.198V93H146.737L146.704 92.1118ZM156.839 81.8438V84.0186H158.516V85.2056H156.839V90.7754C156.839 91.1351 156.914 91.4062 157.063 91.5889C157.213 91.766 157.467 91.8545 157.827 91.8545C158.004 91.8545 158.248 91.8213 158.558 91.7549V93C158.154 93.1107 157.761 93.166 157.379 93.166C156.693 93.166 156.175 92.9585 155.827 92.5435C155.478 92.1284 155.304 91.5391 155.304 90.7754V85.2056H153.668V84.0186H155.304V81.8438H156.839ZM164.044 93.166C162.827 93.166 161.836 92.7676 161.073 91.9707C160.309 91.1683 159.927 90.0975 159.927 88.7583V88.4761C159.927 87.5851 160.096 86.791 160.434 86.0938C160.777 85.391 161.253 84.8431 161.861 84.4502C162.476 84.0518 163.14 83.8525 163.854 83.8525C165.021 83.8525 165.929 84.2371 166.576 85.0063C167.224 85.7756 167.547 86.8768 167.547 88.3101V88.9492H161.463C161.485 89.8346 161.742 90.5513 162.235 91.0991C162.733 91.6414 163.364 91.9126 164.127 91.9126C164.67 91.9126 165.129 91.8019 165.505 91.5806C165.882 91.3592 166.211 91.0659 166.493 90.7007L167.431 91.4312C166.679 92.5877 165.55 93.166 164.044 93.166ZM163.854 85.1143C163.234 85.1143 162.714 85.3411 162.293 85.7949C161.872 86.2432 161.612 86.874 161.513 87.6875H166.012V87.5713C165.967 86.791 165.757 86.1878 165.381 85.7617C165.005 85.3301 164.495 85.1143 163.854 85.1143ZM171 93H169.465V80.25H171V93ZM177.193 93.166C175.975 93.166 174.985 92.7676 174.221 91.9707C173.458 91.1683 173.076 90.0975 173.076 88.7583V88.4761C173.076 87.5851 173.244 86.791 173.582 86.0938C173.925 85.391 174.401 84.8431 175.01 84.4502C175.624 84.0518 176.288 83.8525 177.002 83.8525C178.17 83.8525 179.077 84.2371 179.725 85.0063C180.372 85.7756 180.696 86.8768 180.696 88.3101V88.9492H174.611C174.633 89.8346 174.891 90.5513 175.383 91.0991C175.881 91.6414 176.512 91.9126 177.276 91.9126C177.818 91.9126 178.278 91.8019 178.654 91.5806C179.03 91.3592 179.359 91.0659 179.642 90.7007L180.58 91.4312C179.827 92.5877 178.698 93.166 177.193 93.166ZM177.002 85.1143C176.382 85.1143 175.862 85.3411 175.441 85.7949C175.021 86.2432 174.761 86.874 174.661 87.6875H179.16V87.5713C179.116 86.791 178.906 86.1878 178.529 85.7617C178.153 85.3301 177.644 85.1143 177.002 85.1143ZM183.236 93V85.2056H181.816V84.0186H183.236V83.0972C183.236 82.1343 183.493 81.39 184.008 80.8643C184.522 80.3385 185.25 80.0757 186.191 80.0757C186.545 80.0757 186.896 80.1227 187.245 80.2168L187.162 81.4619C186.902 81.4121 186.625 81.3872 186.332 81.3872C185.834 81.3872 185.449 81.5339 185.178 81.8271C184.907 82.1149 184.771 82.5299 184.771 83.0723V84.0186H186.689V85.2056H184.771V93H183.236ZM187.984 88.4263C187.984 87.5464 188.155 86.755 188.499 86.0522C188.847 85.3494 189.329 84.8071 189.943 84.4253C190.563 84.0435 191.268 83.8525 192.06 83.8525C193.283 83.8525 194.27 84.2759 195.023 85.1226C195.781 85.9692 196.16 87.0954 196.16 88.501V88.6089C196.16 89.4832 195.991 90.269 195.654 90.9663C195.322 91.658 194.843 92.1976 194.218 92.585C193.598 92.9723 192.884 93.166 192.076 93.166C190.859 93.166 189.871 92.7427 189.113 91.896C188.36 91.0493 187.984 89.9287 187.984 88.5342V88.4263ZM189.528 88.6089C189.528 89.605 189.757 90.4046 190.217 91.0078C190.682 91.611 191.301 91.9126 192.076 91.9126C192.856 91.9126 193.476 91.6082 193.936 90.9995C194.395 90.3853 194.625 89.5275 194.625 88.4263C194.625 87.4412 194.389 86.6444 193.919 86.0356C193.454 85.4214 192.834 85.1143 192.06 85.1143C191.301 85.1143 190.69 85.4159 190.225 86.019C189.76 86.6222 189.528 87.4855 189.528 88.6089ZM199.539 84.0186L199.588 85.1475C200.275 84.2842 201.171 83.8525 202.278 83.8525C204.176 83.8525 205.133 84.9233 205.15 87.0649V93H203.614V87.0566C203.609 86.4092 203.459 85.9305 203.166 85.6206C202.878 85.3107 202.427 85.1558 201.813 85.1558C201.315 85.1558 200.878 85.2886 200.501 85.5542C200.125 85.8198 199.832 86.1685 199.622 86.6001V93H198.086V84.0186H199.539ZM211.193 93.166C209.975 93.166 208.985 92.7676 208.221 91.9707C207.458 91.1683 207.076 90.0975 207.076 88.7583V88.4761C207.076 87.5851 207.244 86.791 207.582 86.0938C207.925 85.391 208.401 84.8431 209.01 84.4502C209.624 84.0518 210.288 83.8525 211.002 83.8525C212.17 83.8525 213.077 84.2371 213.725 85.0063C214.372 85.7756 214.696 86.8768 214.696 88.3101V88.9492H208.611C208.633 89.8346 208.891 90.5513 209.383 91.0991C209.881 91.6414 210.512 91.9126 211.276 91.9126C211.818 91.9126 212.278 91.8019 212.654 91.5806C213.03 91.3592 213.359 91.0659 213.642 90.7007L214.58 91.4312C213.827 92.5877 212.698 93.166 211.193 93.166ZM211.002 85.1143C210.382 85.1143 209.862 85.3411 209.441 85.7949C209.021 86.2432 208.761 86.874 208.661 87.6875H213.16V87.5713C213.116 86.791 212.906 86.1878 212.529 85.7617C212.153 85.3301 211.644 85.1143 211.002 85.1143Z" fill="#90949C"/>
<rect x="65" y="128" width="362" height="48" rx="5" fill="white" stroke="#DDDFE2" stroke-width="2"/>
<path d="M88.9639 152.613C87.597 152.22 86.6009 151.738 85.9756 151.168C85.3558 150.593 85.0459 149.885 85.0459 149.043C85.0459 148.092 85.425 147.306 86.1831 146.686C86.9468 146.061 87.9373 145.748 89.1548 145.748C89.9849 145.748 90.7236 145.909 91.3711 146.229C92.0241 146.55 92.5277 146.993 92.8818 147.558C93.2415 148.122 93.4214 148.739 93.4214 149.409H91.8193C91.8193 148.678 91.5869 148.105 91.1221 147.69C90.6572 147.27 90.0015 147.06 89.1548 147.06C88.369 147.06 87.7547 147.234 87.312 147.583C86.8748 147.926 86.6562 148.404 86.6562 149.019C86.6562 149.511 86.8638 149.929 87.2788 150.272C87.6994 150.61 88.4105 150.919 89.4121 151.202C90.4193 151.484 91.2051 151.797 91.7695 152.14C92.3395 152.477 92.7601 152.873 93.0312 153.327C93.3079 153.78 93.4463 154.314 93.4463 154.929C93.4463 155.908 93.0645 156.694 92.3008 157.286C91.5371 157.873 90.5161 158.166 89.2378 158.166C88.4077 158.166 87.633 158.008 86.9136 157.693C86.1942 157.372 85.638 156.935 85.2451 156.381C84.8577 155.828 84.6641 155.2 84.6641 154.497H86.2661C86.2661 155.228 86.5345 155.806 87.0713 156.232C87.6136 156.653 88.3358 156.863 89.2378 156.863C90.0789 156.863 90.7236 156.691 91.1719 156.348C91.6201 156.005 91.8442 155.537 91.8442 154.945C91.8442 154.353 91.6367 153.897 91.2217 153.576C90.8066 153.249 90.054 152.928 88.9639 152.613ZM98.9829 158.166C97.7655 158.166 96.7749 157.768 96.0112 156.971C95.2476 156.168 94.8657 155.097 94.8657 153.758V153.476C94.8657 152.585 95.0345 151.791 95.3721 151.094C95.7152 150.391 96.1911 149.843 96.7998 149.45C97.4141 149.052 98.0781 148.853 98.792 148.853C99.9596 148.853 100.867 149.237 101.515 150.006C102.162 150.776 102.486 151.877 102.486 153.31V153.949H96.4014C96.4235 154.835 96.6808 155.551 97.1733 156.099C97.6714 156.641 98.3022 156.913 99.0659 156.913C99.6082 156.913 100.068 156.802 100.444 156.581C100.82 156.359 101.149 156.066 101.432 155.701L102.37 156.431C101.617 157.588 100.488 158.166 98.9829 158.166ZM98.792 150.114C98.1722 150.114 97.652 150.341 97.2314 150.795C96.8109 151.243 96.5508 151.874 96.4512 152.688H100.95V152.571C100.906 151.791 100.696 151.188 100.319 150.762C99.943 150.33 99.4339 150.114 98.792 150.114ZM105.723 149.019L105.773 150.147C106.459 149.284 107.356 148.853 108.462 148.853C110.361 148.853 111.318 149.923 111.334 152.065V158H109.799V152.057C109.793 151.409 109.644 150.931 109.351 150.621C109.063 150.311 108.612 150.156 107.998 150.156C107.5 150.156 107.062 150.289 106.686 150.554C106.31 150.82 106.016 151.168 105.806 151.6V158H104.271V149.019H105.723ZM115.186 150.106C115.867 149.27 116.752 148.853 117.842 148.853C119.74 148.853 120.698 149.923 120.714 152.065V158H119.179V152.057C119.173 151.409 119.024 150.931 118.73 150.621C118.443 150.311 117.992 150.156 117.377 150.156C116.879 150.156 116.442 150.289 116.066 150.554C115.69 150.82 115.396 151.168 115.186 151.6V158H113.65V145.25H115.186V150.106ZM128.559 158C128.47 157.823 128.398 157.507 128.343 157.054C127.629 157.795 126.777 158.166 125.786 158.166C124.901 158.166 124.173 157.917 123.603 157.419C123.039 156.915 122.756 156.279 122.756 155.51C122.756 154.575 123.111 153.85 123.819 153.335C124.533 152.815 125.534 152.555 126.824 152.555H128.318V151.849C128.318 151.312 128.157 150.886 127.836 150.571C127.515 150.25 127.042 150.089 126.417 150.089C125.869 150.089 125.41 150.228 125.039 150.504C124.668 150.781 124.483 151.116 124.483 151.509H122.939C122.939 151.061 123.097 150.629 123.412 150.214C123.733 149.793 124.165 149.461 124.707 149.218C125.255 148.974 125.855 148.853 126.508 148.853C127.543 148.853 128.354 149.113 128.94 149.633C129.527 150.147 129.831 150.859 129.854 151.766V155.9C129.854 156.724 129.959 157.38 130.169 157.867V158H128.559ZM126.01 156.83C126.492 156.83 126.948 156.705 127.38 156.456C127.812 156.207 128.124 155.883 128.318 155.485V153.642H127.114C125.233 153.642 124.292 154.193 124.292 155.294C124.292 155.775 124.452 156.152 124.773 156.423C125.094 156.694 125.507 156.83 126.01 156.83Z" fill="#90949C"/>
<rect x="65" y="195" width="362" height="48" rx="5" fill="#1877F2" stroke="#1877F2" stroke-width="2"/>
<path d="M228.824 220.838H223.199V224.646H229.801V227H220.27V212.781H229.781V215.154H223.199V218.543H228.824V220.838ZM233.932 216.434L234.02 217.654C234.775 216.71 235.787 216.238 237.057 216.238C238.176 216.238 239.01 216.567 239.557 217.225C240.104 217.882 240.383 218.865 240.396 220.174V227H237.574V220.242C237.574 219.643 237.444 219.21 237.184 218.943C236.923 218.67 236.49 218.533 235.885 218.533C235.09 218.533 234.495 218.872 234.098 219.549V227H231.275V216.434H233.932ZM245.924 213.836V216.434H247.73V218.504H245.924V223.777C245.924 224.168 245.999 224.448 246.148 224.617C246.298 224.786 246.585 224.871 247.008 224.871C247.32 224.871 247.597 224.848 247.838 224.803V226.941C247.285 227.111 246.715 227.195 246.129 227.195C244.15 227.195 243.141 226.196 243.102 224.197V218.504H241.559V216.434H243.102V213.836H245.924ZM255.24 219.08C254.856 219.028 254.518 219.002 254.225 219.002C253.157 219.002 252.457 219.363 252.125 220.086V227H249.303V216.434H251.969L252.047 217.693C252.613 216.723 253.398 216.238 254.4 216.238C254.713 216.238 255.006 216.281 255.279 216.365L255.24 219.08ZM262.438 227C262.307 226.746 262.213 226.43 262.154 226.053C261.471 226.814 260.582 227.195 259.488 227.195C258.453 227.195 257.594 226.896 256.91 226.297C256.233 225.698 255.895 224.943 255.895 224.031C255.895 222.911 256.308 222.052 257.135 221.453C257.968 220.854 259.169 220.551 260.738 220.545H262.037V219.939C262.037 219.451 261.91 219.061 261.656 218.768C261.409 218.475 261.015 218.328 260.475 218.328C259.999 218.328 259.625 218.442 259.352 218.67C259.085 218.898 258.951 219.21 258.951 219.607H256.129C256.129 218.995 256.318 218.429 256.695 217.908C257.073 217.387 257.607 216.98 258.297 216.688C258.987 216.388 259.762 216.238 260.621 216.238C261.923 216.238 262.955 216.567 263.717 217.225C264.485 217.876 264.869 218.794 264.869 219.979V224.559C264.876 225.561 265.016 226.32 265.289 226.834V227H262.438ZM260.104 225.037C260.52 225.037 260.904 224.946 261.256 224.764C261.607 224.575 261.868 224.324 262.037 224.012V222.195H260.982C259.57 222.195 258.818 222.684 258.727 223.66L258.717 223.826C258.717 224.178 258.84 224.467 259.088 224.695C259.335 224.923 259.674 225.037 260.104 225.037ZM272.975 219.08C272.59 219.028 272.252 219.002 271.959 219.002C270.891 219.002 270.191 219.363 269.859 220.086V227H267.037V216.434H269.703L269.781 217.693C270.348 216.723 271.132 216.238 272.135 216.238C272.447 216.238 272.74 216.281 273.014 216.365L272.975 219.08Z" fill="white"/>
<rect x="163" y="326" width="166" height="46" rx="5" fill="#36A420" stroke="#36A420" stroke-width="2"/>
<path d="M191.567 350.974C191.473 352.275 190.991 353.298 190.123 354.045C189.259 354.792 188.119 355.166 186.703 355.166C185.153 355.166 183.933 354.646 183.042 353.605C182.157 352.56 181.714 351.126 181.714 349.306V348.567C181.714 347.405 181.919 346.381 182.328 345.496C182.738 344.61 183.321 343.932 184.08 343.462C184.843 342.986 185.729 342.748 186.736 342.748C188.13 342.748 189.254 343.122 190.106 343.869C190.958 344.616 191.451 345.664 191.583 347.015H189.093C189.032 346.234 188.814 345.67 188.438 345.321C188.067 344.967 187.5 344.79 186.736 344.79C185.906 344.79 185.283 345.089 184.868 345.687C184.459 346.279 184.248 347.2 184.237 348.451V349.364C184.237 350.67 184.434 351.624 184.827 352.228C185.225 352.831 185.85 353.132 186.703 353.132C187.472 353.132 188.045 352.958 188.421 352.609C188.803 352.255 189.021 351.71 189.077 350.974H191.567ZM198.091 348.268C197.765 348.224 197.477 348.202 197.228 348.202C196.32 348.202 195.726 348.509 195.443 349.123V355H193.044V346.019H195.311L195.377 347.089C195.858 346.265 196.525 345.853 197.377 345.853C197.643 345.853 197.892 345.889 198.125 345.96L198.091 348.268ZM201.785 355H199.378V346.019H201.785V355ZM199.237 343.694C199.237 343.335 199.356 343.039 199.594 342.806C199.837 342.574 200.167 342.458 200.582 342.458C200.991 342.458 201.318 342.574 201.561 342.806C201.805 343.039 201.926 343.335 201.926 343.694C201.926 344.06 201.802 344.358 201.553 344.591C201.309 344.823 200.986 344.939 200.582 344.939C200.178 344.939 199.851 344.823 199.602 344.591C199.359 344.358 199.237 344.06 199.237 343.694ZM208.974 355C208.863 354.784 208.783 354.516 208.733 354.195C208.152 354.842 207.396 355.166 206.467 355.166C205.587 355.166 204.856 354.911 204.275 354.402C203.7 353.893 203.412 353.251 203.412 352.477C203.412 351.525 203.764 350.794 204.466 350.285C205.175 349.776 206.196 349.519 207.529 349.513H208.633V348.999C208.633 348.583 208.525 348.251 208.31 348.002C208.099 347.753 207.764 347.629 207.305 347.629C206.901 347.629 206.583 347.726 206.351 347.919C206.124 348.113 206.01 348.379 206.01 348.716H203.611C203.611 348.196 203.772 347.715 204.093 347.272C204.414 346.829 204.868 346.483 205.454 346.234C206.041 345.98 206.699 345.853 207.43 345.853C208.536 345.853 209.414 346.132 210.061 346.691C210.714 347.244 211.041 348.025 211.041 349.032V352.925C211.046 353.777 211.165 354.422 211.397 354.859V355H208.974ZM206.99 353.332C207.344 353.332 207.67 353.254 207.969 353.099C208.268 352.939 208.489 352.726 208.633 352.46V350.916H207.737C206.536 350.916 205.897 351.331 205.819 352.161L205.811 352.302C205.811 352.601 205.916 352.847 206.126 353.041C206.337 353.235 206.625 353.332 206.99 353.332ZM217.93 348.268C217.604 348.224 217.316 348.202 217.067 348.202C216.159 348.202 215.564 348.509 215.282 349.123V355H212.883V346.019H215.149L215.216 347.089C215.697 346.265 216.364 345.853 217.216 345.853C217.482 345.853 217.731 345.889 217.963 345.96L217.93 348.268ZM225.534 346.019L225.608 347.056C226.25 346.254 227.111 345.853 228.19 345.853C229.142 345.853 229.85 346.132 230.315 346.691C230.78 347.25 231.018 348.085 231.029 349.198V355H228.63V349.256C228.63 348.747 228.519 348.379 228.298 348.152C228.076 347.919 227.708 347.803 227.194 347.803C226.519 347.803 226.012 348.091 225.675 348.667V355H223.276V346.019H225.534ZM232.481 350.426C232.481 349.535 232.653 348.741 232.996 348.044C233.339 347.347 233.832 346.807 234.474 346.425C235.121 346.043 235.871 345.853 236.723 345.853C237.935 345.853 238.923 346.223 239.687 346.965C240.456 347.706 240.885 348.714 240.973 349.986L240.99 350.601C240.99 351.979 240.605 353.085 239.836 353.921C239.067 354.751 238.035 355.166 236.74 355.166C235.445 355.166 234.41 354.751 233.635 353.921C232.866 353.091 232.481 351.962 232.481 350.534V350.426ZM234.88 350.601C234.88 351.453 235.041 352.106 235.362 352.56C235.683 353.008 236.142 353.232 236.74 353.232C237.321 353.232 237.775 353.011 238.101 352.568C238.428 352.12 238.591 351.406 238.591 350.426C238.591 349.591 238.428 348.943 238.101 348.484C237.775 348.025 237.315 347.795 236.723 347.795C236.137 347.795 235.683 348.025 235.362 348.484C235.041 348.938 234.88 349.643 234.88 350.601ZM245.696 352.07L247.365 346.019H249.872L246.842 355H244.551L241.521 346.019H244.028L245.696 352.07ZM256.006 355C255.895 354.784 255.815 354.516 255.765 354.195C255.184 354.842 254.429 355.166 253.499 355.166C252.619 355.166 251.889 354.911 251.308 354.402C250.732 353.893 250.444 353.251 250.444 352.477C250.444 351.525 250.796 350.794 251.499 350.285C252.207 349.776 253.228 349.519 254.562 349.513H255.666V348.999C255.666 348.583 255.558 348.251 255.342 348.002C255.132 347.753 254.797 347.629 254.337 347.629C253.933 347.629 253.615 347.726 253.383 347.919C253.156 348.113 253.042 348.379 253.042 348.716H250.644C250.644 348.196 250.804 347.715 251.125 347.272C251.446 346.829 251.9 346.483 252.486 346.234C253.073 345.98 253.731 345.853 254.462 345.853C255.569 345.853 256.446 346.132 257.093 346.691C257.746 347.244 258.073 348.025 258.073 349.032V352.925C258.078 353.777 258.197 354.422 258.43 354.859V355H256.006ZM254.022 353.332C254.376 353.332 254.703 353.254 255.001 353.099C255.3 352.939 255.522 352.726 255.666 352.46V350.916H254.769C253.568 350.916 252.929 351.331 252.852 352.161L252.843 352.302C252.843 352.601 252.948 352.847 253.159 353.041C253.369 353.235 253.657 353.332 254.022 353.332ZM267.884 353.232C268.327 353.232 268.687 353.11 268.963 352.867C269.24 352.623 269.384 352.299 269.395 351.896H271.645C271.639 352.504 271.473 353.063 271.146 353.572C270.82 354.076 270.372 354.469 269.802 354.751C269.237 355.028 268.612 355.166 267.926 355.166C266.642 355.166 265.629 354.759 264.888 353.946C264.146 353.127 263.775 351.998 263.775 350.559V350.401C263.775 349.018 264.143 347.914 264.879 347.089C265.615 346.265 266.625 345.853 267.909 345.853C269.033 345.853 269.932 346.174 270.607 346.815C271.288 347.452 271.633 348.301 271.645 349.364H269.395C269.384 348.899 269.24 348.523 268.963 348.235C268.687 347.942 268.321 347.795 267.868 347.795C267.309 347.795 266.885 348 266.598 348.409C266.315 348.813 266.174 349.472 266.174 350.385V350.634C266.174 351.558 266.315 352.222 266.598 352.626C266.88 353.03 267.309 353.232 267.884 353.232ZM272.641 350.426C272.641 349.535 272.812 348.741 273.155 348.044C273.498 347.347 273.991 346.807 274.633 346.425C275.28 346.043 276.03 345.853 276.882 345.853C278.094 345.853 279.082 346.223 279.846 346.965C280.615 347.706 281.044 348.714 281.132 349.986L281.149 350.601C281.149 351.979 280.764 353.085 279.995 353.921C279.226 354.751 278.194 355.166 276.899 355.166C275.604 355.166 274.569 354.751 273.794 353.921C273.025 353.091 272.641 351.962 272.641 350.534V350.426ZM275.04 350.601C275.04 351.453 275.2 352.106 275.521 352.56C275.842 353.008 276.301 353.232 276.899 353.232C277.48 353.232 277.934 353.011 278.26 352.568C278.587 352.12 278.75 351.406 278.75 350.426C278.75 349.591 278.587 348.943 278.26 348.484C277.934 348.025 277.474 347.795 276.882 347.795C276.296 347.795 275.842 348.025 275.521 348.484C275.2 348.938 275.04 349.643 275.04 350.601ZM284.834 346.019L284.909 347.056C285.551 346.254 286.412 345.853 287.491 345.853C288.443 345.853 289.151 346.132 289.616 346.691C290.081 347.25 290.319 348.085 290.33 349.198V355H287.931V349.256C287.931 348.747 287.82 348.379 287.599 348.152C287.377 347.919 287.009 347.803 286.495 347.803C285.819 347.803 285.313 348.091 284.976 348.667V355H282.577V346.019H284.834ZM295.028 343.811V346.019H296.563V347.778H295.028V352.261C295.028 352.593 295.091 352.831 295.219 352.975C295.346 353.118 295.59 353.19 295.949 353.19C296.215 353.19 296.45 353.171 296.655 353.132V354.95C296.184 355.094 295.7 355.166 295.202 355.166C293.52 355.166 292.662 354.317 292.629 352.618V347.778H291.317V346.019H292.629V343.811H295.028ZM303.104 355C302.994 354.784 302.914 354.516 302.864 354.195C302.283 354.842 301.527 355.166 300.598 355.166C299.718 355.166 298.987 354.911 298.406 354.402C297.831 353.893 297.543 353.251 297.543 352.477C297.543 351.525 297.894 350.794 298.597 350.285C299.306 349.776 300.326 349.519 301.66 349.513H302.764V348.999C302.764 348.583 302.656 348.251 302.44 348.002C302.23 347.753 301.895 347.629 301.436 347.629C301.032 347.629 300.714 347.726 300.481 347.919C300.255 348.113 300.141 348.379 300.141 348.716H297.742C297.742 348.196 297.903 347.715 298.224 347.272C298.545 346.829 298.998 346.483 299.585 346.234C300.172 345.98 300.83 345.853 301.561 345.853C302.667 345.853 303.544 346.132 304.192 346.691C304.845 347.244 305.171 348.025 305.171 349.032V352.925C305.177 353.777 305.296 354.422 305.528 354.859V355H303.104ZM301.121 353.332C301.475 353.332 301.801 353.254 302.1 353.099C302.399 352.939 302.62 352.726 302.764 352.46V350.916H301.868C300.667 350.916 300.028 351.331 299.95 352.161L299.942 352.302C299.942 352.601 300.047 352.847 300.257 353.041C300.468 353.235 300.755 353.332 301.121 353.332Z" fill="white"/>
<defs>
<filter id="filter0_d" x="0" y="0" width="498" height="454" filterUnits="userSpaceOnUse" color-interpolation-filters="sRGB">
<feFlood flood-opacity="0" result="BackgroundImageFix"/>
<feColorMatrix in="SourceAlpha" type="matrix" values="0 0 0 0 0 0 0 0 0 0 0 0 0 0 0 0 0 0 127 0"/>
<feMorphology radius="1" operator="dilate" in="SourceAlpha" result="effect1_dropShadow"/>
<feOffset dx="3" dy="7"/>
<feGaussianBlur stdDeviation="25"/>
<feColorMatrix type="matrix" values="0 0 0 0 0 0 0 0 0 0 0 0 0 0 0 0 0 0 0.13 0"/>
<feBlend mode="normal" in2="BackgroundImageFix" result="effect1_dropShadow"/>
<feBlend mode="normal" in="SourceGraphic" in2="effect1_dropShadow" result="shape"/>
</filter>
</defs>
</svg>
