<svg width="372" height="14" viewBox="0 0 372 14" fill="none" xmlns="http://www.w3.org/2000/svg">
<path d="M8.70215 7.68457C8.62467 8.75553 8.22819 9.59863 7.5127 10.2139C6.80176 10.8291 5.86296 11.1367 4.69629 11.1367C3.42025 11.1367 2.41536 10.7083 1.68164 9.85156C0.952474 8.99023 0.587891 7.8099 0.587891 6.31055V5.70215C0.587891 4.74512 0.75651 3.90202 1.09375 3.17285C1.43099 2.44368 1.91178 1.88542 2.53613 1.49805C3.16504 1.10612 3.89421 0.910156 4.72363 0.910156C5.87207 0.910156 6.7972 1.21777 7.49902 1.83301C8.20085 2.44824 8.60645 3.31185 8.71582 4.42383H6.66504C6.61491 3.78125 6.4349 3.31641 6.125 3.0293C5.81966 2.73763 5.35254 2.5918 4.72363 2.5918C4.04004 2.5918 3.52734 2.83789 3.18555 3.33008C2.84831 3.81771 2.67513 4.5765 2.66602 5.60645V6.3584C2.66602 7.43392 2.8278 8.22005 3.15137 8.7168C3.47949 9.21354 3.99447 9.46191 4.69629 9.46191C5.32975 9.46191 5.80143 9.31836 6.11133 9.03125C6.42578 8.73958 6.60579 8.29069 6.65137 7.68457H8.70215ZM14.0752 5.45605C13.8063 5.4196 13.5693 5.40137 13.3643 5.40137C12.6169 5.40137 12.127 5.6543 11.8945 6.16016V11H9.91895V3.60352H11.7852L11.8398 4.48535C12.2363 3.80632 12.7855 3.4668 13.4873 3.4668C13.7061 3.4668 13.9111 3.49642 14.1025 3.55566L14.0752 5.45605ZM17.1172 11H15.1348V3.60352H17.1172V11ZM15.0186 1.68945C15.0186 1.39323 15.1165 1.14941 15.3125 0.958008C15.513 0.766602 15.7842 0.670898 16.126 0.670898C16.4632 0.670898 16.7321 0.766602 16.9326 0.958008C17.1331 1.14941 17.2334 1.39323 17.2334 1.68945C17.2334 1.99023 17.1309 2.23633 16.9258 2.42773C16.7253 2.61914 16.4587 2.71484 16.126 2.71484C15.7933 2.71484 15.5244 2.61914 15.3193 2.42773C15.1188 2.23633 15.0186 1.99023 15.0186 1.68945ZM23.0371 11C22.946 10.8223 22.8799 10.6012 22.8389 10.3369C22.3604 10.8701 21.7383 11.1367 20.9727 11.1367C20.248 11.1367 19.6465 10.9271 19.168 10.5078C18.694 10.0885 18.457 9.5599 18.457 8.92188C18.457 8.13802 18.7464 7.53646 19.3252 7.11719C19.9085 6.69792 20.7493 6.486 21.8477 6.48145H22.7568V6.05762C22.7568 5.71582 22.668 5.44238 22.4902 5.2373C22.3171 5.03223 22.0413 4.92969 21.6631 4.92969C21.3304 4.92969 21.0684 5.00944 20.877 5.16895C20.6901 5.32845 20.5967 5.5472 20.5967 5.8252H18.6211C18.6211 5.39681 18.7533 5.00033 19.0176 4.63574C19.2819 4.27116 19.6556 3.98633 20.1387 3.78125C20.6217 3.57161 21.1641 3.4668 21.7656 3.4668C22.6771 3.4668 23.3994 3.69694 23.9326 4.15723C24.4704 4.61296 24.7393 5.25553 24.7393 6.08496V9.29102C24.7438 9.99284 24.8418 10.5238 25.0332 10.8838V11H23.0371ZM21.4033 9.62598C21.695 9.62598 21.9639 9.56217 22.21 9.43457C22.4561 9.30241 22.6383 9.12695 22.7568 8.9082V7.63672H22.0186C21.0296 7.63672 20.5033 7.97852 20.4395 8.66211L20.4326 8.77832C20.4326 9.02441 20.5192 9.22721 20.6924 9.38672C20.8656 9.54622 21.1025 9.62598 21.4033 9.62598ZM30.4131 5.45605C30.1442 5.4196 29.9072 5.40137 29.7021 5.40137C28.9548 5.40137 28.4648 5.6543 28.2324 6.16016V11H26.2568V3.60352H28.123L28.1777 4.48535C28.5742 3.80632 29.1234 3.4668 29.8252 3.4668C30.0439 3.4668 30.249 3.49642 30.4404 3.55566L30.4131 5.45605ZM39.2861 10.248C38.7985 10.8405 38.124 11.1367 37.2627 11.1367C36.4697 11.1367 35.8636 10.9089 35.4443 10.4531C35.0296 9.9974 34.8177 9.32975 34.8086 8.4502V3.60352H36.7842V8.38184C36.7842 9.15202 37.1351 9.53711 37.8369 9.53711C38.5068 9.53711 38.9671 9.30469 39.2178 8.83984V3.60352H41.2002V11H39.3408L39.2861 10.248ZM44.543 3.60352L44.6045 4.43066C45.1286 3.78809 45.8372 3.4668 46.7305 3.4668C47.6829 3.4668 48.3369 3.84277 48.6924 4.59473C49.2119 3.84277 49.9525 3.4668 50.9141 3.4668C51.7161 3.4668 52.3132 3.7015 52.7051 4.1709C53.097 4.63574 53.293 5.33757 53.293 6.27637V11H51.3105V6.2832C51.3105 5.86393 51.2285 5.55859 51.0645 5.36719C50.9004 5.17122 50.611 5.07324 50.1963 5.07324C49.6038 5.07324 49.1937 5.35579 48.9658 5.9209L48.9727 11H46.9971V6.29004C46.9971 5.86165 46.9128 5.55176 46.7441 5.36035C46.5755 5.16895 46.2884 5.07324 45.8828 5.07324C45.3223 5.07324 44.9167 5.30566 44.666 5.77051V11H42.6904V3.60352H44.543ZM59.1035 11C59.0124 10.8223 58.9463 10.6012 58.9053 10.3369C58.4268 10.8701 57.8047 11.1367 57.0391 11.1367C56.3145 11.1367 55.7129 10.9271 55.2344 10.5078C54.7604 10.0885 54.5234 9.5599 54.5234 8.92188C54.5234 8.13802 54.8128 7.53646 55.3916 7.11719C55.9749 6.69792 56.8158 6.486 57.9141 6.48145H58.8232V6.05762C58.8232 5.71582 58.7344 5.44238 58.5566 5.2373C58.3835 5.03223 58.1077 4.92969 57.7295 4.92969C57.3968 4.92969 57.1348 5.00944 56.9434 5.16895C56.7565 5.32845 56.6631 5.5472 56.6631 5.8252H54.6875C54.6875 5.39681 54.8197 5.00033 55.084 4.63574C55.3483 4.27116 55.722 3.98633 56.2051 3.78125C56.6882 3.57161 57.2305 3.4668 57.832 3.4668C58.7435 3.4668 59.4658 3.69694 59.999 4.15723C60.5368 4.61296 60.8057 5.25553 60.8057 6.08496V9.29102C60.8102 9.99284 60.9082 10.5238 61.0996 10.8838V11H59.1035ZM57.4697 9.62598C57.7614 9.62598 58.0303 9.56217 58.2764 9.43457C58.5225 9.30241 58.7048 9.12695 58.8232 8.9082V7.63672H58.085C57.096 7.63672 56.5697 7.97852 56.5059 8.66211L56.499 8.77832C56.499 9.02441 56.5856 9.22721 56.7588 9.38672C56.932 9.54622 57.1689 9.62598 57.4697 9.62598ZM67.9902 7.49316V11H65.9395V1.04688H69.8223C70.5697 1.04688 71.2259 1.18359 71.791 1.45703C72.3607 1.73047 72.7982 2.12012 73.1035 2.62598C73.4089 3.12728 73.5615 3.69922 73.5615 4.3418C73.5615 5.31706 73.2266 6.08724 72.5566 6.65234C71.8913 7.21289 70.9684 7.49316 69.7881 7.49316H67.9902ZM67.9902 5.83203H69.8223C70.3646 5.83203 70.777 5.70443 71.0596 5.44922C71.3467 5.19401 71.4902 4.82943 71.4902 4.35547C71.4902 3.86784 71.3467 3.47363 71.0596 3.17285C70.7725 2.87207 70.376 2.71712 69.8701 2.70801H67.9902V5.83203ZM79.0508 11C78.9596 10.8223 78.8936 10.6012 78.8525 10.3369C78.374 10.8701 77.752 11.1367 76.9863 11.1367C76.2617 11.1367 75.6602 10.9271 75.1816 10.5078C74.7077 10.0885 74.4707 9.5599 74.4707 8.92188C74.4707 8.13802 74.7601 7.53646 75.3389 7.11719C75.9222 6.69792 76.763 6.486 77.8613 6.48145H78.7705V6.05762C78.7705 5.71582 78.6816 5.44238 78.5039 5.2373C78.3307 5.03223 78.055 4.92969 77.6768 4.92969C77.3441 4.92969 77.082 5.00944 76.8906 5.16895C76.7038 5.32845 76.6104 5.5472 76.6104 5.8252H74.6348C74.6348 5.39681 74.7669 5.00033 75.0312 4.63574C75.2956 4.27116 75.6693 3.98633 76.1523 3.78125C76.6354 3.57161 77.1777 3.4668 77.7793 3.4668C78.6908 3.4668 79.4131 3.69694 79.9463 4.15723C80.484 4.61296 80.7529 5.25553 80.7529 6.08496V9.29102C80.7575 9.99284 80.8555 10.5238 81.0469 10.8838V11H79.0508ZM77.417 9.62598C77.7087 9.62598 77.9775 9.56217 78.2236 9.43457C78.4697 9.30241 78.652 9.12695 78.7705 8.9082V7.63672H78.0322C77.0433 7.63672 76.5169 7.97852 76.4531 8.66211L76.4463 8.77832C76.4463 9.02441 76.5329 9.22721 76.7061 9.38672C76.8792 9.54622 77.1162 9.62598 77.417 9.62598ZM78.1689 0.5H80.3223L78.4287 2.61914H76.8223L78.1689 0.5ZM81.9834 7.24707C81.9834 6.1123 82.2523 5.19857 82.79 4.50586C83.3324 3.81315 84.0615 3.4668 84.9775 3.4668C85.7887 3.4668 86.4199 3.74479 86.8711 4.30078L86.9531 3.60352H88.7441V10.7539C88.7441 11.401 88.596 11.9639 88.2998 12.4424C88.0081 12.9209 87.5957 13.2855 87.0625 13.5361C86.5293 13.7868 85.9049 13.9121 85.1895 13.9121C84.6471 13.9121 84.1185 13.8027 83.6035 13.584C83.0885 13.3698 82.6989 13.0918 82.4346 12.75L83.3096 11.5469C83.8018 12.0983 84.3988 12.374 85.1006 12.374C85.6247 12.374 86.0326 12.2327 86.3242 11.9502C86.6159 11.6722 86.7617 11.2757 86.7617 10.7607V10.3643C86.306 10.8792 85.7067 11.1367 84.9639 11.1367C84.0752 11.1367 83.3551 10.7904 82.8037 10.0977C82.2568 9.40039 81.9834 8.47754 81.9834 7.3291V7.24707ZM83.959 7.39062C83.959 8.06055 84.0934 8.58691 84.3623 8.96973C84.6312 9.34798 85.0003 9.53711 85.4697 9.53711C86.0713 9.53711 86.502 9.31152 86.7617 8.86035V5.75C86.4974 5.29883 86.0713 5.07324 85.4834 5.07324C85.0094 5.07324 84.6357 5.26693 84.3623 5.6543C84.0934 6.04167 83.959 6.62044 83.959 7.39062ZM92.3535 11H90.3711V3.60352H92.3535V11ZM90.2549 1.68945C90.2549 1.39323 90.3529 1.14941 90.5488 0.958008C90.7493 0.766602 91.0205 0.670898 91.3623 0.670898C91.6995 0.670898 91.9684 0.766602 92.1689 0.958008C92.3695 1.14941 92.4697 1.39323 92.4697 1.68945C92.4697 1.99023 92.3672 2.23633 92.1621 2.42773C91.9616 2.61914 91.695 2.71484 91.3623 2.71484C91.0296 2.71484 90.7607 2.61914 90.5557 2.42773C90.3551 2.23633 90.2549 1.99023 90.2549 1.68945ZM95.8057 3.60352L95.8672 4.45801C96.3958 3.7972 97.1045 3.4668 97.9932 3.4668C98.777 3.4668 99.3604 3.69694 99.7432 4.15723C100.126 4.61751 100.322 5.30566 100.331 6.22168V11H98.3555V6.26953C98.3555 5.85026 98.2643 5.5472 98.082 5.36035C97.8997 5.16895 97.5967 5.07324 97.1729 5.07324C96.6169 5.07324 96.1999 5.31022 95.9219 5.78418V11H93.9463V3.60352H95.8057ZM106.121 11C106.03 10.8223 105.964 10.6012 105.923 10.3369C105.444 10.8701 104.822 11.1367 104.057 11.1367C103.332 11.1367 102.73 10.9271 102.252 10.5078C101.778 10.0885 101.541 9.5599 101.541 8.92188C101.541 8.13802 101.83 7.53646 102.409 7.11719C102.993 6.69792 103.833 6.486 104.932 6.48145H105.841V6.05762C105.841 5.71582 105.752 5.44238 105.574 5.2373C105.401 5.03223 105.125 4.92969 104.747 4.92969C104.414 4.92969 104.152 5.00944 103.961 5.16895C103.774 5.32845 103.681 5.5472 103.681 5.8252H101.705C101.705 5.39681 101.837 5.00033 102.102 4.63574C102.366 4.27116 102.74 3.98633 103.223 3.78125C103.706 3.57161 104.248 3.4668 104.85 3.4668C105.761 3.4668 106.483 3.69694 107.017 4.15723C107.554 4.61296 107.823 5.25553 107.823 6.08496V9.29102C107.828 9.99284 107.926 10.5238 108.117 10.8838V11H106.121ZM104.487 9.62598C104.779 9.62598 105.048 9.56217 105.294 9.43457C105.54 9.30241 105.722 9.12695 105.841 8.9082V7.63672H105.103C104.114 7.63672 103.587 7.97852 103.523 8.66211L103.517 8.77832C103.517 9.02441 103.603 9.22721 103.776 9.38672C103.95 9.54622 104.187 9.62598 104.487 9.62598ZM119.273 7.38379C119.273 8.50944 119.016 9.41634 118.501 10.1045C117.986 10.7926 117.289 11.1367 116.409 11.1367C115.511 11.1367 114.805 10.8519 114.29 10.2822V13.8438H113.025V3.60352H114.181L114.242 4.42383C114.757 3.78581 115.473 3.4668 116.389 3.4668C117.277 3.4668 117.979 3.80176 118.494 4.47168C119.014 5.1416 119.273 6.07357 119.273 7.26758V7.38379ZM118.009 7.24023C118.009 6.40625 117.831 5.74772 117.476 5.26465C117.12 4.78158 116.632 4.54004 116.013 4.54004C115.247 4.54004 114.673 4.87956 114.29 5.55859V9.09277C114.668 9.76725 115.247 10.1045 116.026 10.1045C116.632 10.1045 117.113 9.86523 117.469 9.38672C117.829 8.90365 118.009 8.18815 118.009 7.24023ZM125.453 11C125.38 10.8542 125.321 10.5944 125.275 10.2207C124.688 10.8314 123.986 11.1367 123.17 11.1367C122.441 11.1367 121.841 10.9316 121.372 10.5215C120.907 10.1068 120.675 9.58268 120.675 8.94922C120.675 8.17904 120.966 7.58203 121.55 7.1582C122.138 6.72982 122.963 6.51562 124.024 6.51562H125.255V5.93457C125.255 5.49251 125.123 5.1416 124.858 4.88184C124.594 4.61751 124.204 4.48535 123.689 4.48535C123.238 4.48535 122.86 4.59928 122.555 4.82715C122.249 5.05501 122.097 5.33073 122.097 5.6543H120.825C120.825 5.28516 120.955 4.92969 121.215 4.58789C121.479 4.24154 121.835 3.9681 122.281 3.76758C122.732 3.56706 123.227 3.4668 123.765 3.4668C124.617 3.4668 125.285 3.68099 125.768 4.10938C126.251 4.5332 126.501 5.11882 126.52 5.86621V9.27051C126.52 9.94954 126.606 10.4896 126.779 10.8906V11H125.453ZM123.354 10.0361C123.751 10.0361 124.127 9.93359 124.482 9.72852C124.838 9.52344 125.095 9.25684 125.255 8.92871V7.41113H124.264C122.714 7.41113 121.939 7.86458 121.939 8.77148C121.939 9.16797 122.072 9.47786 122.336 9.70117C122.6 9.92448 122.94 10.0361 123.354 10.0361ZM132.077 4.73828C131.886 4.70638 131.678 4.69043 131.455 4.69043C130.626 4.69043 130.063 5.04362 129.767 5.75V11H128.502V3.60352H129.732L129.753 4.45801C130.168 3.7972 130.756 3.4668 131.517 3.4668C131.763 3.4668 131.95 3.4987 132.077 3.5625V4.73828ZM137.539 11C137.466 10.8542 137.407 10.5944 137.361 10.2207C136.773 10.8314 136.072 11.1367 135.256 11.1367C134.527 11.1367 133.927 10.9316 133.458 10.5215C132.993 10.1068 132.761 9.58268 132.761 8.94922C132.761 8.17904 133.052 7.58203 133.636 7.1582C134.224 6.72982 135.049 6.51562 136.11 6.51562H137.341V5.93457C137.341 5.49251 137.209 5.1416 136.944 4.88184C136.68 4.61751 136.29 4.48535 135.775 4.48535C135.324 4.48535 134.946 4.59928 134.641 4.82715C134.335 5.05501 134.183 5.33073 134.183 5.6543H132.911C132.911 5.28516 133.041 4.92969 133.301 4.58789C133.565 4.24154 133.921 3.9681 134.367 3.76758C134.818 3.56706 135.313 3.4668 135.851 3.4668C136.703 3.4668 137.37 3.68099 137.854 4.10938C138.337 4.5332 138.587 5.11882 138.605 5.86621V9.27051C138.605 9.94954 138.692 10.4896 138.865 10.8906V11H137.539ZM135.44 10.0361C135.837 10.0361 136.213 9.93359 136.568 9.72852C136.924 9.52344 137.181 9.25684 137.341 8.92871V7.41113H136.35C134.8 7.41113 134.025 7.86458 134.025 8.77148C134.025 9.16797 134.158 9.47786 134.422 9.70117C134.686 9.92448 135.026 10.0361 135.44 10.0361ZM148.627 10.2686C148.135 10.8473 147.412 11.1367 146.46 11.1367C145.672 11.1367 145.07 10.9089 144.655 10.4531C144.245 9.99284 144.038 9.3138 144.033 8.41602V3.60352H145.298V8.38184C145.298 9.50293 145.754 10.0635 146.665 10.0635C147.631 10.0635 148.274 9.70345 148.593 8.9834V3.60352H149.857V11H148.654L148.627 10.2686ZM152.975 3.60352L153.009 4.42383C153.551 3.78581 154.283 3.4668 155.203 3.4668C156.238 3.4668 156.942 3.86328 157.315 4.65625C157.562 4.30078 157.881 4.01367 158.272 3.79492C158.669 3.57617 159.136 3.4668 159.674 3.4668C161.296 3.4668 162.121 4.32585 162.148 6.04395V11H160.884V6.11914C160.884 5.59049 160.763 5.19629 160.521 4.93652C160.28 4.6722 159.874 4.54004 159.305 4.54004C158.835 4.54004 158.446 4.68132 158.136 4.96387C157.826 5.24186 157.646 5.61784 157.596 6.0918V11H156.324V6.15332C156.324 5.0778 155.798 4.54004 154.745 4.54004C153.916 4.54004 153.348 4.89323 153.043 5.59961V11H151.778V3.60352H152.975ZM168.629 11C168.556 10.8542 168.497 10.5944 168.451 10.2207C167.863 10.8314 167.161 11.1367 166.346 11.1367C165.617 11.1367 165.017 10.9316 164.548 10.5215C164.083 10.1068 163.851 9.58268 163.851 8.94922C163.851 8.17904 164.142 7.58203 164.726 7.1582C165.313 6.72982 166.138 6.51562 167.2 6.51562H168.431V5.93457C168.431 5.49251 168.299 5.1416 168.034 4.88184C167.77 4.61751 167.38 4.48535 166.865 4.48535C166.414 4.48535 166.036 4.59928 165.73 4.82715C165.425 5.05501 165.272 5.33073 165.272 5.6543H164.001C164.001 5.28516 164.131 4.92969 164.391 4.58789C164.655 4.24154 165.01 3.9681 165.457 3.76758C165.908 3.56706 166.403 3.4668 166.94 3.4668C167.793 3.4668 168.46 3.68099 168.943 4.10938C169.426 4.5332 169.677 5.11882 169.695 5.86621V9.27051C169.695 9.94954 169.782 10.4896 169.955 10.8906V11H168.629ZM166.53 10.0361C166.927 10.0361 167.303 9.93359 167.658 9.72852C168.014 9.52344 168.271 9.25684 168.431 8.92871V7.41113H167.439C165.89 7.41113 165.115 7.86458 165.115 8.77148C165.115 9.16797 165.247 9.47786 165.512 9.70117C165.776 9.92448 166.116 10.0361 166.53 10.0361ZM178.117 10.1045C178.568 10.1045 178.963 9.96777 179.3 9.69434C179.637 9.4209 179.824 9.0791 179.86 8.66895H181.057C181.034 9.09277 180.888 9.49609 180.619 9.87891C180.35 10.2617 179.99 10.5671 179.539 10.7949C179.092 11.0228 178.618 11.1367 178.117 11.1367C177.11 11.1367 176.308 10.8018 175.711 10.1318C175.118 9.45736 174.822 8.53678 174.822 7.37012V7.1582C174.822 6.43815 174.954 5.79785 175.219 5.2373C175.483 4.67676 175.861 4.24154 176.354 3.93164C176.85 3.62174 177.436 3.4668 178.11 3.4668C178.94 3.4668 179.628 3.71517 180.175 4.21191C180.726 4.70866 181.02 5.35352 181.057 6.14648H179.86C179.824 5.66797 179.642 5.27604 179.313 4.9707C178.99 4.66081 178.589 4.50586 178.11 4.50586C177.468 4.50586 176.969 4.73828 176.613 5.20312C176.262 5.66341 176.087 6.33105 176.087 7.20605V7.44531C176.087 8.29753 176.262 8.95378 176.613 9.41406C176.964 9.87435 177.465 10.1045 178.117 10.1045ZM185.548 11.1367C184.545 11.1367 183.729 10.8086 183.101 10.1523C182.472 9.49154 182.157 8.6097 182.157 7.50684V7.27441C182.157 6.54069 182.296 5.88672 182.574 5.3125C182.857 4.73372 183.249 4.28255 183.75 3.95898C184.256 3.63086 184.803 3.4668 185.391 3.4668C186.352 3.4668 187.1 3.78353 187.633 4.41699C188.166 5.05046 188.433 5.95736 188.433 7.1377V7.66406H183.422C183.44 8.39323 183.652 8.9834 184.058 9.43457C184.468 9.88118 184.987 10.1045 185.616 10.1045C186.063 10.1045 186.441 10.0133 186.751 9.83105C187.061 9.64876 187.332 9.40723 187.564 9.10645L188.337 9.70801C187.717 10.6605 186.787 11.1367 185.548 11.1367ZM185.391 4.50586C184.88 4.50586 184.452 4.69271 184.105 5.06641C183.759 5.43555 183.545 5.95508 183.463 6.625H187.168V6.5293C187.132 5.88672 186.958 5.38997 186.648 5.03906C186.339 4.68359 185.919 4.50586 185.391 4.50586ZM191.276 11H190.012V0.5H191.276V11ZM196.376 11.1367C195.373 11.1367 194.558 10.8086 193.929 10.1523C193.3 9.49154 192.985 8.6097 192.985 7.50684V7.27441C192.985 6.54069 193.124 5.88672 193.402 5.3125C193.685 4.73372 194.077 4.28255 194.578 3.95898C195.084 3.63086 195.631 3.4668 196.219 3.4668C197.18 3.4668 197.928 3.78353 198.461 4.41699C198.994 5.05046 199.261 5.95736 199.261 7.1377V7.66406H194.25C194.268 8.39323 194.48 8.9834 194.886 9.43457C195.296 9.88118 195.815 10.1045 196.444 10.1045C196.891 10.1045 197.269 10.0133 197.579 9.83105C197.889 9.64876 198.16 9.40723 198.393 9.10645L199.165 9.70801C198.545 10.6605 197.616 11.1367 196.376 11.1367ZM196.219 4.50586C195.708 4.50586 195.28 4.69271 194.934 5.06641C194.587 5.43555 194.373 5.95508 194.291 6.625H197.996V6.5293C197.96 5.88672 197.786 5.38997 197.477 5.03906C197.167 4.68359 196.747 4.50586 196.219 4.50586ZM206.992 7.38379C206.992 8.514 206.732 9.42318 206.213 10.1113C205.693 10.7949 204.996 11.1367 204.121 11.1367C203.187 11.1367 202.465 10.8063 201.954 10.1455L201.893 11H200.73V0.5H201.995V4.41699C202.506 3.78353 203.21 3.4668 204.107 3.4668C205.005 3.4668 205.709 3.80632 206.22 4.48535C206.735 5.16439 206.992 6.09408 206.992 7.27441V7.38379ZM205.728 7.24023C205.728 6.37891 205.561 5.71354 205.229 5.24414C204.896 4.77474 204.417 4.54004 203.793 4.54004C202.959 4.54004 202.36 4.92741 201.995 5.70215V8.90137C202.382 9.67611 202.986 10.0635 203.807 10.0635C204.413 10.0635 204.884 9.82878 205.222 9.35938C205.559 8.88997 205.728 8.18359 205.728 7.24023ZM212.167 4.73828C211.976 4.70638 211.768 4.69043 211.545 4.69043C210.715 4.69043 210.153 5.04362 209.856 5.75V11H208.592V3.60352H209.822L209.843 4.45801C210.257 3.7972 210.845 3.4668 211.606 3.4668C211.853 3.4668 212.039 3.4987 212.167 3.5625V4.73828ZM214.71 11H213.445V3.60352H214.71V11ZM213.343 1.6416C213.343 1.43652 213.404 1.26335 213.527 1.12207C213.655 0.980794 213.842 0.910156 214.088 0.910156C214.334 0.910156 214.521 0.980794 214.648 1.12207C214.776 1.26335 214.84 1.43652 214.84 1.6416C214.84 1.84668 214.776 2.01758 214.648 2.1543C214.521 2.29102 214.334 2.35938 214.088 2.35938C213.842 2.35938 213.655 2.29102 213.527 2.1543C213.404 2.01758 213.343 1.84668 213.343 1.6416ZM216.433 7.24023C216.433 6.10547 216.701 5.19401 217.239 4.50586C217.777 3.81315 218.481 3.4668 219.352 3.4668C220.217 3.4668 220.903 3.76302 221.409 4.35547V0.5H222.674V11H221.512L221.45 10.207C220.944 10.8268 220.24 11.1367 219.338 11.1367C218.481 11.1367 217.782 10.7858 217.239 10.084C216.701 9.38216 216.433 8.46615 216.433 7.33594V7.24023ZM217.697 7.38379C217.697 8.22233 217.87 8.87858 218.217 9.35254C218.563 9.8265 219.042 10.0635 219.652 10.0635C220.454 10.0635 221.04 9.70345 221.409 8.9834V5.58594C221.031 4.88867 220.45 4.54004 219.666 4.54004C219.046 4.54004 218.563 4.7793 218.217 5.25781C217.87 5.73633 217.697 6.44499 217.697 7.38379ZM229.209 11C229.136 10.8542 229.077 10.5944 229.031 10.2207C228.443 10.8314 227.742 11.1367 226.926 11.1367C226.197 11.1367 225.597 10.9316 225.128 10.5215C224.663 10.1068 224.431 9.58268 224.431 8.94922C224.431 8.17904 224.722 7.58203 225.306 7.1582C225.894 6.72982 226.718 6.51562 227.78 6.51562H229.011V5.93457C229.011 5.49251 228.879 5.1416 228.614 4.88184C228.35 4.61751 227.96 4.48535 227.445 4.48535C226.994 4.48535 226.616 4.59928 226.311 4.82715C226.005 5.05501 225.853 5.33073 225.853 5.6543H224.581C224.581 5.28516 224.711 4.92969 224.971 4.58789C225.235 4.24154 225.59 3.9681 226.037 3.76758C226.488 3.56706 226.983 3.4668 227.521 3.4668C228.373 3.4668 229.04 3.68099 229.523 4.10938C230.007 4.5332 230.257 5.11882 230.275 5.86621V9.27051C230.275 9.94954 230.362 10.4896 230.535 10.8906V11H229.209ZM227.11 10.0361C227.507 10.0361 227.883 9.93359 228.238 9.72852C228.594 9.52344 228.851 9.25684 229.011 8.92871V7.41113H228.02C226.47 7.41113 225.695 7.86458 225.695 8.77148C225.695 9.16797 225.827 9.47786 226.092 9.70117C226.356 9.92448 226.696 10.0361 227.11 10.0361ZM231.95 7.24023C231.95 6.10547 232.219 5.19401 232.757 4.50586C233.295 3.81315 233.999 3.4668 234.869 3.4668C235.735 3.4668 236.421 3.76302 236.927 4.35547V0.5H238.191V11H237.029L236.968 10.207C236.462 10.8268 235.758 11.1367 234.855 11.1367C233.999 11.1367 233.299 10.7858 232.757 10.084C232.219 9.38216 231.95 8.46615 231.95 7.33594V7.24023ZM233.215 7.38379C233.215 8.22233 233.388 8.87858 233.734 9.35254C234.081 9.8265 234.559 10.0635 235.17 10.0635C235.972 10.0635 236.558 9.70345 236.927 8.9834V5.58594C236.549 4.88867 235.967 4.54004 235.184 4.54004C234.564 4.54004 234.081 4.7793 233.734 5.25781C233.388 5.73633 233.215 6.44499 233.215 7.38379ZM243.229 11.1367C242.227 11.1367 241.411 10.8086 240.782 10.1523C240.153 9.49154 239.839 8.6097 239.839 7.50684V7.27441C239.839 6.54069 239.978 5.88672 240.256 5.3125C240.538 4.73372 240.93 4.28255 241.432 3.95898C241.938 3.63086 242.484 3.4668 243.072 3.4668C244.034 3.4668 244.781 3.78353 245.314 4.41699C245.848 5.05046 246.114 5.95736 246.114 7.1377V7.66406H241.104C241.122 8.39323 241.334 8.9834 241.739 9.43457C242.149 9.88118 242.669 10.1045 243.298 10.1045C243.744 10.1045 244.123 10.0133 244.433 9.83105C244.743 9.64876 245.014 9.40723 245.246 9.10645L246.019 9.70801C245.399 10.6605 244.469 11.1367 243.229 11.1367ZM243.072 4.50586C242.562 4.50586 242.133 4.69271 241.787 5.06641C241.441 5.43555 241.227 5.95508 241.145 6.625H244.85V6.5293C244.813 5.88672 244.64 5.38997 244.33 5.03906C244.02 4.68359 243.601 4.50586 243.072 4.50586ZM247.543 12.9824L246.825 12.4902C247.254 11.8932 247.477 11.278 247.495 10.6445V9.50293H248.732V10.4941C248.732 10.9544 248.618 11.4147 248.391 11.875C248.167 12.3353 247.885 12.7044 247.543 12.9824ZM260.066 7.38379C260.066 8.514 259.807 9.42318 259.287 10.1113C258.768 10.7949 258.07 11.1367 257.195 11.1367C256.261 11.1367 255.539 10.8063 255.028 10.1455L254.967 11H253.805V0.5H255.069V4.41699C255.58 3.78353 256.284 3.4668 257.182 3.4668C258.079 3.4668 258.784 3.80632 259.294 4.48535C259.809 5.16439 260.066 6.09408 260.066 7.27441V7.38379ZM258.802 7.24023C258.802 6.37891 258.635 5.71354 258.303 5.24414C257.97 4.77474 257.492 4.54004 256.867 4.54004C256.033 4.54004 255.434 4.92741 255.069 5.70215V8.90137C255.457 9.67611 256.061 10.0635 256.881 10.0635C257.487 10.0635 257.959 9.82878 258.296 9.35938C258.633 8.88997 258.802 8.18359 258.802 7.24023ZM266.232 11C266.16 10.8542 266.1 10.5944 266.055 10.2207C265.467 10.8314 264.765 11.1367 263.949 11.1367C263.22 11.1367 262.621 10.9316 262.151 10.5215C261.687 10.1068 261.454 9.58268 261.454 8.94922C261.454 8.17904 261.746 7.58203 262.329 7.1582C262.917 6.72982 263.742 6.51562 264.804 6.51562H266.034V5.93457C266.034 5.49251 265.902 5.1416 265.638 4.88184C265.373 4.61751 264.984 4.48535 264.469 4.48535C264.018 4.48535 263.639 4.59928 263.334 4.82715C263.029 5.05501 262.876 5.33073 262.876 5.6543H261.604C261.604 5.28516 261.734 4.92969 261.994 4.58789C262.258 4.24154 262.614 3.9681 263.061 3.76758C263.512 3.56706 264.006 3.4668 264.544 3.4668C265.396 3.4668 266.064 3.68099 266.547 4.10938C267.03 4.5332 267.281 5.11882 267.299 5.86621V9.27051C267.299 9.94954 267.385 10.4896 267.559 10.8906V11H266.232ZM264.134 10.0361C264.53 10.0361 264.906 9.93359 265.262 9.72852C265.617 9.52344 265.875 9.25684 266.034 8.92871V7.41113H265.043C263.493 7.41113 262.719 7.86458 262.719 8.77148C262.719 9.16797 262.851 9.47786 263.115 9.70117C263.38 9.92448 263.719 10.0361 264.134 10.0361ZM270.478 3.60352L270.519 4.5332C271.084 3.82227 271.822 3.4668 272.733 3.4668C274.297 3.4668 275.085 4.34863 275.099 6.1123V11H273.834V6.10547C273.829 5.57227 273.706 5.17806 273.465 4.92285C273.228 4.66764 272.856 4.54004 272.351 4.54004C271.94 4.54004 271.58 4.64941 271.271 4.86816C270.961 5.08691 270.719 5.37402 270.546 5.72949V11H269.281V3.60352H270.478ZM276.698 7.24023C276.698 6.10547 276.967 5.19401 277.505 4.50586C278.043 3.81315 278.747 3.4668 279.617 3.4668C280.483 3.4668 281.169 3.76302 281.675 4.35547V0.5H282.939V11H281.777L281.716 10.207C281.21 10.8268 280.506 11.1367 279.604 11.1367C278.747 11.1367 278.047 10.7858 277.505 10.084C276.967 9.38216 276.698 8.46615 276.698 7.33594V7.24023ZM277.963 7.38379C277.963 8.22233 278.136 8.87858 278.482 9.35254C278.829 9.8265 279.307 10.0635 279.918 10.0635C280.72 10.0635 281.306 9.70345 281.675 8.9834V5.58594C281.297 4.88867 280.715 4.54004 279.932 4.54004C279.312 4.54004 278.829 4.7793 278.482 5.25781C278.136 5.73633 277.963 6.44499 277.963 7.38379ZM289.475 11C289.402 10.8542 289.342 10.5944 289.297 10.2207C288.709 10.8314 288.007 11.1367 287.191 11.1367C286.462 11.1367 285.863 10.9316 285.394 10.5215C284.929 10.1068 284.696 9.58268 284.696 8.94922C284.696 8.17904 284.988 7.58203 285.571 7.1582C286.159 6.72982 286.984 6.51562 288.046 6.51562H289.276V5.93457C289.276 5.49251 289.144 5.1416 288.88 4.88184C288.616 4.61751 288.226 4.48535 287.711 4.48535C287.26 4.48535 286.882 4.59928 286.576 4.82715C286.271 5.05501 286.118 5.33073 286.118 5.6543H284.847C284.847 5.28516 284.977 4.92969 285.236 4.58789C285.501 4.24154 285.856 3.9681 286.303 3.76758C286.754 3.56706 287.248 3.4668 287.786 3.4668C288.638 3.4668 289.306 3.68099 289.789 4.10938C290.272 4.5332 290.523 5.11882 290.541 5.86621V9.27051C290.541 9.94954 290.628 10.4896 290.801 10.8906V11H289.475ZM287.376 10.0361C287.772 10.0361 288.148 9.93359 288.504 9.72852C288.859 9.52344 289.117 9.25684 289.276 8.92871V7.41113H288.285C286.736 7.41113 285.961 7.86458 285.961 8.77148C285.961 9.16797 286.093 9.47786 286.357 9.70117C286.622 9.92448 286.961 10.0361 287.376 10.0361ZM295.661 7.2334C295.661 6.50879 295.802 5.8571 296.085 5.27832C296.372 4.69954 296.769 4.25293 297.274 3.93848C297.785 3.62402 298.366 3.4668 299.018 3.4668C300.025 3.4668 300.838 3.81543 301.458 4.5127C302.082 5.20996 302.395 6.13737 302.395 7.29492V7.38379C302.395 8.10384 302.256 8.75098 301.978 9.3252C301.704 9.89486 301.31 10.3392 300.795 10.6582C300.285 10.9772 299.697 11.1367 299.031 11.1367C298.029 11.1367 297.215 10.7881 296.591 10.0908C295.971 9.39355 295.661 8.4707 295.661 7.32227V7.2334ZM296.933 7.38379C296.933 8.2041 297.122 8.86263 297.5 9.35938C297.883 9.85612 298.393 10.1045 299.031 10.1045C299.674 10.1045 300.184 9.85384 300.562 9.35254C300.941 8.84668 301.13 8.1403 301.13 7.2334C301.13 6.4222 300.936 5.76595 300.549 5.26465C300.166 4.75879 299.656 4.50586 299.018 4.50586C298.393 4.50586 297.89 4.75423 297.507 5.25098C297.124 5.74772 296.933 6.45866 296.933 7.38379ZM308.547 10.2686C308.055 10.8473 307.332 11.1367 306.38 11.1367C305.591 11.1367 304.99 10.9089 304.575 10.4531C304.165 9.99284 303.958 9.3138 303.953 8.41602V3.60352H305.218V8.38184C305.218 9.50293 305.674 10.0635 306.585 10.0635C307.551 10.0635 308.194 9.70345 308.513 8.9834V3.60352H309.777V11H308.574L308.547 10.2686ZM318.247 11.1367C317.244 11.1367 316.429 10.8086 315.8 10.1523C315.171 9.49154 314.856 8.6097 314.856 7.50684V7.27441C314.856 6.54069 314.995 5.88672 315.273 5.3125C315.556 4.73372 315.948 4.28255 316.449 3.95898C316.955 3.63086 317.502 3.4668 318.09 3.4668C319.051 3.4668 319.799 3.78353 320.332 4.41699C320.865 5.05046 321.132 5.95736 321.132 7.1377V7.66406H316.121C316.139 8.39323 316.351 8.9834 316.757 9.43457C317.167 9.88118 317.687 10.1045 318.315 10.1045C318.762 10.1045 319.14 10.0133 319.45 9.83105C319.76 9.64876 320.031 9.40723 320.264 9.10645L321.036 9.70801C320.416 10.6605 319.487 11.1367 318.247 11.1367ZM318.09 4.50586C317.579 4.50586 317.151 4.69271 316.805 5.06641C316.458 5.43555 316.244 5.95508 316.162 6.625H319.867V6.5293C319.831 5.88672 319.658 5.38997 319.348 5.03906C319.038 4.68359 318.618 4.50586 318.09 4.50586ZM323.791 3.60352L323.825 4.42383C324.368 3.78581 325.099 3.4668 326.02 3.4668C327.054 3.4668 327.758 3.86328 328.132 4.65625C328.378 4.30078 328.697 4.01367 329.089 3.79492C329.485 3.57617 329.952 3.4668 330.49 3.4668C332.113 3.4668 332.938 4.32585 332.965 6.04395V11H331.7V6.11914C331.7 5.59049 331.579 5.19629 331.338 4.93652C331.096 4.6722 330.691 4.54004 330.121 4.54004C329.652 4.54004 329.262 4.68132 328.952 4.96387C328.642 5.24186 328.462 5.61784 328.412 6.0918V11H327.141V6.15332C327.141 5.0778 326.614 4.54004 325.562 4.54004C324.732 4.54004 324.165 4.89323 323.859 5.59961V11H322.595V3.60352H323.791ZM341.127 7.38379C341.127 8.50944 340.869 9.41634 340.354 10.1045C339.84 10.7926 339.142 11.1367 338.263 11.1367C337.365 11.1367 336.659 10.8519 336.144 10.2822V13.8438H334.879V3.60352H336.034L336.096 4.42383C336.611 3.78581 337.326 3.4668 338.242 3.4668C339.131 3.4668 339.833 3.80176 340.348 4.47168C340.867 5.1416 341.127 6.07357 341.127 7.26758V7.38379ZM339.862 7.24023C339.862 6.40625 339.685 5.74772 339.329 5.26465C338.974 4.78158 338.486 4.54004 337.866 4.54004C337.101 4.54004 336.526 4.87956 336.144 5.55859V9.09277C336.522 9.76725 337.101 10.1045 337.88 10.1045C338.486 10.1045 338.967 9.86523 339.322 9.38672C339.682 8.90365 339.862 8.18815 339.862 7.24023ZM346.315 4.73828C346.124 4.70638 345.917 4.69043 345.693 4.69043C344.864 4.69043 344.301 5.04362 344.005 5.75V11H342.74V3.60352H343.971L343.991 4.45801C344.406 3.7972 344.994 3.4668 345.755 3.4668C346.001 3.4668 346.188 3.4987 346.315 3.5625V4.73828ZM350.417 11.1367C349.414 11.1367 348.599 10.8086 347.97 10.1523C347.341 9.49154 347.026 8.6097 347.026 7.50684V7.27441C347.026 6.54069 347.165 5.88672 347.443 5.3125C347.726 4.73372 348.118 4.28255 348.619 3.95898C349.125 3.63086 349.672 3.4668 350.26 3.4668C351.221 3.4668 351.969 3.78353 352.502 4.41699C353.035 5.05046 353.302 5.95736 353.302 7.1377V7.66406H348.291C348.309 8.39323 348.521 8.9834 348.927 9.43457C349.337 9.88118 349.856 10.1045 350.485 10.1045C350.932 10.1045 351.31 10.0133 351.62 9.83105C351.93 9.64876 352.201 9.40723 352.434 9.10645L353.206 9.70801C352.586 10.6605 351.657 11.1367 350.417 11.1367ZM350.26 4.50586C349.749 4.50586 349.321 4.69271 348.975 5.06641C348.628 5.43555 348.414 5.95508 348.332 6.625H352.037V6.5293C352.001 5.88672 351.827 5.38997 351.518 5.03906C351.208 4.68359 350.788 4.50586 350.26 4.50586ZM359.078 9.03809C359.078 8.69629 358.948 8.43197 358.688 8.24512C358.433 8.05371 357.984 7.88965 357.342 7.75293C356.704 7.61621 356.196 7.45215 355.817 7.26074C355.444 7.06934 355.166 6.84147 354.983 6.57715C354.806 6.31283 354.717 5.99837 354.717 5.63379C354.717 5.02767 354.972 4.51497 355.482 4.0957C355.997 3.67643 356.654 3.4668 357.451 3.4668C358.29 3.4668 358.969 3.68327 359.488 4.11621C360.012 4.54915 360.274 5.10286 360.274 5.77734H359.003C359.003 5.43099 358.855 5.13249 358.559 4.88184C358.267 4.63118 357.898 4.50586 357.451 4.50586C356.991 4.50586 356.631 4.60612 356.371 4.80664C356.111 5.00716 355.981 5.26921 355.981 5.59277C355.981 5.89811 356.102 6.12826 356.344 6.2832C356.585 6.43815 357.021 6.58626 357.649 6.72754C358.283 6.86882 358.796 7.03743 359.188 7.2334C359.579 7.42936 359.869 7.66634 360.056 7.94434C360.247 8.21777 360.343 8.55273 360.343 8.94922C360.343 9.61003 360.078 10.141 359.55 10.542C359.021 10.9385 358.335 11.1367 357.492 11.1367C356.9 11.1367 356.376 11.0319 355.92 10.8223C355.464 10.6126 355.106 10.321 354.847 9.94727C354.591 9.56901 354.464 9.16113 354.464 8.72363H355.729C355.751 9.14746 355.92 9.4847 356.234 9.73535C356.553 9.98145 356.973 10.1045 357.492 10.1045C357.971 10.1045 358.354 10.0088 358.641 9.81738C358.932 9.62142 359.078 9.36165 359.078 9.03809ZM366.557 11C366.484 10.8542 366.424 10.5944 366.379 10.2207C365.791 10.8314 365.089 11.1367 364.273 11.1367C363.544 11.1367 362.945 10.9316 362.476 10.5215C362.011 10.1068 361.778 9.58268 361.778 8.94922C361.778 8.17904 362.07 7.58203 362.653 7.1582C363.241 6.72982 364.066 6.51562 365.128 6.51562H366.358V5.93457C366.358 5.49251 366.226 5.1416 365.962 4.88184C365.698 4.61751 365.308 4.48535 364.793 4.48535C364.342 4.48535 363.964 4.59928 363.658 4.82715C363.353 5.05501 363.2 5.33073 363.2 5.6543H361.929C361.929 5.28516 362.059 4.92969 362.318 4.58789C362.583 4.24154 362.938 3.9681 363.385 3.76758C363.836 3.56706 364.33 3.4668 364.868 3.4668C365.72 3.4668 366.388 3.68099 366.871 4.10938C367.354 4.5332 367.605 5.11882 367.623 5.86621V9.27051C367.623 9.94954 367.71 10.4896 367.883 10.8906V11H366.557ZM364.458 10.0361C364.854 10.0361 365.23 9.93359 365.586 9.72852C365.941 9.52344 366.199 9.25684 366.358 8.92871V7.41113H365.367C363.818 7.41113 363.043 7.86458 363.043 8.77148C363.043 9.16797 363.175 9.47786 363.439 9.70117C363.704 9.92448 364.043 10.0361 364.458 10.0361ZM369.633 10.3369C369.633 10.1182 369.697 9.93587 369.824 9.79004C369.956 9.64421 370.152 9.57129 370.412 9.57129C370.672 9.57129 370.868 9.64421 371 9.79004C371.137 9.93587 371.205 10.1182 371.205 10.3369C371.205 10.5465 371.137 10.722 371 10.8633C370.868 11.0046 370.672 11.0752 370.412 11.0752C370.152 11.0752 369.956 11.0046 369.824 10.8633C369.697 10.722 369.633 10.5465 369.633 10.3369Z" fill="black"/>
</svg>
