<svg width="119" height="14" viewBox="0 0 119 14" fill="none" xmlns="http://www.w3.org/2000/svg">
<path d="M5.78125 6.39941H1.46777V9.92676H6.47852V11H0.155273V1.04688H6.41016V2.12695H1.46777V5.32617H5.78125V6.39941ZM12.2207 9.03809C12.2207 8.69629 12.0908 8.43197 11.8311 8.24512C11.5758 8.05371 11.127 7.88965 10.4844 7.75293C9.84635 7.61621 9.33822 7.45215 8.95996 7.26074C8.58626 7.06934 8.30827 6.84147 8.12598 6.57715C7.94824 6.31283 7.85938 5.99837 7.85938 5.63379C7.85938 5.02767 8.11458 4.51497 8.625 4.0957C9.13997 3.67643 9.79622 3.4668 10.5938 3.4668C11.4323 3.4668 12.1113 3.68327 12.6309 4.11621C13.1549 4.54915 13.417 5.10286 13.417 5.77734H12.1455C12.1455 5.43099 11.9974 5.13249 11.7012 4.88184C11.4095 4.63118 11.0404 4.50586 10.5938 4.50586C10.1335 4.50586 9.77344 4.60612 9.51367 4.80664C9.25391 5.00716 9.12402 5.26921 9.12402 5.59277C9.12402 5.89811 9.24479 6.12826 9.48633 6.2832C9.72786 6.43815 10.1631 6.58626 10.792 6.72754C11.4255 6.86882 11.9382 7.03743 12.3301 7.2334C12.722 7.42936 13.0114 7.66634 13.1982 7.94434C13.3896 8.21777 13.4854 8.55273 13.4854 8.94922C13.4854 9.61003 13.221 10.141 12.6924 10.542C12.1637 10.9385 11.4779 11.1367 10.6348 11.1367C10.0423 11.1367 9.51823 11.0319 9.0625 10.8223C8.60677 10.6126 8.24902 10.321 7.98926 9.94727C7.73405 9.56901 7.60645 9.16113 7.60645 8.72363H8.87109C8.89388 9.14746 9.0625 9.4847 9.37695 9.73535C9.69596 9.98145 10.1152 10.1045 10.6348 10.1045C11.1133 10.1045 11.4961 10.0088 11.7832 9.81738C12.0749 9.62142 12.2207 9.36165 12.2207 9.03809ZM14.8252 7.24023C14.8252 6.07812 15.0918 5.15983 15.625 4.48535C16.1582 3.80632 16.8737 3.4668 17.7715 3.4668C18.6465 3.4668 19.3369 3.76074 19.8428 4.34863L19.8975 3.60352H21.0596V13.8438H19.7949V10.3164C19.2845 10.8633 18.6055 11.1367 17.7578 11.1367C16.8646 11.1367 16.1514 10.7904 15.6182 10.0977C15.0895 9.40039 14.8252 8.47754 14.8252 7.3291V7.24023ZM16.0898 7.38379C16.0898 8.23145 16.2676 8.89681 16.623 9.37988C16.9831 9.86296 17.4661 10.1045 18.0723 10.1045C18.8242 10.1045 19.3984 9.77181 19.7949 9.10645V5.4834C19.3939 4.83171 18.8242 4.50586 18.0859 4.50586C17.4753 4.50586 16.9899 4.74967 16.6299 5.2373C16.2699 5.72038 16.0898 6.43587 16.0898 7.38379ZM27.6562 10.2686C27.1641 10.8473 26.4417 11.1367 25.4893 11.1367C24.7008 11.1367 24.0993 10.9089 23.6846 10.4531C23.2744 9.99284 23.0671 9.3138 23.0625 8.41602V3.60352H24.3271V8.38184C24.3271 9.50293 24.7829 10.0635 25.6943 10.0635C26.6605 10.0635 27.3031 9.70345 27.6221 8.9834V3.60352H28.8867V11H27.6836L27.6562 10.2686ZM33.8838 11.1367C32.8812 11.1367 32.0654 10.8086 31.4365 10.1523C30.8076 9.49154 30.4932 8.6097 30.4932 7.50684V7.27441C30.4932 6.54069 30.6322 5.88672 30.9102 5.3125C31.1927 4.73372 31.5846 4.28255 32.0859 3.95898C32.5918 3.63086 33.1387 3.4668 33.7266 3.4668C34.6882 3.4668 35.4355 3.78353 35.9688 4.41699C36.502 5.05046 36.7686 5.95736 36.7686 7.1377V7.66406H31.7578C31.776 8.39323 31.988 8.9834 32.3936 9.43457C32.8037 9.88118 33.3232 10.1045 33.9521 10.1045C34.3988 10.1045 34.777 10.0133 35.0869 9.83105C35.3968 9.64876 35.668 9.40723 35.9004 9.10645L36.6729 9.70801C36.0531 10.6605 35.1234 11.1367 33.8838 11.1367ZM33.7266 4.50586C33.2161 4.50586 32.7878 4.69271 32.4414 5.06641C32.0951 5.43555 31.8809 5.95508 31.7988 6.625H35.5039V6.5293C35.4674 5.88672 35.2943 5.38997 34.9844 5.03906C34.6745 4.68359 34.2552 4.50586 33.7266 4.50586ZM41.2051 10.1045C41.6562 10.1045 42.0505 9.96777 42.3877 9.69434C42.7249 9.4209 42.9118 9.0791 42.9482 8.66895H44.1445C44.1217 9.09277 43.9759 9.49609 43.707 9.87891C43.4382 10.2617 43.0781 10.5671 42.627 10.7949C42.1803 11.0228 41.7064 11.1367 41.2051 11.1367C40.1979 11.1367 39.3958 10.8018 38.7988 10.1318C38.2064 9.45736 37.9102 8.53678 37.9102 7.37012V7.1582C37.9102 6.43815 38.0423 5.79785 38.3066 5.2373C38.571 4.67676 38.9492 4.24154 39.4414 3.93164C39.9382 3.62174 40.5238 3.4668 41.1982 3.4668C42.0277 3.4668 42.7158 3.71517 43.2627 4.21191C43.8141 4.70866 44.1081 5.35352 44.1445 6.14648H42.9482C42.9118 5.66797 42.7295 5.27604 42.4014 4.9707C42.0778 4.66081 41.6768 4.50586 41.1982 4.50586C40.5557 4.50586 40.0566 4.73828 39.7012 5.20312C39.3503 5.66341 39.1748 6.33105 39.1748 7.20605V7.44531C39.1748 8.29753 39.3503 8.95378 39.7012 9.41406C40.0521 9.87435 40.5534 10.1045 41.2051 10.1045ZM48.6357 11.1367C47.6331 11.1367 46.8174 10.8086 46.1885 10.1523C45.5596 9.49154 45.2451 8.6097 45.2451 7.50684V7.27441C45.2451 6.54069 45.3841 5.88672 45.6621 5.3125C45.9447 4.73372 46.3366 4.28255 46.8379 3.95898C47.3438 3.63086 47.8906 3.4668 48.4785 3.4668C49.4401 3.4668 50.1875 3.78353 50.7207 4.41699C51.2539 5.05046 51.5205 5.95736 51.5205 7.1377V7.66406H46.5098C46.528 8.39323 46.7399 8.9834 47.1455 9.43457C47.5557 9.88118 48.0752 10.1045 48.7041 10.1045C49.1507 10.1045 49.529 10.0133 49.8389 9.83105C50.1488 9.64876 50.4199 9.40723 50.6523 9.10645L51.4248 9.70801C50.805 10.6605 49.8753 11.1367 48.6357 11.1367ZM48.4785 4.50586C47.9681 4.50586 47.5397 4.69271 47.1934 5.06641C46.847 5.43555 46.6328 5.95508 46.5508 6.625H50.2559V6.5293C50.2194 5.88672 50.0462 5.38997 49.7363 5.03906C49.4264 4.68359 49.0072 4.50586 48.4785 4.50586ZM57.5566 10.2686C57.0645 10.8473 56.3421 11.1367 55.3896 11.1367C54.6012 11.1367 53.9997 10.9089 53.585 10.4531C53.1748 9.99284 52.9674 9.3138 52.9629 8.41602V3.60352H54.2275V8.38184C54.2275 9.50293 54.6833 10.0635 55.5947 10.0635C56.5609 10.0635 57.2035 9.70345 57.5225 8.9834V3.60352H58.7871V11H57.584L57.5566 10.2686ZM68.7539 11C68.681 10.8542 68.6217 10.5944 68.5762 10.2207C67.9883 10.8314 67.2865 11.1367 66.4707 11.1367C65.7415 11.1367 65.1423 10.9316 64.6729 10.5215C64.208 10.1068 63.9756 9.58268 63.9756 8.94922C63.9756 8.17904 64.2673 7.58203 64.8506 7.1582C65.4385 6.72982 66.2633 6.51562 67.3252 6.51562H68.5557V5.93457C68.5557 5.49251 68.4235 5.1416 68.1592 4.88184C67.8949 4.61751 67.5052 4.48535 66.9902 4.48535C66.5391 4.48535 66.1608 4.59928 65.8555 4.82715C65.5501 5.05501 65.3975 5.33073 65.3975 5.6543H64.126C64.126 5.28516 64.2559 4.92969 64.5156 4.58789C64.7799 4.24154 65.1354 3.9681 65.582 3.76758C66.0332 3.56706 66.5277 3.4668 67.0654 3.4668C67.9176 3.4668 68.5853 3.68099 69.0684 4.10938C69.5514 4.5332 69.8021 5.11882 69.8203 5.86621V9.27051C69.8203 9.94954 69.9069 10.4896 70.0801 10.8906V11H68.7539ZM66.6553 10.0361C67.0518 10.0361 67.4277 9.93359 67.7832 9.72852C68.1387 9.52344 68.3962 9.25684 68.5557 8.92871V7.41113H67.5645C66.015 7.41113 65.2402 7.86458 65.2402 8.77148C65.2402 9.16797 65.3724 9.47786 65.6367 9.70117C65.901 9.92448 66.2406 10.0361 66.6553 10.0361ZM79.582 9.03809C79.582 8.69629 79.4521 8.43197 79.1924 8.24512C78.9372 8.05371 78.4883 7.88965 77.8457 7.75293C77.2077 7.61621 76.6995 7.45215 76.3213 7.26074C75.9476 7.06934 75.6696 6.84147 75.4873 6.57715C75.3096 6.31283 75.2207 5.99837 75.2207 5.63379C75.2207 5.02767 75.4759 4.51497 75.9863 4.0957C76.5013 3.67643 77.1576 3.4668 77.9551 3.4668C78.7936 3.4668 79.4727 3.68327 79.9922 4.11621C80.5163 4.54915 80.7783 5.10286 80.7783 5.77734H79.5068C79.5068 5.43099 79.3587 5.13249 79.0625 4.88184C78.7708 4.63118 78.4017 4.50586 77.9551 4.50586C77.4948 4.50586 77.1348 4.60612 76.875 4.80664C76.6152 5.00716 76.4854 5.26921 76.4854 5.59277C76.4854 5.89811 76.6061 6.12826 76.8477 6.2832C77.0892 6.43815 77.5244 6.58626 78.1533 6.72754C78.7868 6.86882 79.2995 7.03743 79.6914 7.2334C80.0833 7.42936 80.3727 7.66634 80.5596 7.94434C80.751 8.21777 80.8467 8.55273 80.8467 8.94922C80.8467 9.61003 80.5824 10.141 80.0537 10.542C79.5251 10.9385 78.8392 11.1367 77.9961 11.1367C77.4036 11.1367 76.8796 11.0319 76.4238 10.8223C75.9681 10.6126 75.6104 10.321 75.3506 9.94727C75.0954 9.56901 74.9678 9.16113 74.9678 8.72363H76.2324C76.2552 9.14746 76.4238 9.4847 76.7383 9.73535C77.0573 9.98145 77.4766 10.1045 77.9961 10.1045C78.4746 10.1045 78.8574 10.0088 79.1445 9.81738C79.4362 9.62142 79.582 9.36165 79.582 9.03809ZM85.5635 11.1367C84.5609 11.1367 83.7451 10.8086 83.1162 10.1523C82.4873 9.49154 82.1729 8.6097 82.1729 7.50684V7.27441C82.1729 6.54069 82.3118 5.88672 82.5898 5.3125C82.8724 4.73372 83.2643 4.28255 83.7656 3.95898C84.2715 3.63086 84.8184 3.4668 85.4062 3.4668C86.3678 3.4668 87.1152 3.78353 87.6484 4.41699C88.1816 5.05046 88.4482 5.95736 88.4482 7.1377V7.66406H83.4375C83.4557 8.39323 83.6676 8.9834 84.0732 9.43457C84.4834 9.88118 85.0029 10.1045 85.6318 10.1045C86.0785 10.1045 86.4567 10.0133 86.7666 9.83105C87.0765 9.64876 87.3477 9.40723 87.5801 9.10645L88.3525 9.70801C87.7327 10.6605 86.8031 11.1367 85.5635 11.1367ZM85.4062 4.50586C84.8958 4.50586 84.4674 4.69271 84.1211 5.06641C83.7747 5.43555 83.5605 5.95508 83.4785 6.625H87.1836V6.5293C87.1471 5.88672 86.974 5.38997 86.6641 5.03906C86.3542 4.68359 85.9349 4.50586 85.4062 4.50586ZM91.1143 3.60352L91.1553 4.5332C91.7204 3.82227 92.4587 3.4668 93.3701 3.4668C94.9333 3.4668 95.7217 4.34863 95.7354 6.1123V11H94.4707V6.10547C94.4661 5.57227 94.3431 5.17806 94.1016 4.92285C93.8646 4.66764 93.4932 4.54004 92.9873 4.54004C92.5771 4.54004 92.2171 4.64941 91.9072 4.86816C91.5973 5.08691 91.3558 5.37402 91.1826 5.72949V11H89.918V3.60352H91.1143ZM98.9072 4.49902C99.4678 3.81087 100.197 3.4668 101.095 3.4668C102.658 3.4668 103.446 4.34863 103.46 6.1123V11H102.195V6.10547C102.191 5.57227 102.068 5.17806 101.826 4.92285C101.589 4.66764 101.218 4.54004 100.712 4.54004C100.302 4.54004 99.9417 4.64941 99.6318 4.86816C99.3219 5.08691 99.0804 5.37402 98.9072 5.72949V11H97.6426V0.5H98.9072V4.49902ZM109.92 11C109.847 10.8542 109.788 10.5944 109.742 10.2207C109.154 10.8314 108.452 11.1367 107.637 11.1367C106.908 11.1367 106.308 10.9316 105.839 10.5215C105.374 10.1068 105.142 9.58268 105.142 8.94922C105.142 8.17904 105.433 7.58203 106.017 7.1582C106.604 6.72982 107.429 6.51562 108.491 6.51562H109.722V5.93457C109.722 5.49251 109.59 5.1416 109.325 4.88184C109.061 4.61751 108.671 4.48535 108.156 4.48535C107.705 4.48535 107.327 4.59928 107.021 4.82715C106.716 5.05501 106.563 5.33073 106.563 5.6543H105.292C105.292 5.28516 105.422 4.92969 105.682 4.58789C105.946 4.24154 106.301 3.9681 106.748 3.76758C107.199 3.56706 107.694 3.4668 108.231 3.4668C109.084 3.4668 109.751 3.68099 110.234 4.10938C110.717 4.5332 110.968 5.11882 110.986 5.86621V9.27051C110.986 9.94954 111.073 10.4896 111.246 10.8906V11H109.92ZM107.821 10.0361C108.218 10.0361 108.594 9.93359 108.949 9.72852C109.305 9.52344 109.562 9.25684 109.722 8.92871V7.41113H108.73C107.181 7.41113 106.406 7.86458 106.406 8.77148C106.406 9.16797 106.538 9.47786 106.803 9.70117C107.067 9.92448 107.407 10.0361 107.821 10.0361ZM114.452 8.19727C114.461 7.65495 114.523 7.22656 114.637 6.91211C114.751 6.59766 114.983 6.24902 115.334 5.86621L116.229 4.94336C116.612 4.51042 116.804 4.04557 116.804 3.54883C116.804 3.07031 116.678 2.69661 116.428 2.42773C116.177 2.1543 115.812 2.01758 115.334 2.01758C114.869 2.01758 114.495 2.14062 114.213 2.38672C113.93 2.63281 113.789 2.96322 113.789 3.37793H112.524C112.534 2.63965 112.796 2.04492 113.311 1.59375C113.83 1.13802 114.505 0.910156 115.334 0.910156C116.195 0.910156 116.865 1.14258 117.344 1.60742C117.827 2.06771 118.068 2.70117 118.068 3.50781C118.068 4.30534 117.699 5.09147 116.961 5.86621L116.216 6.60449C115.883 6.97363 115.717 7.50456 115.717 8.19727H114.452ZM114.397 10.3643C114.397 10.1592 114.459 9.98828 114.582 9.85156C114.71 9.71029 114.896 9.63965 115.143 9.63965C115.389 9.63965 115.576 9.71029 115.703 9.85156C115.831 9.98828 115.895 10.1592 115.895 10.3643C115.895 10.5693 115.831 10.7402 115.703 10.877C115.576 11.0091 115.389 11.0752 115.143 11.0752C114.896 11.0752 114.71 11.0091 114.582 10.877C114.459 10.7402 114.397 10.5693 114.397 10.3643Z" fill="#1877F2"/>
</svg>
