<svg width="92" height="10" viewBox="0 0 92 10" fill="none" xmlns="http://www.w3.org/2000/svg">
<path d="M5.69531 5.23242H2.11523V9H0.990234V0.46875H6.27539V1.39453H2.11523V4.3125H5.69531V5.23242ZM11.168 9C11.1055 8.875 11.0547 8.65234 11.0156 8.33203C10.5117 8.85547 9.91016 9.11719 9.21094 9.11719C8.58594 9.11719 8.07227 8.94141 7.66992 8.58984C7.27148 8.23438 7.07227 7.78516 7.07227 7.24219C7.07227 6.58203 7.32227 6.07031 7.82227 5.70703C8.32617 5.33984 9.0332 5.15625 9.94336 5.15625H10.998V4.6582C10.998 4.2793 10.8848 3.97852 10.6582 3.75586C10.4316 3.5293 10.0977 3.41602 9.65625 3.41602C9.26953 3.41602 8.94531 3.51367 8.68359 3.70898C8.42188 3.9043 8.29102 4.14062 8.29102 4.41797H7.20117C7.20117 4.10156 7.3125 3.79688 7.53516 3.50391C7.76172 3.20703 8.06641 2.97266 8.44922 2.80078C8.83594 2.62891 9.25977 2.54297 9.7207 2.54297C10.4512 2.54297 11.0234 2.72656 11.4375 3.09375C11.8516 3.45703 12.0664 3.95898 12.082 4.59961V7.51758C12.082 8.09961 12.1562 8.5625 12.3047 8.90625V9H11.168ZM9.36914 8.17383C9.70898 8.17383 10.0312 8.08594 10.3359 7.91016C10.6406 7.73438 10.8613 7.50586 10.998 7.22461V5.92383H10.1484C8.82031 5.92383 8.15625 6.3125 8.15625 7.08984C8.15625 7.42969 8.26953 7.69531 8.49609 7.88672C8.72266 8.07812 9.01367 8.17383 9.36914 8.17383ZM16.3242 8.23242C16.7109 8.23242 17.0488 8.11523 17.3379 7.88086C17.627 7.64648 17.7871 7.35352 17.8184 7.00195H18.8438C18.8242 7.36523 18.6992 7.71094 18.4688 8.03906C18.2383 8.36719 17.9297 8.62891 17.543 8.82422C17.1602 9.01953 16.7539 9.11719 16.3242 9.11719C15.4609 9.11719 14.7734 8.83008 14.2617 8.25586C13.7539 7.67773 13.5 6.88867 13.5 5.88867V5.70703C13.5 5.08984 13.6133 4.54102 13.8398 4.06055C14.0664 3.58008 14.3906 3.20703 14.8125 2.94141C15.2383 2.67578 15.7402 2.54297 16.3184 2.54297C17.0293 2.54297 17.6191 2.75586 18.0879 3.18164C18.5605 3.60742 18.8125 4.16016 18.8438 4.83984H17.8184C17.7871 4.42969 17.6309 4.09375 17.3496 3.83203C17.0723 3.56641 16.7285 3.43359 16.3184 3.43359C15.7676 3.43359 15.3398 3.63281 15.0352 4.03125C14.7344 4.42578 14.584 4.99805 14.584 5.74805V5.95312C14.584 6.68359 14.7344 7.24609 15.0352 7.64062C15.3359 8.03516 15.7656 8.23242 16.3242 8.23242ZM22.6934 9.11719C21.834 9.11719 21.1348 8.83594 20.5957 8.27344C20.0566 7.70703 19.7871 6.95117 19.7871 6.00586V5.80664C19.7871 5.17773 19.9062 4.61719 20.1445 4.125C20.3867 3.62891 20.7227 3.24219 21.1523 2.96484C21.5859 2.68359 22.0547 2.54297 22.5586 2.54297C23.3828 2.54297 24.0234 2.81445 24.4805 3.35742C24.9375 3.90039 25.166 4.67773 25.166 5.68945V6.14062H20.8711C20.8867 6.76562 21.0684 7.27148 21.416 7.6582C21.7676 8.04102 22.2129 8.23242 22.752 8.23242C23.1348 8.23242 23.459 8.1543 23.7246 7.99805C23.9902 7.8418 24.2227 7.63477 24.4219 7.37695L25.084 7.89258C24.5527 8.70898 23.7559 9.11719 22.6934 9.11719ZM22.5586 3.43359C22.1211 3.43359 21.7539 3.59375 21.457 3.91406C21.1602 4.23047 20.9766 4.67578 20.9062 5.25H24.082V5.16797C24.0508 4.61719 23.9023 4.19141 23.6367 3.89062C23.3711 3.58594 23.0117 3.43359 22.5586 3.43359ZM31.793 5.90039C31.793 6.86914 31.5703 7.64844 31.125 8.23828C30.6797 8.82422 30.082 9.11719 29.332 9.11719C28.5312 9.11719 27.9121 8.83398 27.4746 8.26758L27.4219 9H26.4258V0H27.5098V3.35742C27.9473 2.81445 28.5508 2.54297 29.3203 2.54297C30.0898 2.54297 30.6934 2.83398 31.1309 3.41602C31.5723 3.99805 31.793 4.79492 31.793 5.80664V5.90039ZM30.709 5.77734C30.709 5.03906 30.5664 4.46875 30.2812 4.06641C29.9961 3.66406 29.5859 3.46289 29.0508 3.46289C28.3359 3.46289 27.8223 3.79492 27.5098 4.45898V7.20117C27.8418 7.86523 28.3594 8.19727 29.0625 8.19727C29.582 8.19727 29.9863 7.99609 30.2754 7.59375C30.5645 7.19141 30.709 6.58594 30.709 5.77734ZM32.877 5.77148C32.877 5.15039 32.998 4.5918 33.2402 4.0957C33.4863 3.59961 33.8262 3.2168 34.2598 2.94727C34.6973 2.67773 35.1953 2.54297 35.7539 2.54297C36.6172 2.54297 37.3145 2.8418 37.8457 3.43945C38.3809 4.03711 38.6484 4.83203 38.6484 5.82422V5.90039C38.6484 6.51758 38.5293 7.07227 38.291 7.56445C38.0566 8.05273 37.7188 8.43359 37.2773 8.70703C36.8398 8.98047 36.3359 9.11719 35.7656 9.11719C34.9062 9.11719 34.209 8.81836 33.6738 8.2207C33.1426 7.62305 32.877 6.83203 32.877 5.84766V5.77148ZM33.9668 5.90039C33.9668 6.60352 34.1289 7.16797 34.4531 7.59375C34.7812 8.01953 35.2188 8.23242 35.7656 8.23242C36.3164 8.23242 36.7539 8.01758 37.0781 7.58789C37.4023 7.1543 37.5645 6.54883 37.5645 5.77148C37.5645 5.07617 37.3984 4.51367 37.0664 4.08398C36.7383 3.65039 36.3008 3.43359 35.7539 3.43359C35.2188 3.43359 34.7871 3.64648 34.459 4.07227C34.1309 4.49805 33.9668 5.10742 33.9668 5.90039ZM39.7207 5.77148C39.7207 5.15039 39.8418 4.5918 40.084 4.0957C40.3301 3.59961 40.6699 3.2168 41.1035 2.94727C41.541 2.67773 42.0391 2.54297 42.5977 2.54297C43.4609 2.54297 44.1582 2.8418 44.6895 3.43945C45.2246 4.03711 45.4922 4.83203 45.4922 5.82422V5.90039C45.4922 6.51758 45.373 7.07227 45.1348 7.56445C44.9004 8.05273 44.5625 8.43359 44.1211 8.70703C43.6836 8.98047 43.1797 9.11719 42.6094 9.11719C41.75 9.11719 41.0527 8.81836 40.5176 8.2207C39.9863 7.62305 39.7207 6.83203 39.7207 5.84766V5.77148ZM40.8105 5.90039C40.8105 6.60352 40.9727 7.16797 41.2969 7.59375C41.625 8.01953 42.0625 8.23242 42.6094 8.23242C43.1602 8.23242 43.5977 8.01758 43.9219 7.58789C44.2461 7.1543 44.4082 6.54883 44.4082 5.77148C44.4082 5.07617 44.2422 4.51367 43.9102 4.08398C43.582 3.65039 43.1445 3.43359 42.5977 3.43359C42.0625 3.43359 41.6309 3.64648 41.3027 4.07227C40.9746 4.49805 40.8105 5.10742 40.8105 5.90039ZM48.6211 6.06445L47.9414 6.77344V9H46.8574V0H47.9414V5.44336L48.5215 4.74609L50.4961 2.66016H51.8145L49.3477 5.30859L52.1016 9H50.8301L48.6211 6.06445ZM61.6465 5.50195C61.6465 6.09961 61.4766 6.55664 61.1367 6.87305C60.8008 7.18555 60.3242 7.3418 59.707 7.3418C59.0938 7.3418 58.6016 7.13672 58.2305 6.72656C57.8633 6.3125 57.6797 5.75 57.6797 5.03906V4.39453C57.6797 3.70703 57.8652 3.1582 58.2363 2.74805C58.6113 2.33398 59.1016 2.12695 59.707 2.12695C60.332 2.12695 60.8125 2.28711 61.1484 2.60742C61.4844 2.92773 61.6523 3.37891 61.6523 3.96094H60.7969C60.7969 3.57422 60.7031 3.29883 60.5156 3.13477C60.332 2.9668 60.0625 2.88281 59.707 2.88281C59.3398 2.88281 59.0508 3.01758 58.8398 3.28711C58.6289 3.55664 58.5234 3.93164 58.5234 4.41211V5.07422C58.5234 5.54297 58.6289 5.91211 58.8398 6.18164C59.0508 6.45117 59.3398 6.58594 59.707 6.58594C60.0664 6.58594 60.3359 6.50391 60.5156 6.33984C60.6992 6.17578 60.791 5.89648 60.791 5.50195H61.6465ZM56.2969 4.72852C56.2969 5.40039 56.4531 6.02344 56.7656 6.59766C57.0781 7.16797 57.502 7.61523 58.0371 7.93945C58.5762 8.26367 59.1582 8.42578 59.7832 8.42578C60.4082 8.42578 60.9883 8.26367 61.5234 7.93945C62.0586 7.61523 62.4824 7.16797 62.7949 6.59766C63.1074 6.02344 63.2637 5.40039 63.2637 4.72852C63.2637 4.06445 63.1094 3.44922 62.8008 2.88281C62.4922 2.31641 62.0684 1.87109 61.5293 1.54688C60.9941 1.21875 60.4121 1.05469 59.7832 1.05469C59.1582 1.05469 58.5762 1.2168 58.0371 1.54102C57.498 1.86133 57.0723 2.30664 56.7598 2.87695C56.4512 3.44727 56.2969 4.06445 56.2969 4.72852ZM55.623 4.72852C55.623 3.93945 55.8047 3.20703 56.168 2.53125C56.5352 1.85547 57.041 1.32422 57.6855 0.9375C58.334 0.546875 59.0332 0.351562 59.7832 0.351562C60.5332 0.351562 61.2305 0.546875 61.875 0.9375C62.5195 1.32422 63.0234 1.85547 63.3867 2.53125C63.7539 3.20703 63.9375 3.93945 63.9375 4.72852C63.9375 5.49805 63.7617 6.21875 63.4102 6.89062C63.0586 7.5625 62.5586 8.10352 61.9102 8.51367C61.2656 8.91992 60.5566 9.12305 59.7832 9.12305C59.0137 9.12305 58.3047 8.92188 57.6562 8.51953C57.0117 8.11328 56.5117 7.57422 56.1562 6.90234C55.8008 6.23047 55.623 5.50586 55.623 4.72852ZM73.7988 9H68.209V8.2207L71.1621 4.93945C71.5996 4.44336 71.9004 4.04102 72.0645 3.73242C72.2324 3.41992 72.3164 3.09766 72.3164 2.76562C72.3164 2.32031 72.1816 1.95508 71.9121 1.66992C71.6426 1.38477 71.2832 1.24219 70.834 1.24219C70.2949 1.24219 69.875 1.39648 69.5742 1.70508C69.2773 2.00977 69.1289 2.43555 69.1289 2.98242H68.0449C68.0449 2.19727 68.2969 1.5625 68.8008 1.07812C69.3086 0.59375 69.9863 0.351562 70.834 0.351562C71.627 0.351562 72.2539 0.560547 72.7148 0.978516C73.1758 1.39258 73.4062 1.94531 73.4062 2.63672C73.4062 3.47656 72.8711 4.47656 71.8008 5.63672L69.5156 8.11523H73.7988V9ZM80.2969 5.36133C80.2969 6.63086 80.0801 7.57422 79.6465 8.19141C79.2129 8.80859 78.5352 9.11719 77.6133 9.11719C76.7031 9.11719 76.0293 8.81641 75.5918 8.21484C75.1543 7.60938 74.9277 6.70703 74.9121 5.50781V4.06055C74.9121 2.80664 75.1289 1.875 75.5625 1.26562C75.9961 0.65625 76.6758 0.351562 77.6016 0.351562C78.5195 0.351562 79.1953 0.646484 79.6289 1.23633C80.0625 1.82227 80.2852 2.72852 80.2969 3.95508V5.36133ZM79.2129 3.87891C79.2129 2.96094 79.084 2.29297 78.8262 1.875C78.5684 1.45312 78.1602 1.24219 77.6016 1.24219C77.0469 1.24219 76.6426 1.45117 76.3887 1.86914C76.1348 2.28711 76.0039 2.92969 75.9961 3.79688V5.53125C75.9961 6.45312 76.1289 7.13477 76.3945 7.57617C76.6641 8.01367 77.0703 8.23242 77.6133 8.23242C78.1484 8.23242 78.5449 8.02539 78.8027 7.61133C79.0645 7.19727 79.2012 6.54492 79.2129 5.6543V3.87891ZM87.2754 9H81.6855V8.2207L84.6387 4.93945C85.0762 4.44336 85.377 4.04102 85.541 3.73242C85.709 3.41992 85.793 3.09766 85.793 2.76562C85.793 2.32031 85.6582 1.95508 85.3887 1.66992C85.1191 1.38477 84.7598 1.24219 84.3105 1.24219C83.7715 1.24219 83.3516 1.39648 83.0508 1.70508C82.7539 2.00977 82.6055 2.43555 82.6055 2.98242H81.5215C81.5215 2.19727 81.7734 1.5625 82.2773 1.07812C82.7852 0.59375 83.4629 0.351562 84.3105 0.351562C85.1035 0.351562 85.7305 0.560547 86.1914 0.978516C86.6523 1.39258 86.8828 1.94531 86.8828 2.63672C86.8828 3.47656 86.3477 4.47656 85.2773 5.63672L82.9922 8.11523H87.2754V9ZM91.9863 9H90.8965V1.77539L88.7109 2.57812V1.59375L91.8164 0.427734H91.9863V9Z" fill="#737373"/>
</svg>
