<svg width="584" height="20" viewBox="0 0 584 20" fill="none" xmlns="http://www.w3.org/2000/svg">
<rect x="554.5" y="0.5" width="29" height="19" rx="1.5" fill="white" stroke="#CCD0D5"/>
<rect width="10" height="1.5" transform="matrix(1 0 0 -1 564 11)" fill="#737373"/>
<rect x="569.51" y="5.00146" width="10" height="1.5" transform="rotate(90.0566 569.51 5.00146)" fill="#737373"/>
<path d="M2.11523 10.6602V14H0.990234V5.46875H4.13672C5.07031 5.46875 5.80078 5.70703 6.32812 6.18359C6.85938 6.66016 7.125 7.29102 7.125 8.07617C7.125 8.9043 6.86523 9.54297 6.3457 9.99219C5.83008 10.4375 5.08984 10.6602 4.125 10.6602H2.11523ZM2.11523 9.74023H4.13672C4.73828 9.74023 5.19922 9.59961 5.51953 9.31836C5.83984 9.0332 6 8.62305 6 8.08789C6 7.58008 5.83984 7.17383 5.51953 6.86914C5.19922 6.56445 4.75977 6.40625 4.20117 6.39453H2.11523V9.74023ZM8.02148 10.7715C8.02148 10.1504 8.14258 9.5918 8.38477 9.0957C8.63086 8.59961 8.9707 8.2168 9.4043 7.94727C9.8418 7.67773 10.3398 7.54297 10.8984 7.54297C11.7617 7.54297 12.459 7.8418 12.9902 8.43945C13.5254 9.03711 13.793 9.83203 13.793 10.8242V10.9004C13.793 11.5176 13.6738 12.0723 13.4355 12.5645C13.2012 13.0527 12.8633 13.4336 12.4219 13.707C11.9844 13.9805 11.4805 14.1172 10.9102 14.1172C10.0508 14.1172 9.35352 13.8184 8.81836 13.2207C8.28711 12.623 8.02148 11.832 8.02148 10.8477V10.7715ZM9.11133 10.9004C9.11133 11.6035 9.27344 12.168 9.59766 12.5938C9.92578 13.0195 10.3633 13.2324 10.9102 13.2324C11.4609 13.2324 11.8984 13.0176 12.2227 12.5879C12.5469 12.1543 12.709 11.5488 12.709 10.7715C12.709 10.0762 12.543 9.51367 12.2109 9.08398C11.8828 8.65039 11.4453 8.43359 10.8984 8.43359C10.3633 8.43359 9.93164 8.64648 9.60352 9.07227C9.27539 9.49805 9.11133 10.1074 9.11133 10.9004ZM18.2168 8.63281C18.0527 8.60547 17.875 8.5918 17.6836 8.5918C16.9727 8.5918 16.4902 8.89453 16.2363 9.5V14H15.1523V7.66016H16.207L16.2246 8.39258C16.5801 7.82617 17.084 7.54297 17.7363 7.54297C17.9473 7.54297 18.1074 7.57031 18.2168 7.625V8.63281ZM20.9824 6.125V7.66016H22.166V8.49805H20.9824V12.4297C20.9824 12.6836 21.0352 12.875 21.1406 13.0039C21.2461 13.1289 21.4258 13.1914 21.6797 13.1914C21.8047 13.1914 21.9766 13.168 22.1953 13.1211V14C21.9102 14.0781 21.6328 14.1172 21.3633 14.1172C20.8789 14.1172 20.5137 13.9707 20.2676 13.6777C20.0215 13.3848 19.8984 12.9688 19.8984 12.4297V8.49805H18.7441V7.66016H19.8984V6.125H20.9824ZM27.3516 13.373C26.9297 13.8691 26.3105 14.1172 25.4941 14.1172C24.8184 14.1172 24.3027 13.9219 23.9473 13.5312C23.5957 13.1367 23.418 12.5547 23.4141 11.7852V7.66016H24.498V11.7559C24.498 12.7168 24.8887 13.1973 25.6699 13.1973C26.498 13.1973 27.0488 12.8887 27.3223 12.2715V7.66016H28.4062V14H27.375L27.3516 13.373ZM29.8008 10.7773C29.8008 9.78906 30.0293 9.00391 30.4863 8.42188C30.9434 7.83594 31.5488 7.54297 32.3027 7.54297C33.0762 7.54297 33.6797 7.81641 34.1133 8.36328L34.166 7.66016H35.1562V13.8477C35.1562 14.668 34.9121 15.3145 34.4238 15.7871C33.9395 16.2598 33.2871 16.4961 32.4668 16.4961C32.0098 16.4961 31.5625 16.3984 31.125 16.2031C30.6875 16.0078 30.3535 15.7402 30.123 15.4004L30.6855 14.75C31.1504 15.3242 31.7188 15.6113 32.3906 15.6113C32.918 15.6113 33.3281 15.4629 33.6211 15.166C33.918 14.8691 34.0664 14.4512 34.0664 13.9121V13.3672C33.6328 13.8672 33.041 14.1172 32.291 14.1172C31.5488 14.1172 30.9473 13.8184 30.4863 13.2207C30.0293 12.623 29.8008 11.8086 29.8008 10.7773ZM30.8906 10.9004C30.8906 11.6152 31.0371 12.1777 31.3301 12.5879C31.623 12.9941 32.0332 13.1973 32.5605 13.1973C33.2441 13.1973 33.7461 12.8867 34.0664 12.2656V9.37109C33.7344 8.76562 33.2363 8.46289 32.5723 8.46289C32.0449 8.46289 31.6328 8.66797 31.3359 9.07812C31.0391 9.48828 30.8906 10.0957 30.8906 10.9004ZM40.7109 13.373C40.2891 13.8691 39.6699 14.1172 38.8535 14.1172C38.1777 14.1172 37.6621 13.9219 37.3066 13.5312C36.9551 13.1367 36.7773 12.5547 36.7734 11.7852V7.66016H37.8574V11.7559C37.8574 12.7168 38.248 13.1973 39.0293 13.1973C39.8574 13.1973 40.4082 12.8887 40.6816 12.2715V7.66016H41.7656V14H40.7344L40.7109 13.373ZM46.0488 14.1172C45.1895 14.1172 44.4902 13.8359 43.9512 13.2734C43.4121 12.707 43.1426 11.9512 43.1426 11.0059V10.8066C43.1426 10.1777 43.2617 9.61719 43.5 9.125C43.7422 8.62891 44.0781 8.24219 44.5078 7.96484C44.9414 7.68359 45.4102 7.54297 45.9141 7.54297C46.7383 7.54297 47.3789 7.81445 47.8359 8.35742C48.293 8.90039 48.5215 9.67773 48.5215 10.6895V11.1406H44.2266C44.2422 11.7656 44.4238 12.2715 44.7715 12.6582C45.123 13.041 45.5684 13.2324 46.1074 13.2324C46.4902 13.2324 46.8145 13.1543 47.0801 12.998C47.3457 12.8418 47.5781 12.6348 47.7773 12.377L48.4395 12.8926C47.9082 13.709 47.1113 14.1172 46.0488 14.1172ZM45.9141 8.43359C45.4766 8.43359 45.1094 8.59375 44.8125 8.91406C44.5156 9.23047 44.332 9.67578 44.2617 10.25H47.4375V10.168C47.4062 9.61719 47.2578 9.19141 46.9922 8.89062C46.7266 8.58594 46.3672 8.43359 45.9141 8.43359ZM47.6836 6.60547V6.66406H46.7871L45.9082 5.66797L45.0352 6.66406H44.1387V6.59375L45.5801 5H46.2363L47.6836 6.60547ZM53.4727 12.3184C53.4727 12.0254 53.3613 11.7988 53.1387 11.6387C52.9199 11.4746 52.5352 11.334 51.9844 11.2168C51.4375 11.0996 51.002 10.959 50.6777 10.7949C50.3574 10.6309 50.1191 10.4355 49.9629 10.209C49.8105 9.98242 49.7344 9.71289 49.7344 9.40039C49.7344 8.88086 49.9531 8.44141 50.3906 8.08203C50.832 7.72266 51.3945 7.54297 52.0781 7.54297C52.7969 7.54297 53.3789 7.72852 53.8242 8.09961C54.2734 8.4707 54.498 8.94531 54.498 9.52344H53.4082C53.4082 9.22656 53.2812 8.9707 53.0273 8.75586C52.7773 8.54102 52.4609 8.43359 52.0781 8.43359C51.6836 8.43359 51.375 8.51953 51.1523 8.69141C50.9297 8.86328 50.8184 9.08789 50.8184 9.36523C50.8184 9.62695 50.9219 9.82422 51.1289 9.95703C51.3359 10.0898 51.709 10.2168 52.248 10.3379C52.791 10.459 53.2305 10.6035 53.5664 10.7715C53.9023 10.9395 54.1504 11.1426 54.3105 11.3809C54.4746 11.6152 54.5566 11.9023 54.5566 12.2422C54.5566 12.8086 54.3301 13.2637 53.877 13.6074C53.4238 13.9473 52.8359 14.1172 52.1133 14.1172C51.6055 14.1172 51.1562 14.0273 50.7656 13.8477C50.375 13.668 50.0684 13.418 49.8457 13.0977C49.627 12.7734 49.5176 12.4238 49.5176 12.0488H50.6016C50.6211 12.4121 50.7656 12.7012 51.0352 12.916C51.3086 13.127 51.668 13.2324 52.1133 13.2324C52.5234 13.2324 52.8516 13.1504 53.0977 12.9863C53.3477 12.8184 53.4727 12.5957 53.4727 12.3184ZM58.9043 10.5371C58.9043 9.6543 59.0215 8.80664 59.2559 7.99414C59.4941 7.18164 59.8477 6.44336 60.3164 5.7793C60.7852 5.11523 61.2715 4.64648 61.7754 4.37305L61.998 5.08789C61.4277 5.52539 60.959 6.19336 60.5918 7.0918C60.2285 7.99023 60.0293 8.99609 59.9941 10.1094L59.9883 10.6074C59.9883 12.1152 60.2637 13.4238 60.8145 14.5332C61.1465 15.1973 61.541 15.7168 61.998 16.0918L61.7754 16.7539C61.2559 16.4648 60.7598 15.9805 60.2871 15.3008C59.3652 13.9727 58.9043 12.3848 58.9043 10.5371ZM63.2168 14V5.46875H66.0059C66.9316 5.46875 67.627 5.66016 68.0918 6.04297C68.5605 6.42578 68.7949 6.99219 68.7949 7.74219C68.7949 8.14062 68.6816 8.49414 68.4551 8.80273C68.2285 9.10742 67.9199 9.34375 67.5293 9.51172C67.9902 9.64062 68.3535 9.88672 68.6191 10.25C68.8887 10.6094 69.0234 11.0391 69.0234 11.5391C69.0234 12.3047 68.7754 12.9062 68.2793 13.3438C67.7832 13.7812 67.082 14 66.1758 14H63.2168ZM64.3418 10.0098V13.0801H66.1992C66.7227 13.0801 67.1348 12.9453 67.4355 12.6758C67.7402 12.4023 67.8926 12.0273 67.8926 11.5508C67.8926 10.5234 67.334 10.0098 66.2168 10.0098H64.3418ZM64.3418 9.10742H66.041C66.5332 9.10742 66.9258 8.98438 67.2188 8.73828C67.5156 8.49219 67.6641 8.1582 67.6641 7.73633C67.6641 7.26758 67.5273 6.92773 67.2539 6.7168C66.9805 6.50195 66.5645 6.39453 66.0059 6.39453H64.3418V9.10742ZM73.5879 8.63281C73.4238 8.60547 73.2461 8.5918 73.0547 8.5918C72.3438 8.5918 71.8613 8.89453 71.6074 9.5V14H70.5234V7.66016H71.5781L71.5957 8.39258C71.9512 7.82617 72.4551 7.54297 73.1074 7.54297C73.3184 7.54297 73.4785 7.57031 73.5879 7.625V8.63281ZM78.2695 14C78.207 13.875 78.1562 13.6523 78.1172 13.332C77.6133 13.8555 77.0117 14.1172 76.3125 14.1172C75.6875 14.1172 75.1738 13.9414 74.7715 13.5898C74.373 13.2344 74.1738 12.7852 74.1738 12.2422C74.1738 11.582 74.4238 11.0703 74.9238 10.707C75.4277 10.3398 76.1348 10.1562 77.0449 10.1562H78.0996V9.6582C78.0996 9.2793 77.9863 8.97852 77.7598 8.75586C77.5332 8.5293 77.1992 8.41602 76.7578 8.41602C76.3711 8.41602 76.0469 8.51367 75.7852 8.70898C75.5234 8.9043 75.3926 9.14062 75.3926 9.41797H74.3027C74.3027 9.10156 74.4141 8.79688 74.6367 8.50391C74.8633 8.20703 75.168 7.97266 75.5508 7.80078C75.9375 7.62891 76.3613 7.54297 76.8223 7.54297C77.5527 7.54297 78.125 7.72656 78.5391 8.09375C78.9531 8.45703 79.168 8.95898 79.1836 9.59961V12.5176C79.1836 13.0996 79.2578 13.5625 79.4062 13.9062V14H78.2695ZM76.4707 13.1738C76.8105 13.1738 77.1328 13.0859 77.4375 12.9102C77.7422 12.7344 77.9629 12.5059 78.0996 12.2246V10.9238H77.25C75.9219 10.9238 75.2578 11.3125 75.2578 12.0898C75.2578 12.4297 75.3711 12.6953 75.5977 12.8867C75.8242 13.0781 76.1152 13.1738 76.4707 13.1738ZM84.5742 12.3184C84.5742 12.0254 84.4629 11.7988 84.2402 11.6387C84.0215 11.4746 83.6367 11.334 83.0859 11.2168C82.5391 11.0996 82.1035 10.959 81.7793 10.7949C81.459 10.6309 81.2207 10.4355 81.0645 10.209C80.9121 9.98242 80.8359 9.71289 80.8359 9.40039C80.8359 8.88086 81.0547 8.44141 81.4922 8.08203C81.9336 7.72266 82.4961 7.54297 83.1797 7.54297C83.8984 7.54297 84.4805 7.72852 84.9258 8.09961C85.375 8.4707 85.5996 8.94531 85.5996 9.52344H84.5098C84.5098 9.22656 84.3828 8.9707 84.1289 8.75586C83.8789 8.54102 83.5625 8.43359 83.1797 8.43359C82.7852 8.43359 82.4766 8.51953 82.2539 8.69141C82.0312 8.86328 81.9199 9.08789 81.9199 9.36523C81.9199 9.62695 82.0234 9.82422 82.2305 9.95703C82.4375 10.0898 82.8105 10.2168 83.3496 10.3379C83.8926 10.459 84.332 10.6035 84.668 10.7715C85.0039 10.9395 85.252 11.1426 85.4121 11.3809C85.5762 11.6152 85.6582 11.9023 85.6582 12.2422C85.6582 12.8086 85.4316 13.2637 84.9785 13.6074C84.5254 13.9473 83.9375 14.1172 83.2148 14.1172C82.707 14.1172 82.2578 14.0273 81.8672 13.8477C81.4766 13.668 81.1699 13.418 80.9473 13.0977C80.7285 12.7734 80.6191 12.4238 80.6191 12.0488H81.7031C81.7227 12.4121 81.8672 12.7012 82.1367 12.916C82.4102 13.127 82.7695 13.2324 83.2148 13.2324C83.625 13.2324 83.9531 13.1504 84.1992 12.9863C84.4492 12.8184 84.5742 12.5957 84.5742 12.3184ZM88.248 14H87.1641V7.66016H88.248V14ZM87.0762 5.97852C87.0762 5.80273 87.1289 5.6543 87.2344 5.5332C87.3438 5.41211 87.5039 5.35156 87.7148 5.35156C87.9258 5.35156 88.0859 5.41211 88.1953 5.5332C88.3047 5.6543 88.3594 5.80273 88.3594 5.97852C88.3594 6.1543 88.3047 6.30078 88.1953 6.41797C88.0859 6.53516 87.9258 6.59375 87.7148 6.59375C87.5039 6.59375 87.3438 6.53516 87.2344 6.41797C87.1289 6.30078 87.0762 6.1543 87.0762 5.97852ZM91.166 14H90.082V5H91.166V14ZM95.4082 10.5957C95.4082 11.4668 95.293 12.3027 95.0625 13.1035C94.8359 13.9004 94.4863 14.6367 94.0137 15.3125C93.5449 15.9883 93.0527 16.4688 92.5371 16.7539L92.3086 16.0918C92.9102 15.6309 93.3926 14.916 93.7559 13.9473C94.123 12.9746 94.3105 11.8965 94.3184 10.7129V10.5254C94.3184 9.70508 94.2324 8.94336 94.0605 8.24023C93.8887 7.5332 93.6484 6.90039 93.3398 6.3418C93.0352 5.7832 92.6914 5.34766 92.3086 5.03516L92.5371 4.37305C93.0527 4.6582 93.543 5.13477 94.0078 5.80273C94.4766 6.4707 94.8262 7.20703 95.0566 8.01172C95.291 8.81641 95.4082 9.67773 95.4082 10.5957Z" fill="#737373"/>
<path d="M113.977 10.0566H110.279V13.0801H114.574V14H109.154V5.46875H114.516V6.39453H110.279V9.13672H113.977V10.0566ZM116.83 7.66016L116.865 8.45703C117.35 7.84766 117.982 7.54297 118.764 7.54297C120.104 7.54297 120.779 8.29883 120.791 9.81055V14H119.707V9.80469C119.703 9.34766 119.598 9.00977 119.391 8.79102C119.188 8.57227 118.869 8.46289 118.436 8.46289C118.084 8.46289 117.775 8.55664 117.51 8.74414C117.244 8.93164 117.037 9.17773 116.889 9.48242V14H115.805V7.66016H116.83ZM122.168 10.7773C122.168 9.78906 122.396 9.00391 122.854 8.42188C123.311 7.83594 123.916 7.54297 124.67 7.54297C125.443 7.54297 126.047 7.81641 126.48 8.36328L126.533 7.66016H127.523V13.8477C127.523 14.668 127.279 15.3145 126.791 15.7871C126.307 16.2598 125.654 16.4961 124.834 16.4961C124.377 16.4961 123.93 16.3984 123.492 16.2031C123.055 16.0078 122.721 15.7402 122.49 15.4004L123.053 14.75C123.518 15.3242 124.086 15.6113 124.758 15.6113C125.285 15.6113 125.695 15.4629 125.988 15.166C126.285 14.8691 126.434 14.4512 126.434 13.9121V13.3672C126 13.8672 125.408 14.1172 124.658 14.1172C123.916 14.1172 123.314 13.8184 122.854 13.2207C122.396 12.623 122.168 11.8086 122.168 10.7773ZM123.258 10.9004C123.258 11.6152 123.404 12.1777 123.697 12.5879C123.99 12.9941 124.4 13.1973 124.928 13.1973C125.611 13.1973 126.113 12.8867 126.434 12.2656V9.37109C126.102 8.76562 125.604 8.46289 124.939 8.46289C124.412 8.46289 124 8.66797 123.703 9.07812C123.406 9.48828 123.258 10.0957 123.258 10.9004ZM130.342 14H129.258V5H130.342V14ZM133.26 14H132.176V7.66016H133.26V14ZM132.088 5.97852C132.088 5.80273 132.141 5.6543 132.246 5.5332C132.355 5.41211 132.516 5.35156 132.727 5.35156C132.938 5.35156 133.098 5.41211 133.207 5.5332C133.316 5.6543 133.371 5.80273 133.371 5.97852C133.371 6.1543 133.316 6.30078 133.207 6.41797C133.098 6.53516 132.938 6.59375 132.727 6.59375C132.516 6.59375 132.355 6.53516 132.246 6.41797C132.141 6.30078 132.088 6.1543 132.088 5.97852ZM138.691 12.3184C138.691 12.0254 138.58 11.7988 138.357 11.6387C138.139 11.4746 137.754 11.334 137.203 11.2168C136.656 11.0996 136.221 10.959 135.896 10.7949C135.576 10.6309 135.338 10.4355 135.182 10.209C135.029 9.98242 134.953 9.71289 134.953 9.40039C134.953 8.88086 135.172 8.44141 135.609 8.08203C136.051 7.72266 136.613 7.54297 137.297 7.54297C138.016 7.54297 138.598 7.72852 139.043 8.09961C139.492 8.4707 139.717 8.94531 139.717 9.52344H138.627C138.627 9.22656 138.5 8.9707 138.246 8.75586C137.996 8.54102 137.68 8.43359 137.297 8.43359C136.902 8.43359 136.594 8.51953 136.371 8.69141C136.148 8.86328 136.037 9.08789 136.037 9.36523C136.037 9.62695 136.141 9.82422 136.348 9.95703C136.555 10.0898 136.928 10.2168 137.467 10.3379C138.01 10.459 138.449 10.6035 138.785 10.7715C139.121 10.9395 139.369 11.1426 139.529 11.3809C139.693 11.6152 139.775 11.9023 139.775 12.2422C139.775 12.8086 139.549 13.2637 139.096 13.6074C138.643 13.9473 138.055 14.1172 137.332 14.1172C136.824 14.1172 136.375 14.0273 135.984 13.8477C135.594 13.668 135.287 13.418 135.064 13.0977C134.846 12.7734 134.736 12.4238 134.736 12.0488H135.82C135.84 12.4121 135.984 12.7012 136.254 12.916C136.527 13.127 136.887 13.2324 137.332 13.2324C137.742 13.2324 138.07 13.1504 138.316 12.9863C138.566 12.8184 138.691 12.5957 138.691 12.3184ZM142.271 8.42773C142.752 7.83789 143.377 7.54297 144.146 7.54297C145.486 7.54297 146.162 8.29883 146.174 9.81055V14H145.09V9.80469C145.086 9.34766 144.98 9.00977 144.773 8.79102C144.57 8.57227 144.252 8.46289 143.818 8.46289C143.467 8.46289 143.158 8.55664 142.893 8.74414C142.627 8.93164 142.42 9.17773 142.271 9.48242V14H141.188V5H142.271V8.42773ZM159.662 10.5371C159.662 9.6543 159.779 8.80664 160.014 7.99414C160.252 7.18164 160.605 6.44336 161.074 5.7793C161.543 5.11523 162.029 4.64648 162.533 4.37305L162.756 5.08789C162.186 5.52539 161.717 6.19336 161.35 7.0918C160.986 7.99023 160.787 8.99609 160.752 10.1094L160.746 10.6074C160.746 12.1152 161.021 13.4238 161.572 14.5332C161.904 15.1973 162.299 15.7168 162.756 16.0918L162.533 16.7539C162.014 16.4648 161.518 15.9805 161.045 15.3008C160.123 13.9727 159.662 12.3848 159.662 10.5371ZM169.98 5.46875V11.2695C169.977 12.0742 169.723 12.7324 169.219 13.2441C168.719 13.7559 168.039 14.043 167.18 14.1055L166.881 14.1172C165.947 14.1172 165.203 13.8652 164.648 13.3613C164.094 12.8574 163.812 12.1641 163.805 11.2812V5.46875H164.918V11.2461C164.918 11.8633 165.088 12.3438 165.428 12.6875C165.768 13.0273 166.252 13.1973 166.881 13.1973C167.518 13.1973 168.004 13.0273 168.34 12.6875C168.68 12.3477 168.85 11.8691 168.85 11.252V5.46875H169.98ZM174.27 10.1973C173.305 9.91992 172.602 9.58008 172.16 9.17773C171.723 8.77148 171.504 8.27148 171.504 7.67773C171.504 7.00586 171.771 6.45117 172.307 6.01367C172.846 5.57227 173.545 5.35156 174.404 5.35156C174.99 5.35156 175.512 5.46484 175.969 5.69141C176.43 5.91797 176.785 6.23047 177.035 6.62891C177.289 7.02734 177.416 7.46289 177.416 7.93555H176.285C176.285 7.41992 176.121 7.01562 175.793 6.72266C175.465 6.42578 175.002 6.27734 174.404 6.27734C173.85 6.27734 173.416 6.40039 173.104 6.64648C172.795 6.88867 172.641 7.22656 172.641 7.66016C172.641 8.00781 172.787 8.30273 173.08 8.54492C173.377 8.7832 173.879 9.00195 174.586 9.20117C175.297 9.40039 175.852 9.62109 176.25 9.86328C176.652 10.1016 176.949 10.3809 177.141 10.7012C177.336 11.0215 177.434 11.3984 177.434 11.832C177.434 12.5234 177.164 13.0781 176.625 13.4961C176.086 13.9102 175.365 14.1172 174.463 14.1172C173.877 14.1172 173.33 14.0059 172.822 13.7832C172.314 13.5566 171.922 13.248 171.645 12.8574C171.371 12.4668 171.234 12.0234 171.234 11.5273H172.365C172.365 12.043 172.555 12.4512 172.934 12.752C173.316 13.0488 173.826 13.1973 174.463 13.1973C175.057 13.1973 175.512 13.0762 175.828 12.834C176.145 12.5918 176.303 12.2617 176.303 11.8438C176.303 11.4258 176.156 11.1035 175.863 10.877C175.57 10.6465 175.039 10.4199 174.27 10.1973ZM181.213 10.5957C181.213 11.4668 181.098 12.3027 180.867 13.1035C180.641 13.9004 180.291 14.6367 179.818 15.3125C179.35 15.9883 178.857 16.4688 178.342 16.7539L178.113 16.0918C178.715 15.6309 179.197 14.916 179.561 13.9473C179.928 12.9746 180.115 11.8965 180.123 10.7129V10.5254C180.123 9.70508 180.037 8.94336 179.865 8.24023C179.693 7.5332 179.453 6.90039 179.145 6.3418C178.84 5.7832 178.496 5.34766 178.113 5.03516L178.342 4.37305C178.857 4.6582 179.348 5.13477 179.812 5.80273C180.281 6.4707 180.631 7.20703 180.861 8.01172C181.096 8.81641 181.213 9.67773 181.213 10.5957ZM187.875 10.0566H184.178V13.0801H188.473V14H183.053V5.46875H188.414V6.39453H184.178V9.13672H187.875V10.0566ZM193.395 12.3184C193.395 12.0254 193.283 11.7988 193.061 11.6387C192.842 11.4746 192.457 11.334 191.906 11.2168C191.359 11.0996 190.924 10.959 190.6 10.7949C190.279 10.6309 190.041 10.4355 189.885 10.209C189.732 9.98242 189.656 9.71289 189.656 9.40039C189.656 8.88086 189.875 8.44141 190.312 8.08203C190.754 7.72266 191.316 7.54297 192 7.54297C192.719 7.54297 193.301 7.72852 193.746 8.09961C194.195 8.4707 194.42 8.94531 194.42 9.52344H193.33C193.33 9.22656 193.203 8.9707 192.949 8.75586C192.699 8.54102 192.383 8.43359 192 8.43359C191.605 8.43359 191.297 8.51953 191.074 8.69141C190.852 8.86328 190.74 9.08789 190.74 9.36523C190.74 9.62695 190.844 9.82422 191.051 9.95703C191.258 10.0898 191.631 10.2168 192.17 10.3379C192.713 10.459 193.152 10.6035 193.488 10.7715C193.824 10.9395 194.072 11.1426 194.232 11.3809C194.396 11.6152 194.479 11.9023 194.479 12.2422C194.479 12.8086 194.252 13.2637 193.799 13.6074C193.346 13.9473 192.758 14.1172 192.035 14.1172C191.527 14.1172 191.078 14.0273 190.688 13.8477C190.297 13.668 189.99 13.418 189.768 13.0977C189.549 12.7734 189.439 12.4238 189.439 12.0488H190.523C190.543 12.4121 190.688 12.7012 190.957 12.916C191.23 13.127 191.59 13.2324 192.035 13.2324C192.445 13.2324 192.773 13.1504 193.02 12.9863C193.27 12.8184 193.395 12.5957 193.395 12.3184ZM201.246 10.9004C201.246 11.8652 201.025 12.6426 200.584 13.2324C200.143 13.8223 199.545 14.1172 198.791 14.1172C198.021 14.1172 197.416 13.873 196.975 13.3848V16.4375H195.891V7.66016H196.881L196.934 8.36328C197.375 7.81641 197.988 7.54297 198.773 7.54297C199.535 7.54297 200.137 7.83008 200.578 8.4043C201.023 8.97852 201.246 9.77734 201.246 10.8008V10.9004ZM200.162 10.7773C200.162 10.0625 200.01 9.49805 199.705 9.08398C199.4 8.66992 198.982 8.46289 198.451 8.46289C197.795 8.46289 197.303 8.75391 196.975 9.33594V12.3652C197.299 12.9434 197.795 13.2324 198.463 13.2324C198.982 13.2324 199.395 13.0273 199.699 12.6172C200.008 12.2031 200.162 11.5898 200.162 10.7773ZM206.543 14C206.48 13.875 206.43 13.6523 206.391 13.332C205.887 13.8555 205.285 14.1172 204.586 14.1172C203.961 14.1172 203.447 13.9414 203.045 13.5898C202.646 13.2344 202.447 12.7852 202.447 12.2422C202.447 11.582 202.697 11.0703 203.197 10.707C203.701 10.3398 204.408 10.1562 205.318 10.1562H206.373V9.6582C206.373 9.2793 206.26 8.97852 206.033 8.75586C205.807 8.5293 205.473 8.41602 205.031 8.41602C204.645 8.41602 204.32 8.51367 204.059 8.70898C203.797 8.9043 203.666 9.14062 203.666 9.41797H202.576C202.576 9.10156 202.688 8.79688 202.91 8.50391C203.137 8.20703 203.441 7.97266 203.824 7.80078C204.211 7.62891 204.635 7.54297 205.096 7.54297C205.826 7.54297 206.398 7.72656 206.812 8.09375C207.227 8.45703 207.441 8.95898 207.457 9.59961V12.5176C207.457 13.0996 207.531 13.5625 207.68 13.9062V14H206.543ZM204.744 13.1738C205.084 13.1738 205.406 13.0859 205.711 12.9102C206.016 12.7344 206.236 12.5059 206.373 12.2246V10.9238H205.523C204.195 10.9238 203.531 11.3125 203.531 12.0898C203.531 12.4297 203.645 12.6953 203.871 12.8867C204.098 13.0781 204.389 13.1738 204.744 13.1738ZM210.182 7.66016L210.217 8.45703C210.701 7.84766 211.334 7.54297 212.115 7.54297C213.455 7.54297 214.131 8.29883 214.143 9.81055V14H213.059V9.80469C213.055 9.34766 212.949 9.00977 212.742 8.79102C212.539 8.57227 212.221 8.46289 211.787 8.46289C211.436 8.46289 211.127 8.55664 210.861 8.74414C210.596 8.93164 210.389 9.17773 210.24 9.48242V14H209.156V7.66016H210.182ZM213.768 5.1875C213.768 5.60938 213.646 5.95117 213.404 6.21289C213.166 6.47461 212.867 6.60547 212.508 6.60547C212.348 6.60547 212.209 6.58594 212.092 6.54688C211.975 6.50781 211.82 6.42773 211.629 6.30664C211.441 6.18555 211.305 6.11328 211.219 6.08984C211.137 6.0625 211.041 6.04883 210.932 6.04883C210.771 6.04883 210.635 6.11133 210.521 6.23633C210.408 6.35742 210.352 6.51367 210.352 6.70508L209.625 6.66406C209.625 6.24609 209.742 5.90039 209.977 5.62695C210.215 5.35352 210.516 5.2168 210.879 5.2168C211.016 5.2168 211.139 5.23633 211.248 5.27539C211.357 5.31445 211.506 5.39062 211.693 5.50391C211.881 5.61719 212.023 5.69141 212.121 5.72656C212.223 5.76172 212.334 5.7793 212.455 5.7793C212.623 5.7793 212.762 5.71289 212.871 5.58008C212.984 5.44727 213.041 5.29297 213.041 5.11719L213.768 5.1875ZM215.49 10.7715C215.49 10.1504 215.611 9.5918 215.854 9.0957C216.1 8.59961 216.439 8.2168 216.873 7.94727C217.311 7.67773 217.809 7.54297 218.367 7.54297C219.23 7.54297 219.928 7.8418 220.459 8.43945C220.994 9.03711 221.262 9.83203 221.262 10.8242V10.9004C221.262 11.5176 221.143 12.0723 220.904 12.5645C220.67 13.0527 220.332 13.4336 219.891 13.707C219.453 13.9805 218.949 14.1172 218.379 14.1172C217.52 14.1172 216.822 13.8184 216.287 13.2207C215.756 12.623 215.49 11.832 215.49 10.8477V10.7715ZM216.58 10.9004C216.58 11.6035 216.742 12.168 217.066 12.5938C217.395 13.0195 217.832 13.2324 218.379 13.2324C218.93 13.2324 219.367 13.0176 219.691 12.5879C220.016 12.1543 220.178 11.5488 220.178 10.7715C220.178 10.0762 220.012 9.51367 219.68 9.08398C219.352 8.65039 218.914 8.43359 218.367 8.43359C217.832 8.43359 217.4 8.64648 217.072 9.07227C216.744 9.49805 216.58 10.1074 216.58 10.9004ZM223.799 14H222.715V5H223.799V14ZM242.32 10.2324H238.74V14H237.615V5.46875H242.9V6.39453H238.74V9.3125H242.32V10.2324ZM246.99 8.63281C246.826 8.60547 246.648 8.5918 246.457 8.5918C245.746 8.5918 245.264 8.89453 245.01 9.5V14H243.926V7.66016H244.98L244.998 8.39258C245.354 7.82617 245.857 7.54297 246.51 7.54297C246.721 7.54297 246.881 7.57031 246.99 7.625V8.63281ZM251.672 14C251.609 13.875 251.559 13.6523 251.52 13.332C251.016 13.8555 250.414 14.1172 249.715 14.1172C249.09 14.1172 248.576 13.9414 248.174 13.5898C247.775 13.2344 247.576 12.7852 247.576 12.2422C247.576 11.582 247.826 11.0703 248.326 10.707C248.83 10.3398 249.537 10.1562 250.447 10.1562H251.502V9.6582C251.502 9.2793 251.389 8.97852 251.162 8.75586C250.936 8.5293 250.602 8.41602 250.16 8.41602C249.773 8.41602 249.449 8.51367 249.188 8.70898C248.926 8.9043 248.795 9.14062 248.795 9.41797H247.705C247.705 9.10156 247.816 8.79688 248.039 8.50391C248.266 8.20703 248.57 7.97266 248.953 7.80078C249.34 7.62891 249.764 7.54297 250.225 7.54297C250.955 7.54297 251.527 7.72656 251.941 8.09375C252.355 8.45703 252.57 8.95898 252.586 9.59961V12.5176C252.586 13.0996 252.66 13.5625 252.809 13.9062V14H251.672ZM249.873 13.1738C250.213 13.1738 250.535 13.0859 250.84 12.9102C251.145 12.7344 251.365 12.5059 251.502 12.2246V10.9238H250.652C249.324 10.9238 248.66 11.3125 248.66 12.0898C248.66 12.4297 248.773 12.6953 249 12.8867C249.227 13.0781 249.518 13.1738 249.873 13.1738ZM255.311 7.66016L255.346 8.45703C255.83 7.84766 256.463 7.54297 257.244 7.54297C258.584 7.54297 259.26 8.29883 259.271 9.81055V14H258.188V9.80469C258.184 9.34766 258.078 9.00977 257.871 8.79102C257.668 8.57227 257.35 8.46289 256.916 8.46289C256.564 8.46289 256.256 8.55664 255.99 8.74414C255.725 8.93164 255.518 9.17773 255.369 9.48242V14H254.285V7.66016H255.311ZM263.449 13.2324C263.836 13.2324 264.174 13.1152 264.463 12.8809C264.752 12.6465 264.912 12.3535 264.943 12.002H265.969C265.949 12.3652 265.824 12.7109 265.594 13.0391C265.363 13.3672 265.055 13.6289 264.668 13.8242C264.285 14.0195 263.879 14.1172 263.449 14.1172C262.586 14.1172 261.898 13.8301 261.387 13.2559C260.879 12.6777 260.625 11.8887 260.625 10.8887V10.707C260.625 10.0898 260.738 9.54102 260.965 9.06055C261.191 8.58008 261.516 8.20703 261.938 7.94141C262.363 7.67578 262.865 7.54297 263.443 7.54297C264.154 7.54297 264.744 7.75586 265.213 8.18164C265.686 8.60742 265.938 9.16016 265.969 9.83984H264.943C264.912 9.42969 264.756 9.09375 264.475 8.83203C264.197 8.56641 263.854 8.43359 263.443 8.43359C262.893 8.43359 262.465 8.63281 262.16 9.03125C261.859 9.42578 261.709 9.99805 261.709 10.748V10.9531C261.709 11.6836 261.859 12.2461 262.16 12.6406C262.461 13.0352 262.891 13.2324 263.449 13.2324ZM263.625 14.0527L263.555 14.3574C264.152 14.4629 264.451 14.8008 264.451 15.3711C264.451 15.75 264.295 16.0488 263.982 16.2676C263.67 16.4902 263.234 16.6016 262.676 16.6016L262.635 15.9746C262.943 15.9746 263.182 15.9238 263.35 15.8223C263.521 15.7207 263.607 15.5781 263.607 15.3945C263.607 15.2227 263.545 15.0957 263.42 15.0137C263.295 14.9316 263.041 14.873 262.658 14.8379L262.846 14.0527H263.625ZM271.102 14C271.039 13.875 270.988 13.6523 270.949 13.332C270.445 13.8555 269.844 14.1172 269.145 14.1172C268.52 14.1172 268.006 13.9414 267.604 13.5898C267.205 13.2344 267.006 12.7852 267.006 12.2422C267.006 11.582 267.256 11.0703 267.756 10.707C268.26 10.3398 268.967 10.1562 269.877 10.1562H270.932V9.6582C270.932 9.2793 270.818 8.97852 270.592 8.75586C270.365 8.5293 270.031 8.41602 269.59 8.41602C269.203 8.41602 268.879 8.51367 268.617 8.70898C268.355 8.9043 268.225 9.14062 268.225 9.41797H267.135C267.135 9.10156 267.246 8.79688 267.469 8.50391C267.695 8.20703 268 7.97266 268.383 7.80078C268.77 7.62891 269.193 7.54297 269.654 7.54297C270.385 7.54297 270.957 7.72656 271.371 8.09375C271.785 8.45703 272 8.95898 272.016 9.59961V12.5176C272.016 13.0996 272.09 13.5625 272.238 13.9062V14H271.102ZM269.303 13.1738C269.643 13.1738 269.965 13.0859 270.27 12.9102C270.574 12.7344 270.795 12.5059 270.932 12.2246V10.9238H270.082C268.754 10.9238 268.09 11.3125 268.09 12.0898C268.09 12.4297 268.203 12.6953 268.43 12.8867C268.656 13.0781 268.947 13.1738 269.303 13.1738ZM274.893 14H273.809V7.66016H274.893V14ZM273.721 5.97852C273.721 5.80273 273.773 5.6543 273.879 5.5332C273.988 5.41211 274.148 5.35156 274.359 5.35156C274.57 5.35156 274.73 5.41211 274.84 5.5332C274.949 5.6543 275.004 5.80273 275.004 5.97852C275.004 6.1543 274.949 6.30078 274.84 6.41797C274.73 6.53516 274.57 6.59375 274.359 6.59375C274.148 6.59375 273.988 6.53516 273.879 6.41797C273.773 6.30078 273.721 6.1543 273.721 5.97852ZM280.324 12.3184C280.324 12.0254 280.213 11.7988 279.99 11.6387C279.771 11.4746 279.387 11.334 278.836 11.2168C278.289 11.0996 277.854 10.959 277.529 10.7949C277.209 10.6309 276.971 10.4355 276.814 10.209C276.662 9.98242 276.586 9.71289 276.586 9.40039C276.586 8.88086 276.805 8.44141 277.242 8.08203C277.684 7.72266 278.246 7.54297 278.93 7.54297C279.648 7.54297 280.23 7.72852 280.676 8.09961C281.125 8.4707 281.35 8.94531 281.35 9.52344H280.26C280.26 9.22656 280.133 8.9707 279.879 8.75586C279.629 8.54102 279.312 8.43359 278.93 8.43359C278.535 8.43359 278.227 8.51953 278.004 8.69141C277.781 8.86328 277.67 9.08789 277.67 9.36523C277.67 9.62695 277.773 9.82422 277.98 9.95703C278.188 10.0898 278.561 10.2168 279.1 10.3379C279.643 10.459 280.082 10.6035 280.418 10.7715C280.754 10.9395 281.002 11.1426 281.162 11.3809C281.326 11.6152 281.408 11.9023 281.408 12.2422C281.408 12.8086 281.182 13.2637 280.729 13.6074C280.275 13.9473 279.688 14.1172 278.965 14.1172C278.457 14.1172 278.008 14.0273 277.617 13.8477C277.227 13.668 276.92 13.418 276.697 13.0977C276.479 12.7734 276.369 12.4238 276.369 12.0488H277.453C277.473 12.4121 277.617 12.7012 277.887 12.916C278.16 13.127 278.52 13.2324 278.965 13.2324C279.375 13.2324 279.703 13.1504 279.949 12.9863C280.199 12.8184 280.324 12.5957 280.324 12.3184ZM285.756 10.5371C285.756 9.6543 285.873 8.80664 286.107 7.99414C286.346 7.18164 286.699 6.44336 287.168 5.7793C287.637 5.11523 288.123 4.64648 288.627 4.37305L288.85 5.08789C288.279 5.52539 287.811 6.19336 287.443 7.0918C287.08 7.99023 286.881 8.99609 286.846 10.1094L286.84 10.6074C286.84 12.1152 287.115 13.4238 287.666 14.5332C287.998 15.1973 288.393 15.7168 288.85 16.0918L288.627 16.7539C288.107 16.4648 287.611 15.9805 287.139 15.3008C286.217 13.9727 285.756 12.3848 285.756 10.5371ZM294.773 10.2324H291.193V14H290.068V5.46875H295.354V6.39453H291.193V9.3125H294.773V10.2324ZM299.443 8.63281C299.279 8.60547 299.102 8.5918 298.91 8.5918C298.199 8.5918 297.717 8.89453 297.463 9.5V14H296.379V7.66016H297.434L297.451 8.39258C297.807 7.82617 298.311 7.54297 298.963 7.54297C299.174 7.54297 299.334 7.57031 299.443 7.625V8.63281ZM304.125 14C304.062 13.875 304.012 13.6523 303.973 13.332C303.469 13.8555 302.867 14.1172 302.168 14.1172C301.543 14.1172 301.029 13.9414 300.627 13.5898C300.229 13.2344 300.029 12.7852 300.029 12.2422C300.029 11.582 300.279 11.0703 300.779 10.707C301.283 10.3398 301.99 10.1562 302.9 10.1562H303.955V9.6582C303.955 9.2793 303.842 8.97852 303.615 8.75586C303.389 8.5293 303.055 8.41602 302.613 8.41602C302.227 8.41602 301.902 8.51367 301.641 8.70898C301.379 8.9043 301.248 9.14062 301.248 9.41797H300.158C300.158 9.10156 300.27 8.79688 300.492 8.50391C300.719 8.20703 301.023 7.97266 301.406 7.80078C301.793 7.62891 302.217 7.54297 302.678 7.54297C303.408 7.54297 303.98 7.72656 304.395 8.09375C304.809 8.45703 305.023 8.95898 305.039 9.59961V12.5176C305.039 13.0996 305.113 13.5625 305.262 13.9062V14H304.125ZM302.326 13.1738C302.666 13.1738 302.988 13.0859 303.293 12.9102C303.598 12.7344 303.818 12.5059 303.955 12.2246V10.9238H303.105C301.777 10.9238 301.113 11.3125 301.113 12.0898C301.113 12.4297 301.227 12.6953 301.453 12.8867C301.68 13.0781 301.971 13.1738 302.326 13.1738ZM307.764 7.66016L307.799 8.45703C308.283 7.84766 308.916 7.54297 309.697 7.54297C311.037 7.54297 311.713 8.29883 311.725 9.81055V14H310.641V9.80469C310.637 9.34766 310.531 9.00977 310.324 8.79102C310.121 8.57227 309.803 8.46289 309.369 8.46289C309.018 8.46289 308.709 8.55664 308.443 8.74414C308.178 8.93164 307.971 9.17773 307.822 9.48242V14H306.738V7.66016H307.764ZM315.902 13.2324C316.289 13.2324 316.627 13.1152 316.916 12.8809C317.205 12.6465 317.365 12.3535 317.396 12.002H318.422C318.402 12.3652 318.277 12.7109 318.047 13.0391C317.816 13.3672 317.508 13.6289 317.121 13.8242C316.738 14.0195 316.332 14.1172 315.902 14.1172C315.039 14.1172 314.352 13.8301 313.84 13.2559C313.332 12.6777 313.078 11.8887 313.078 10.8887V10.707C313.078 10.0898 313.191 9.54102 313.418 9.06055C313.645 8.58008 313.969 8.20703 314.391 7.94141C314.816 7.67578 315.318 7.54297 315.896 7.54297C316.607 7.54297 317.197 7.75586 317.666 8.18164C318.139 8.60742 318.391 9.16016 318.422 9.83984H317.396C317.365 9.42969 317.209 9.09375 316.928 8.83203C316.65 8.56641 316.307 8.43359 315.896 8.43359C315.346 8.43359 314.918 8.63281 314.613 9.03125C314.312 9.42578 314.162 9.99805 314.162 10.748V10.9531C314.162 11.6836 314.312 12.2461 314.613 12.6406C314.914 13.0352 315.344 13.2324 315.902 13.2324ZM322.271 14.1172C321.412 14.1172 320.713 13.8359 320.174 13.2734C319.635 12.707 319.365 11.9512 319.365 11.0059V10.8066C319.365 10.1777 319.484 9.61719 319.723 9.125C319.965 8.62891 320.301 8.24219 320.73 7.96484C321.164 7.68359 321.633 7.54297 322.137 7.54297C322.961 7.54297 323.602 7.81445 324.059 8.35742C324.516 8.90039 324.744 9.67773 324.744 10.6895V11.1406H320.449C320.465 11.7656 320.646 12.2715 320.994 12.6582C321.346 13.041 321.791 13.2324 322.33 13.2324C322.713 13.2324 323.037 13.1543 323.303 12.998C323.568 12.8418 323.801 12.6348 324 12.377L324.662 12.8926C324.131 13.709 323.334 14.1172 322.271 14.1172ZM322.137 8.43359C321.699 8.43359 321.332 8.59375 321.035 8.91406C320.738 9.23047 320.555 9.67578 320.484 10.25H323.66V10.168C323.629 9.61719 323.48 9.19141 323.215 8.89062C322.949 8.58594 322.59 8.43359 322.137 8.43359ZM328.506 10.5957C328.506 11.4668 328.391 12.3027 328.16 13.1035C327.934 13.9004 327.584 14.6367 327.111 15.3125C326.643 15.9883 326.15 16.4688 325.635 16.7539L325.406 16.0918C326.008 15.6309 326.49 14.916 326.854 13.9473C327.221 12.9746 327.408 11.8965 327.416 10.7129V10.5254C327.416 9.70508 327.33 8.94336 327.158 8.24023C326.986 7.5332 326.746 6.90039 326.438 6.3418C326.133 5.7832 325.789 5.34766 325.406 5.03516L325.635 4.37305C326.15 4.6582 326.641 5.13477 327.105 5.80273C327.574 6.4707 327.924 7.20703 328.154 8.01172C328.389 8.81641 328.506 9.67773 328.506 10.5957ZM343.459 14H342.334V5.46875H343.459V14ZM346.822 6.125V7.66016H348.006V8.49805H346.822V12.4297C346.822 12.6836 346.875 12.875 346.98 13.0039C347.086 13.1289 347.266 13.1914 347.52 13.1914C347.645 13.1914 347.816 13.168 348.035 13.1211V14C347.75 14.0781 347.473 14.1172 347.203 14.1172C346.719 14.1172 346.354 13.9707 346.107 13.6777C345.861 13.3848 345.738 12.9688 345.738 12.4297V8.49805H344.584V7.66016H345.738V6.125H346.822ZM353.191 14C353.129 13.875 353.078 13.6523 353.039 13.332C352.535 13.8555 351.934 14.1172 351.234 14.1172C350.609 14.1172 350.096 13.9414 349.693 13.5898C349.295 13.2344 349.096 12.7852 349.096 12.2422C349.096 11.582 349.346 11.0703 349.846 10.707C350.35 10.3398 351.057 10.1562 351.967 10.1562H353.021V9.6582C353.021 9.2793 352.908 8.97852 352.682 8.75586C352.455 8.5293 352.121 8.41602 351.68 8.41602C351.293 8.41602 350.969 8.51367 350.707 8.70898C350.445 8.9043 350.314 9.14062 350.314 9.41797H349.225C349.225 9.10156 349.336 8.79688 349.559 8.50391C349.785 8.20703 350.09 7.97266 350.473 7.80078C350.859 7.62891 351.283 7.54297 351.744 7.54297C352.475 7.54297 353.047 7.72656 353.461 8.09375C353.875 8.45703 354.09 8.95898 354.105 9.59961V12.5176C354.105 13.0996 354.18 13.5625 354.328 13.9062V14H353.191ZM351.393 13.1738C351.732 13.1738 352.055 13.0859 352.359 12.9102C352.664 12.7344 352.885 12.5059 353.021 12.2246V10.9238H352.172C350.844 10.9238 350.18 11.3125 350.18 12.0898C350.18 12.4297 350.293 12.6953 350.52 12.8867C350.746 13.0781 351.037 13.1738 351.393 13.1738ZM356.982 14H355.898V5H356.982V14ZM359.9 14H358.816V7.66016H359.9V14ZM358.729 5.97852C358.729 5.80273 358.781 5.6543 358.887 5.5332C358.996 5.41211 359.156 5.35156 359.367 5.35156C359.578 5.35156 359.738 5.41211 359.848 5.5332C359.957 5.6543 360.012 5.80273 360.012 5.97852C360.012 6.1543 359.957 6.30078 359.848 6.41797C359.738 6.53516 359.578 6.59375 359.367 6.59375C359.156 6.59375 358.996 6.53516 358.887 6.41797C358.781 6.30078 358.729 6.1543 358.729 5.97852ZM365.555 14C365.492 13.875 365.441 13.6523 365.402 13.332C364.898 13.8555 364.297 14.1172 363.598 14.1172C362.973 14.1172 362.459 13.9414 362.057 13.5898C361.658 13.2344 361.459 12.7852 361.459 12.2422C361.459 11.582 361.709 11.0703 362.209 10.707C362.713 10.3398 363.42 10.1562 364.33 10.1562H365.385V9.6582C365.385 9.2793 365.271 8.97852 365.045 8.75586C364.818 8.5293 364.484 8.41602 364.043 8.41602C363.656 8.41602 363.332 8.51367 363.07 8.70898C362.809 8.9043 362.678 9.14062 362.678 9.41797H361.588C361.588 9.10156 361.699 8.79688 361.922 8.50391C362.148 8.20703 362.453 7.97266 362.836 7.80078C363.223 7.62891 363.646 7.54297 364.107 7.54297C364.838 7.54297 365.41 7.72656 365.824 8.09375C366.238 8.45703 366.453 8.95898 366.469 9.59961V12.5176C366.469 13.0996 366.543 13.5625 366.691 13.9062V14H365.555ZM363.756 13.1738C364.096 13.1738 364.418 13.0859 364.723 12.9102C365.027 12.7344 365.248 12.5059 365.385 12.2246V10.9238H364.535C363.207 10.9238 362.543 11.3125 362.543 12.0898C362.543 12.4297 362.656 12.6953 362.883 12.8867C363.109 13.0781 363.4 13.1738 363.756 13.1738ZM369.193 7.66016L369.229 8.45703C369.713 7.84766 370.346 7.54297 371.127 7.54297C372.467 7.54297 373.143 8.29883 373.154 9.81055V14H372.07V9.80469C372.066 9.34766 371.961 9.00977 371.754 8.79102C371.551 8.57227 371.232 8.46289 370.799 8.46289C370.447 8.46289 370.139 8.55664 369.873 8.74414C369.607 8.93164 369.4 9.17773 369.252 9.48242V14H368.168V7.66016H369.193ZM374.502 10.7715C374.502 10.1504 374.623 9.5918 374.865 9.0957C375.111 8.59961 375.451 8.2168 375.885 7.94727C376.322 7.67773 376.82 7.54297 377.379 7.54297C378.242 7.54297 378.939 7.8418 379.471 8.43945C380.006 9.03711 380.273 9.83203 380.273 10.8242V10.9004C380.273 11.5176 380.154 12.0723 379.916 12.5645C379.682 13.0527 379.344 13.4336 378.902 13.707C378.465 13.9805 377.961 14.1172 377.391 14.1172C376.531 14.1172 375.834 13.8184 375.299 13.2207C374.768 12.623 374.502 11.832 374.502 10.8477V10.7715ZM375.592 10.9004C375.592 11.6035 375.754 12.168 376.078 12.5938C376.406 13.0195 376.844 13.2324 377.391 13.2324C377.941 13.2324 378.379 13.0176 378.703 12.5879C379.027 12.1543 379.189 11.5488 379.189 10.7715C379.189 10.0762 379.023 9.51367 378.691 9.08398C378.363 8.65039 377.926 8.43359 377.379 8.43359C376.844 8.43359 376.412 8.64648 376.084 9.07227C375.756 9.49805 375.592 10.1074 375.592 10.9004ZM393.709 14V5.46875H396.117C396.859 5.46875 397.516 5.63281 398.086 5.96094C398.656 6.28906 399.096 6.75586 399.404 7.36133C399.717 7.9668 399.875 8.66211 399.879 9.44727V9.99219C399.879 10.7969 399.723 11.502 399.41 12.1074C399.102 12.7129 398.658 13.1777 398.08 13.502C397.506 13.8262 396.836 13.9922 396.07 14H393.709ZM394.834 6.39453V13.0801H396.018C396.885 13.0801 397.559 12.8105 398.039 12.2715C398.523 11.7324 398.766 10.9648 398.766 9.96875V9.4707C398.766 8.50195 398.537 7.75 398.08 7.21484C397.627 6.67578 396.982 6.40234 396.146 6.39453H394.834ZM404.045 14.1172C403.186 14.1172 402.486 13.8359 401.947 13.2734C401.408 12.707 401.139 11.9512 401.139 11.0059V10.8066C401.139 10.1777 401.258 9.61719 401.496 9.125C401.738 8.62891 402.074 8.24219 402.504 7.96484C402.938 7.68359 403.406 7.54297 403.91 7.54297C404.734 7.54297 405.375 7.81445 405.832 8.35742C406.289 8.90039 406.518 9.67773 406.518 10.6895V11.1406H402.223C402.238 11.7656 402.42 12.2715 402.768 12.6582C403.119 13.041 403.564 13.2324 404.104 13.2324C404.486 13.2324 404.811 13.1543 405.076 12.998C405.342 12.8418 405.574 12.6348 405.773 12.377L406.436 12.8926C405.904 13.709 405.107 14.1172 404.045 14.1172ZM403.91 8.43359C403.473 8.43359 403.105 8.59375 402.809 8.91406C402.512 9.23047 402.328 9.67578 402.258 10.25H405.434V10.168C405.402 9.61719 405.254 9.19141 404.988 8.89062C404.723 8.58594 404.363 8.43359 403.91 8.43359ZM411.691 13.373C411.27 13.8691 410.65 14.1172 409.834 14.1172C409.158 14.1172 408.643 13.9219 408.287 13.5312C407.936 13.1367 407.758 12.5547 407.754 11.7852V7.66016H408.838V11.7559C408.838 12.7168 409.229 13.1973 410.01 13.1973C410.838 13.1973 411.389 12.8887 411.662 12.2715V7.66016H412.746V14H411.715L411.691 13.373ZM415.869 6.125V7.66016H417.053V8.49805H415.869V12.4297C415.869 12.6836 415.922 12.875 416.027 13.0039C416.133 13.1289 416.312 13.1914 416.566 13.1914C416.691 13.1914 416.863 13.168 417.082 13.1211V14C416.797 14.0781 416.52 14.1172 416.25 14.1172C415.766 14.1172 415.4 13.9707 415.154 13.6777C414.908 13.3848 414.785 12.9688 414.785 12.4297V8.49805H413.631V7.66016H414.785V6.125H415.869ZM422.016 12.3184C422.016 12.0254 421.904 11.7988 421.682 11.6387C421.463 11.4746 421.078 11.334 420.527 11.2168C419.98 11.0996 419.545 10.959 419.221 10.7949C418.9 10.6309 418.662 10.4355 418.506 10.209C418.354 9.98242 418.277 9.71289 418.277 9.40039C418.277 8.88086 418.496 8.44141 418.934 8.08203C419.375 7.72266 419.938 7.54297 420.621 7.54297C421.34 7.54297 421.922 7.72852 422.367 8.09961C422.816 8.4707 423.041 8.94531 423.041 9.52344H421.951C421.951 9.22656 421.824 8.9707 421.57 8.75586C421.32 8.54102 421.004 8.43359 420.621 8.43359C420.227 8.43359 419.918 8.51953 419.695 8.69141C419.473 8.86328 419.361 9.08789 419.361 9.36523C419.361 9.62695 419.465 9.82422 419.672 9.95703C419.879 10.0898 420.252 10.2168 420.791 10.3379C421.334 10.459 421.773 10.6035 422.109 10.7715C422.445 10.9395 422.693 11.1426 422.854 11.3809C423.018 11.6152 423.1 11.9023 423.1 12.2422C423.1 12.8086 422.873 13.2637 422.42 13.6074C421.967 13.9473 421.379 14.1172 420.656 14.1172C420.148 14.1172 419.699 14.0273 419.309 13.8477C418.918 13.668 418.611 13.418 418.389 13.0977C418.17 12.7734 418.061 12.4238 418.061 12.0488H419.145C419.164 12.4121 419.309 12.7012 419.578 12.916C419.852 13.127 420.211 13.2324 420.656 13.2324C421.066 13.2324 421.395 13.1504 421.641 12.9863C421.891 12.8184 422.016 12.5957 422.016 12.3184ZM427.055 13.2324C427.441 13.2324 427.779 13.1152 428.068 12.8809C428.357 12.6465 428.518 12.3535 428.549 12.002H429.574C429.555 12.3652 429.43 12.7109 429.199 13.0391C428.969 13.3672 428.66 13.6289 428.273 13.8242C427.891 14.0195 427.484 14.1172 427.055 14.1172C426.191 14.1172 425.504 13.8301 424.992 13.2559C424.484 12.6777 424.23 11.8887 424.23 10.8887V10.707C424.23 10.0898 424.344 9.54102 424.57 9.06055C424.797 8.58008 425.121 8.20703 425.543 7.94141C425.969 7.67578 426.471 7.54297 427.049 7.54297C427.76 7.54297 428.35 7.75586 428.818 8.18164C429.291 8.60742 429.543 9.16016 429.574 9.83984H428.549C428.518 9.42969 428.361 9.09375 428.08 8.83203C427.803 8.56641 427.459 8.43359 427.049 8.43359C426.498 8.43359 426.07 8.63281 425.766 9.03125C425.465 9.42578 425.314 9.99805 425.314 10.748V10.9531C425.314 11.6836 425.465 12.2461 425.766 12.6406C426.066 13.0352 426.496 13.2324 427.055 13.2324ZM431.877 8.42773C432.357 7.83789 432.982 7.54297 433.752 7.54297C435.092 7.54297 435.768 8.29883 435.779 9.81055V14H434.695V9.80469C434.691 9.34766 434.586 9.00977 434.379 8.79102C434.176 8.57227 433.857 8.46289 433.424 8.46289C433.072 8.46289 432.764 8.55664 432.498 8.74414C432.232 8.93164 432.025 9.17773 431.877 9.48242V14H430.793V5H431.877V8.42773ZM454.92 10.148V6.968H458.364V10.148H454.92ZM450.564 10.148V6.968H453.996V10.148H450.564ZM454.92 6.092V3.956H453.996V6.092H449.688V11.768H450.564V11.024H453.996V14.912H454.92V11.024H458.364V11.708H459.276V6.092H454.92ZM469.02 6.86C468.408 8.552 467.568 9.932 466.464 11.048C465.324 9.884 464.472 8.468 463.884 6.86H469.02ZM471.9 6.86V5.984H466.92V3.956H466.02V5.984H461.136V6.86H462.9C463.584 8.768 464.52 10.388 465.756 11.696C464.472 12.752 462.9 13.52 460.992 14.072C461.184 14.276 461.472 14.708 461.556 14.924C463.488 14.3 465.108 13.472 466.428 12.344C467.748 13.532 469.38 14.396 471.384 14.912C471.516 14.66 471.804 14.252 472.02 14.048C470.076 13.592 468.456 12.776 467.148 11.672C468.396 10.412 469.344 8.828 470.052 6.86H471.9ZM473.268 10.5371C473.268 9.6543 473.385 8.80664 473.619 7.99414C473.857 7.18164 474.211 6.44336 474.68 5.7793C475.148 5.11523 475.635 4.64648 476.139 4.37305L476.361 5.08789C475.791 5.52539 475.322 6.19336 474.955 7.0918C474.592 7.99023 474.393 8.99609 474.357 10.1094L474.352 10.6074C474.352 12.1152 474.627 13.4238 475.178 14.5332C475.51 15.1973 475.904 15.7168 476.361 16.0918L476.139 16.7539C475.619 16.4648 475.123 15.9805 474.65 15.3008C473.729 13.9727 473.268 12.3848 473.268 10.5371ZM479.638 4.004C479.038 5.816 478.066 7.604 477.01 8.768C477.166 8.972 477.43 9.44 477.526 9.644C477.874 9.236 478.222 8.768 478.546 8.264V14.9H479.398V6.788C479.806 5.972 480.178 5.108 480.466 4.256L479.638 4.004ZM487.99 7.232V6.368H484.414V4.004H483.55V6.368H480.19V7.232H483.01C482.278 9.26 481.03 11.276 479.722 12.332C479.926 12.488 480.214 12.8 480.37 13.004C481.63 11.852 482.782 9.884 483.55 7.808V11.888H481.594V12.704H483.55V14.852H484.414V12.704H486.346V11.888H484.414V7.724C485.146 9.812 486.298 11.828 487.558 12.98C487.714 12.74 488.014 12.428 488.23 12.272C486.934 11.228 485.698 9.236 484.99 7.232H487.99ZM491.912 10.5957C491.912 11.4668 491.797 12.3027 491.566 13.1035C491.34 13.9004 490.99 14.6367 490.518 15.3125C490.049 15.9883 489.557 16.4688 489.041 16.7539L488.812 16.0918C489.414 15.6309 489.896 14.916 490.26 13.9473C490.627 12.9746 490.814 11.8965 490.822 10.7129V10.5254C490.822 9.70508 490.736 8.94336 490.564 8.24023C490.393 7.5332 490.152 6.90039 489.844 6.3418C489.539 5.7832 489.195 5.34766 488.812 5.03516L489.041 4.37305C489.557 4.6582 490.047 5.13477 490.512 5.80273C490.98 6.4707 491.33 7.20703 491.561 8.01172C491.795 8.81641 491.912 9.67773 491.912 10.5957ZM507.728 13.124V9.776H513.68V13.124H507.728ZM513.68 5.66V8.9H507.728V5.66H513.68ZM506.828 4.784V14.78H507.728V14H513.68V14.732H514.616V4.784H506.828ZM527.876 7.364V6.476H523.124V3.968H522.2V6.476H517.484V7.364H521.648C520.64 9.416 518.9 11.36 517.076 12.308C517.28 12.476 517.58 12.812 517.712 13.028C519.476 12.008 521.096 10.196 522.2 8.12V11.792H519.86V12.68H522.2V14.912H523.124V12.68H525.404V11.792H523.124V8.12C524.204 10.196 525.812 12.02 527.624 13.016C527.756 12.764 528.068 12.416 528.284 12.236C526.4 11.324 524.672 9.416 523.676 7.364H527.876ZM533.084 4.376H529.808V5.096H533.084V4.376ZM532.364 11.624V13.628H530.492V11.624H532.364ZM533.144 10.892H529.712V14.9H530.492V14.36H533.144V10.892ZM529.736 9.968H533.096V9.26H529.736V9.968ZM533.096 7.628H529.736V8.336H533.096V7.628ZM529.172 6.704H533.504V5.972H529.172V6.704ZM538.592 11.432V13.556H535.256V11.432H538.592ZM534.416 14.912H535.256V14.36H538.592V14.864H539.456V10.64H534.416V14.912ZM538.28 7.184V8.924H535.976C536.084 8.42 536.192 7.82 536.3 7.184H538.28ZM539.132 8.924V6.416H536.432C536.504 5.996 536.576 5.576 536.636 5.18H539.804V4.4H533.912V5.18H535.76C535.7 5.576 535.64 5.996 535.568 6.416H534.092V7.184H535.448C535.34 7.808 535.22 8.42 535.112 8.924H533.552V9.716H540.188V8.924H539.132Z" fill="#385898"/>
</svg>
