<svg width="258" height="46" viewBox="0 0 258 46" fill="none" xmlns="http://www.w3.org/2000/svg">
<path d="M20.044 7.15415C17.0278 7.15415 16.1558 8.38631 16.1558 11.104V15.6123H24.2009L23.3945 22.8959H16.1589V45H6.50421V22.8959H0V15.6123H6.50421V11.2278C6.50421 3.88085 9.72037 0.000115745 18.6937 0.000115745C20.5741 -0.00394662 22.453 0.0989293 24.3197 0.308157V7.16279L20.044 7.15415Z" fill="#1877F2"/>
<path d="M27.4918 29.5663C27.4918 21.2577 31.7438 15 40.6537 15C45.5131 15 48.481 17.3131 49.9004 20.1856V15.6351H59.2131V45.3737H49.9004V40.8756C48.5502 43.751 45.5131 46 40.6537 46C31.7438 46 27.4918 39.7511 27.4918 31.4337V29.5663ZM37.2106 31.5677C37.2106 36.0017 38.9636 38.9383 43.4862 38.9383C47.4707 38.9383 49.4944 36.2522 49.4944 32.0047V29.0186C49.4944 24.7711 47.4707 22.085 43.4862 22.085C38.9636 22.085 37.2106 25.0216 37.2106 29.4556V31.5677Z" fill="#1877F2"/>
<path d="M78.6438 15C82.3418 15 85.8455 15.7518 87.7623 16.9991L85.6483 23.3751C83.6655 22.4822 81.4994 22.0126 79.3033 21.9996C74.1478 21.9996 71.9075 24.8117 71.9075 29.6258V31.3742C71.9075 36.1883 74.1539 39.0004 79.3033 39.0004C81.4994 38.9874 83.6655 38.5178 85.6483 37.6249L87.7623 43.998C85.8455 45.2482 82.3448 46 78.6438 46C67.473 46 62.3853 40.3117 62.3853 31.1877V29.8123C62.3853 20.6883 67.473 15 78.6438 15Z" fill="#1877F2"/>
<path d="M91.9918 31.59V28.9705C91.9918 20.5445 97.0904 15 107.491 15C117.293 15 121.598 20.6173 121.598 28.857V33.6012H101.525C101.726 37.6584 103.647 39.4688 108.937 39.4688C112.516 39.4688 116.29 38.7819 119.072 37.6584L120.817 43.8142C118.3 45.0657 113.134 46 108.566 46C96.4944 45.9971 91.9918 40.3216 91.9918 31.59ZM101.528 27.719H113.053V26.971C113.053 23.7258 111.664 21.1499 107.495 21.1499C103.187 21.1529 101.528 23.7141 101.528 27.7074V27.719Z" fill="#1877F2"/>
<path d="M156.489 31.4725C156.489 39.759 152.206 46 143.378 46C138.558 46 135.212 43.7569 133.873 40.8892V45.3753H124.771V0.813543L134.41 0V19.8156C135.815 17.2006 138.896 15.0796 143.381 15.0796C152.218 15.0796 156.492 21.3119 156.492 29.6071L156.489 31.4725ZM146.849 29.4154C146.849 25.2401 145.111 22.1254 140.491 22.1254C136.539 22.1254 134.397 24.7404 134.397 28.9795V32.0942C134.397 36.3305 136.539 38.9483 140.491 38.9483C145.111 38.9483 146.849 35.8336 146.849 31.6584V29.4154Z" fill="#1877F2"/>
<path d="M159.664 31.2489V29.7511C159.664 21.1866 164.71 15 174.994 15C185.279 15 190.328 21.1866 190.328 29.7511V31.2489C190.328 39.8105 185.282 46 174.997 46C164.713 46 159.664 39.8105 159.664 31.2489ZM181.011 29.1246C181.011 25.1876 179.328 22.0637 174.979 22.0637C170.63 22.0637 168.962 25.1876 168.962 29.1246V31.8754C168.962 35.8124 170.645 38.9363 174.979 38.9363C179.313 38.9363 181.011 35.8124 181.011 31.8754V29.1246Z" fill="#1877F2"/>
<path d="M194.557 31.2489V29.7511C194.557 21.1866 199.604 15 209.889 15C220.175 15 225.221 21.1866 225.221 29.7511V31.2489C225.221 39.8105 220.175 46 209.889 46C199.604 46 194.557 39.8105 194.557 31.2489ZM215.907 29.1246C215.907 25.1876 214.224 22.0637 209.889 22.0637C205.555 22.0637 203.875 25.1876 203.875 29.1246V31.8754C203.875 35.8124 205.555 38.9363 209.889 38.9363C214.224 38.9363 215.907 35.8124 215.907 31.8754V29.1246Z" fill="#1877F2"/>
<path d="M238.691 29.61L247.8 15.5802H257.614L248.057 30.1057L258 45H248.185L238.691 30.5899V45H229.451V0.806969L238.691 0V29.61Z" fill="#1877F2"/>
</svg>
