<svg width="485" height="93" viewBox="0 0 485 93" fill="none" xmlns="http://www.w3.org/2000/svg">
<path d="M17.623 11.6895C17.623 13.64 17.2949 15.3444 16.6387 16.8027C15.9824 18.252 15.0527 19.3594 13.8496 20.125C12.6465 20.8906 11.2428 21.2734 9.63867 21.2734C8.07096 21.2734 6.68099 20.8906 5.46875 20.125C4.25651 19.3503 3.31315 18.252 2.63867 16.8301C1.97331 15.3991 1.63151 13.7448 1.61328 11.8672V10.4316C1.61328 8.51758 1.94596 6.82682 2.61133 5.35938C3.27669 3.89193 4.21549 2.77083 5.42773 1.99609C6.64909 1.21224 8.04362 0.820312 9.61133 0.820312C11.2064 0.820312 12.61 1.20768 13.8223 1.98242C15.0436 2.74805 15.9824 3.86458 16.6387 5.33203C17.2949 6.79036 17.623 8.49023 17.623 10.4316V11.6895ZM15.0117 10.4043C15.0117 8.04362 14.5378 6.23438 13.5898 4.97656C12.6419 3.70964 11.3158 3.07617 9.61133 3.07617C7.95247 3.07617 6.64453 3.70964 5.6875 4.97656C4.73958 6.23438 4.25195 7.98438 4.22461 10.2266V11.6895C4.22461 13.9772 4.70312 15.7773 5.66016 17.0898C6.6263 18.3932 7.95247 19.0449 9.63867 19.0449C11.334 19.0449 12.6465 18.4297 13.5762 17.1992C14.5059 15.9596 14.9844 14.1868 15.0117 11.8809V10.4043ZM39.4844 12.209H31.1309V21H28.5059V1.09375H40.8379V3.25391H31.1309V10.0625H39.4844V12.209ZM52.2539 21C52.1081 20.7083 51.9896 20.1888 51.8984 19.4414C50.7227 20.6628 49.319 21.2734 47.6875 21.2734C46.2292 21.2734 45.0306 20.8633 44.0918 20.043C43.1621 19.2135 42.6973 18.1654 42.6973 16.8984C42.6973 15.3581 43.2806 14.1641 44.4473 13.3164C45.623 12.4596 47.2728 12.0312 49.3965 12.0312H51.8574V10.8691C51.8574 9.98503 51.5931 9.2832 51.0645 8.76367C50.5358 8.23503 49.7565 7.9707 48.7266 7.9707C47.8242 7.9707 47.0677 8.19857 46.457 8.6543C45.8464 9.11003 45.541 9.66146 45.541 10.3086H42.998C42.998 9.57031 43.2578 8.85938 43.7773 8.17578C44.306 7.48307 45.0169 6.9362 45.9102 6.53516C46.8125 6.13411 47.8014 5.93359 48.877 5.93359C50.5814 5.93359 51.9167 6.36198 52.8828 7.21875C53.849 8.06641 54.3503 9.23763 54.3867 10.7324V17.541C54.3867 18.8991 54.5599 19.9792 54.9062 20.7812V21H52.2539ZM48.0566 19.0723C48.8496 19.0723 49.6016 18.8672 50.3125 18.457C51.0234 18.0469 51.5384 17.5137 51.8574 16.8574V13.8223H49.875C46.776 13.8223 45.2266 14.7292 45.2266 16.543C45.2266 17.3359 45.4909 17.9557 46.0195 18.4023C46.5482 18.849 47.2272 19.0723 48.0566 19.0723ZM64.2852 19.209C65.1875 19.209 65.9759 18.9355 66.6504 18.3887C67.3249 17.8418 67.6986 17.1582 67.7715 16.3379H70.1641C70.1185 17.1855 69.8268 17.9922 69.2891 18.7578C68.7513 19.5234 68.0312 20.1341 67.1289 20.5898C66.2357 21.0456 65.2878 21.2734 64.2852 21.2734C62.2708 21.2734 60.6667 20.6035 59.4727 19.2637C58.2878 17.9147 57.6953 16.0736 57.6953 13.7402V13.3164C57.6953 11.8763 57.9596 10.5957 58.4883 9.47461C59.0169 8.35352 59.7734 7.48307 60.7578 6.86328C61.7513 6.24349 62.9225 5.93359 64.2715 5.93359C65.9303 5.93359 67.3066 6.43034 68.4004 7.42383C69.5033 8.41732 70.0911 9.70703 70.1641 11.293H67.7715C67.6986 10.3359 67.334 9.55208 66.6777 8.94141C66.0306 8.32161 65.2285 8.01172 64.2715 8.01172C62.9863 8.01172 61.9883 8.47656 61.2773 9.40625C60.5755 10.3268 60.2246 11.6621 60.2246 13.4121V13.8906C60.2246 15.5951 60.5755 16.9076 61.2773 17.8281C61.9792 18.7487 62.9818 19.209 64.2852 19.209ZM79.1465 21.2734C77.1413 21.2734 75.5098 20.6172 74.252 19.3047C72.9941 17.9831 72.3652 16.2194 72.3652 14.0137V13.5488C72.3652 12.0814 72.6432 10.7734 73.1992 9.625C73.7643 8.46745 74.5482 7.5651 75.5508 6.91797C76.5625 6.26172 77.6562 5.93359 78.832 5.93359C80.7552 5.93359 82.25 6.56706 83.3164 7.83398C84.3828 9.10091 84.916 10.9147 84.916 13.2754V14.3281H74.8945C74.931 15.7865 75.3548 16.9668 76.166 17.8691C76.9863 18.7624 78.0254 19.209 79.2832 19.209C80.1764 19.209 80.9329 19.0267 81.5527 18.6621C82.1725 18.2975 82.7148 17.8145 83.1797 17.2129L84.7246 18.416C83.485 20.321 81.6257 21.2734 79.1465 21.2734ZM78.832 8.01172C77.8112 8.01172 76.9544 8.38542 76.2617 9.13281C75.569 9.87109 75.1406 10.9102 74.9766 12.25H82.3867V12.0586C82.3138 10.7734 81.9674 9.77995 81.3477 9.07812C80.7279 8.36719 79.8893 8.01172 78.832 8.01172ZM100.379 13.7676C100.379 16.028 99.8594 17.8464 98.8203 19.2227C97.7812 20.5898 96.3867 21.2734 94.6367 21.2734C92.7682 21.2734 91.3236 20.6126 90.3027 19.291L90.1797 21H87.8555V0H90.3848V7.83398C91.4056 6.56706 92.8138 5.93359 94.6094 5.93359C96.4049 5.93359 97.8132 6.61263 98.834 7.9707C99.8639 9.32878 100.379 11.1882 100.379 13.5488V13.7676ZM97.8496 13.4805C97.8496 11.7578 97.5169 10.4271 96.8516 9.48828C96.1862 8.54948 95.2292 8.08008 93.9805 8.08008C92.3125 8.08008 91.1139 8.85482 90.3848 10.4043V16.8027C91.1595 18.3522 92.3672 19.127 94.0078 19.127C95.2201 19.127 96.1634 18.6576 96.8379 17.7188C97.5124 16.7799 97.8496 15.3672 97.8496 13.4805ZM102.908 13.4668C102.908 12.0176 103.191 10.7142 103.756 9.55664C104.33 8.39909 105.123 7.50586 106.135 6.87695C107.156 6.24805 108.318 5.93359 109.621 5.93359C111.635 5.93359 113.262 6.63086 114.502 8.02539C115.751 9.41992 116.375 11.2747 116.375 13.5898V13.7676C116.375 15.2077 116.097 16.502 115.541 17.6504C114.994 18.7897 114.206 19.6784 113.176 20.3164C112.155 20.9544 110.979 21.2734 109.648 21.2734C107.643 21.2734 106.016 20.5762 104.768 19.1816C103.528 17.7871 102.908 15.9414 102.908 13.6445V13.4668ZM105.451 13.7676C105.451 15.4082 105.829 16.7253 106.586 17.7188C107.352 18.7122 108.372 19.209 109.648 19.209C110.934 19.209 111.954 18.7077 112.711 17.7051C113.467 16.6934 113.846 15.2806 113.846 13.4668C113.846 11.8444 113.458 10.5319 112.684 9.5293C111.918 8.51758 110.897 8.01172 109.621 8.01172C108.372 8.01172 107.365 8.50846 106.6 9.50195C105.834 10.4954 105.451 11.9173 105.451 13.7676ZM118.877 13.4668C118.877 12.0176 119.16 10.7142 119.725 9.55664C120.299 8.39909 121.092 7.50586 122.104 6.87695C123.124 6.24805 124.286 5.93359 125.59 5.93359C127.604 5.93359 129.231 6.63086 130.471 8.02539C131.719 9.41992 132.344 11.2747 132.344 13.5898V13.7676C132.344 15.2077 132.066 16.502 131.51 17.6504C130.963 18.7897 130.174 19.6784 129.145 20.3164C128.124 20.9544 126.948 21.2734 125.617 21.2734C123.612 21.2734 121.985 20.5762 120.736 19.1816C119.497 17.7871 118.877 15.9414 118.877 13.6445V13.4668ZM121.42 13.7676C121.42 15.4082 121.798 16.7253 122.555 17.7188C123.32 18.7122 124.341 19.209 125.617 19.209C126.902 19.209 127.923 18.7077 128.68 17.7051C129.436 16.6934 129.814 15.2806 129.814 13.4668C129.814 11.8444 129.427 10.5319 128.652 9.5293C127.887 8.51758 126.866 8.01172 125.59 8.01172C124.341 8.01172 123.334 8.50846 122.568 9.50195C121.803 10.4954 121.42 11.9173 121.42 13.7676ZM139.645 14.1504L138.059 15.8047V21H135.529V0H138.059V12.7012L139.412 11.0742L144.02 6.20703H147.096L141.34 12.3867L147.766 21H144.799L139.645 14.1504ZM165.785 21C165.639 20.7083 165.521 20.1888 165.43 19.4414C164.254 20.6628 162.85 21.2734 161.219 21.2734C159.76 21.2734 158.562 20.8633 157.623 20.043C156.693 19.2135 156.229 18.1654 156.229 16.8984C156.229 15.3581 156.812 14.1641 157.979 13.3164C159.154 12.4596 160.804 12.0312 162.928 12.0312H165.389V10.8691C165.389 9.98503 165.124 9.2832 164.596 8.76367C164.067 8.23503 163.288 7.9707 162.258 7.9707C161.355 7.9707 160.599 8.19857 159.988 8.6543C159.378 9.11003 159.072 9.66146 159.072 10.3086H156.529C156.529 9.57031 156.789 8.85938 157.309 8.17578C157.837 7.48307 158.548 6.9362 159.441 6.53516C160.344 6.13411 161.333 5.93359 162.408 5.93359C164.113 5.93359 165.448 6.36198 166.414 7.21875C167.38 8.06641 167.882 9.23763 167.918 10.7324V17.541C167.918 18.8991 168.091 19.9792 168.438 20.7812V21H165.785ZM161.588 19.0723C162.381 19.0723 163.133 18.8672 163.844 18.457C164.555 18.0469 165.07 17.5137 165.389 16.8574V13.8223H163.406C160.307 13.8223 158.758 14.7292 158.758 16.543C158.758 17.3359 159.022 17.9557 159.551 18.4023C160.079 18.849 160.758 19.0723 161.588 19.0723ZM174.494 6.20703V22.709C174.494 25.5527 173.204 26.9746 170.625 26.9746C170.069 26.9746 169.554 26.8926 169.08 26.7285V24.7051C169.372 24.778 169.755 24.8145 170.229 24.8145C170.794 24.8145 171.222 24.6595 171.514 24.3496C171.814 24.0488 171.965 23.5202 171.965 22.7637V6.20703H174.494ZM171.705 2.2832C171.705 1.88216 171.828 1.54036 172.074 1.25781C172.329 0.966146 172.699 0.820312 173.182 0.820312C173.674 0.820312 174.048 0.961589 174.303 1.24414C174.558 1.52669 174.686 1.87305 174.686 2.2832C174.686 2.69336 174.558 3.03516 174.303 3.30859C174.048 3.58203 173.674 3.71875 173.182 3.71875C172.689 3.71875 172.32 3.58203 172.074 3.30859C171.828 3.03516 171.705 2.69336 171.705 2.2832ZM187.715 19.5371C186.73 20.6947 185.286 21.2734 183.381 21.2734C181.804 21.2734 180.601 20.8177 179.771 19.9062C178.951 18.9857 178.536 17.6276 178.527 15.832V6.20703H181.057V15.7637C181.057 18.0059 181.968 19.127 183.791 19.127C185.723 19.127 187.008 18.4069 187.646 16.9668V6.20703H190.176V21H187.77L187.715 19.5371ZM193.416 13.4805C193.416 11.2109 193.954 9.38802 195.029 8.01172C196.105 6.6263 197.513 5.93359 199.254 5.93359C200.986 5.93359 202.357 6.52604 203.369 7.71094V0H205.898V21H203.574L203.451 19.4141C202.439 20.6536 201.031 21.2734 199.227 21.2734C197.513 21.2734 196.114 20.5716 195.029 19.168C193.954 17.7643 193.416 15.9323 193.416 13.6719V13.4805ZM195.945 13.7676C195.945 15.4447 196.292 16.7572 196.984 17.7051C197.677 18.653 198.634 19.127 199.855 19.127C201.46 19.127 202.631 18.4069 203.369 16.9668V10.1719C202.613 8.77734 201.451 8.08008 199.883 8.08008C198.643 8.08008 197.677 8.55859 196.984 9.51562C196.292 10.4727 195.945 11.89 195.945 13.7676ZM218.969 21C218.823 20.7083 218.704 20.1888 218.613 19.4414C217.438 20.6628 216.034 21.2734 214.402 21.2734C212.944 21.2734 211.745 20.8633 210.807 20.043C209.877 19.2135 209.412 18.1654 209.412 16.8984C209.412 15.3581 209.995 14.1641 211.162 13.3164C212.338 12.4596 213.988 12.0312 216.111 12.0312H218.572V10.8691C218.572 9.98503 218.308 9.2832 217.779 8.76367C217.251 8.23503 216.471 7.9707 215.441 7.9707C214.539 7.9707 213.783 8.19857 213.172 8.6543C212.561 9.11003 212.256 9.66146 212.256 10.3086H209.713C209.713 9.57031 209.973 8.85938 210.492 8.17578C211.021 7.48307 211.732 6.9362 212.625 6.53516C213.527 6.13411 214.516 5.93359 215.592 5.93359C217.296 5.93359 218.632 6.36198 219.598 7.21875C220.564 8.06641 221.065 9.23763 221.102 10.7324V17.541C221.102 18.8991 221.275 19.9792 221.621 20.7812V21H218.969ZM214.771 19.0723C215.564 19.0723 216.316 18.8672 217.027 18.457C217.738 18.0469 218.253 17.5137 218.572 16.8574V13.8223H216.59C213.491 13.8223 211.941 14.7292 211.941 16.543C211.941 17.3359 212.206 17.9557 212.734 18.4023C213.263 18.849 213.942 19.0723 214.771 19.0723ZM236.893 17.5684L240.557 6.20703H243.141L237.836 21H235.908L230.549 6.20703H233.133L236.893 17.5684ZM244.686 13.4668C244.686 12.0176 244.968 10.7142 245.533 9.55664C246.107 8.39909 246.9 7.50586 247.912 6.87695C248.933 6.24805 250.095 5.93359 251.398 5.93359C253.413 5.93359 255.04 6.63086 256.279 8.02539C257.528 9.41992 258.152 11.2747 258.152 13.5898V13.7676C258.152 15.2077 257.874 16.502 257.318 17.6504C256.771 18.7897 255.983 19.6784 254.953 20.3164C253.932 20.9544 252.757 21.2734 251.426 21.2734C249.421 21.2734 247.794 20.5762 246.545 19.1816C245.305 17.7871 244.686 15.9414 244.686 13.6445V13.4668ZM247.229 13.7676C247.229 15.4082 247.607 16.7253 248.363 17.7188C249.129 18.7122 250.15 19.209 251.426 19.209C252.711 19.209 253.732 18.7077 254.488 17.7051C255.245 16.6934 255.623 15.2806 255.623 13.4668C255.623 11.8444 255.236 10.5319 254.461 9.5293C253.695 8.51758 252.674 8.01172 251.398 8.01172C250.15 8.01172 249.143 8.50846 248.377 9.50195C247.611 10.4954 247.229 11.9173 247.229 13.7676ZM267.258 19.209C268.16 19.209 268.949 18.9355 269.623 18.3887C270.298 17.8418 270.671 17.1582 270.744 16.3379H273.137C273.091 17.1855 272.799 17.9922 272.262 18.7578C271.724 19.5234 271.004 20.1341 270.102 20.5898C269.208 21.0456 268.26 21.2734 267.258 21.2734C265.243 21.2734 263.639 20.6035 262.445 19.2637C261.26 17.9147 260.668 16.0736 260.668 13.7402V13.3164C260.668 11.8763 260.932 10.5957 261.461 9.47461C261.99 8.35352 262.746 7.48307 263.73 6.86328C264.724 6.24349 265.895 5.93359 267.244 5.93359C268.903 5.93359 270.279 6.43034 271.373 7.42383C272.476 8.41732 273.064 9.70703 273.137 11.293H270.744C270.671 10.3359 270.307 9.55208 269.65 8.94141C269.003 8.32161 268.201 8.01172 267.244 8.01172C265.959 8.01172 264.961 8.47656 264.25 9.40625C263.548 10.3268 263.197 11.6621 263.197 13.4121V13.8906C263.197 15.5951 263.548 16.9076 264.25 17.8281C264.952 18.7487 265.954 19.209 267.258 19.209ZM282.119 21.2734C280.114 21.2734 278.482 20.6172 277.225 19.3047C275.967 17.9831 275.338 16.2194 275.338 14.0137V13.5488C275.338 12.0814 275.616 10.7734 276.172 9.625C276.737 8.46745 277.521 7.5651 278.523 6.91797C279.535 6.26172 280.629 5.93359 281.805 5.93359C283.728 5.93359 285.223 6.56706 286.289 7.83398C287.355 9.10091 287.889 10.9147 287.889 13.2754V14.3281H277.867C277.904 15.7865 278.327 16.9668 279.139 17.8691C279.959 18.7624 280.998 19.209 282.256 19.209C283.149 19.209 283.906 19.0267 284.525 18.6621C285.145 18.2975 285.688 17.8145 286.152 17.2129L287.697 18.416C286.458 20.321 284.598 21.2734 282.119 21.2734ZM281.805 8.01172C280.784 8.01172 279.927 8.38542 279.234 9.13281C278.542 9.87109 278.113 10.9102 277.949 12.25H285.359V12.0586C285.286 10.7734 284.94 9.77995 284.32 9.07812C283.701 8.36719 282.862 8.01172 281.805 8.01172ZM285.934 3.74609V3.88281H283.842L281.791 1.55859L279.754 3.88281H277.662V3.71875L281.025 0H282.557L285.934 3.74609ZM306.906 21C306.76 20.7083 306.642 20.1888 306.551 19.4414C305.375 20.6628 303.971 21.2734 302.34 21.2734C300.882 21.2734 299.683 20.8633 298.744 20.043C297.814 19.2135 297.35 18.1654 297.35 16.8984C297.35 15.3581 297.933 14.1641 299.1 13.3164C300.275 12.4596 301.925 12.0312 304.049 12.0312H306.51V10.8691C306.51 9.98503 306.245 9.2832 305.717 8.76367C305.188 8.23503 304.409 7.9707 303.379 7.9707C302.477 7.9707 301.72 8.19857 301.109 8.6543C300.499 9.11003 300.193 9.66146 300.193 10.3086H297.65C297.65 9.57031 297.91 8.85938 298.43 8.17578C298.958 7.48307 299.669 6.9362 300.562 6.53516C301.465 6.13411 302.454 5.93359 303.529 5.93359C305.234 5.93359 306.569 6.36198 307.535 7.21875C308.501 8.06641 309.003 9.23763 309.039 10.7324V17.541C309.039 18.8991 309.212 19.9792 309.559 20.7812V21H306.906ZM302.709 19.0723C303.502 19.0723 304.254 18.8672 304.965 18.457C305.676 18.0469 306.191 17.5137 306.51 16.8574V13.8223H304.527C301.428 13.8223 299.879 14.7292 299.879 16.543C299.879 17.3359 300.143 17.9557 300.672 18.4023C301.201 18.849 301.88 19.0723 302.709 19.0723ZM328.562 17.0762C328.562 16.3926 328.303 15.8639 327.783 15.4902C327.273 15.1074 326.375 14.7793 325.09 14.5059C323.814 14.2324 322.798 13.9043 322.041 13.5215C321.294 13.1387 320.738 12.6829 320.373 12.1543C320.018 11.6257 319.84 10.9967 319.84 10.2676C319.84 9.05534 320.35 8.02995 321.371 7.19141C322.401 6.35286 323.714 5.93359 325.309 5.93359C326.986 5.93359 328.344 6.36654 329.383 7.23242C330.431 8.09831 330.955 9.20573 330.955 10.5547H328.412C328.412 9.86198 328.116 9.26497 327.523 8.76367C326.94 8.26237 326.202 8.01172 325.309 8.01172C324.388 8.01172 323.668 8.21224 323.148 8.61328C322.629 9.01432 322.369 9.53841 322.369 10.1855C322.369 10.7962 322.611 11.2565 323.094 11.5664C323.577 11.8763 324.447 12.1725 325.705 12.4551C326.972 12.7376 327.997 13.0749 328.781 13.4668C329.565 13.8587 330.144 14.3327 330.518 14.8887C330.9 15.4355 331.092 16.1055 331.092 16.8984C331.092 18.2201 330.563 19.2819 329.506 20.084C328.449 20.877 327.077 21.2734 325.391 21.2734C324.206 21.2734 323.158 21.0638 322.246 20.6445C321.335 20.2253 320.619 19.6419 320.1 18.8945C319.589 18.138 319.334 17.3223 319.334 16.4473H321.863C321.909 17.2949 322.246 17.9694 322.875 18.4707C323.513 18.9629 324.352 19.209 325.391 19.209C326.348 19.209 327.113 19.0176 327.688 18.6348C328.271 18.2428 328.562 17.7233 328.562 17.0762ZM340.525 21.2734C338.52 21.2734 336.889 20.6172 335.631 19.3047C334.373 17.9831 333.744 16.2194 333.744 14.0137V13.5488C333.744 12.0814 334.022 10.7734 334.578 9.625C335.143 8.46745 335.927 7.5651 336.93 6.91797C337.941 6.26172 339.035 5.93359 340.211 5.93359C342.134 5.93359 343.629 6.56706 344.695 7.83398C345.762 9.10091 346.295 10.9147 346.295 13.2754V14.3281H336.273C336.31 15.7865 336.734 16.9668 337.545 17.8691C338.365 18.7624 339.404 19.209 340.662 19.209C341.555 19.209 342.312 19.0267 342.932 18.6621C343.551 18.2975 344.094 17.8145 344.559 17.2129L346.104 18.416C344.864 20.321 343.005 21.2734 340.525 21.2734ZM340.211 8.01172C339.19 8.01172 338.333 8.38542 337.641 9.13281C336.948 9.87109 336.52 10.9102 336.355 12.25H343.766V12.0586C343.693 10.7734 343.346 9.77995 342.727 9.07812C342.107 8.36719 341.268 8.01172 340.211 8.01172ZM362.113 19.209C363.016 19.209 363.804 18.9355 364.479 18.3887C365.153 17.8418 365.527 17.1582 365.6 16.3379H367.992C367.947 17.1855 367.655 17.9922 367.117 18.7578C366.579 19.5234 365.859 20.1341 364.957 20.5898C364.064 21.0456 363.116 21.2734 362.113 21.2734C360.099 21.2734 358.495 20.6035 357.301 19.2637C356.116 17.9147 355.523 16.0736 355.523 13.7402V13.3164C355.523 11.8763 355.788 10.5957 356.316 9.47461C356.845 8.35352 357.602 7.48307 358.586 6.86328C359.579 6.24349 360.751 5.93359 362.1 5.93359C363.758 5.93359 365.135 6.43034 366.229 7.42383C367.331 8.41732 367.919 9.70703 367.992 11.293H365.6C365.527 10.3359 365.162 9.55208 364.506 8.94141C363.859 8.32161 363.057 8.01172 362.1 8.01172C360.814 8.01172 359.816 8.47656 359.105 9.40625C358.404 10.3268 358.053 11.6621 358.053 13.4121V13.8906C358.053 15.5951 358.404 16.9076 359.105 17.8281C359.807 18.7487 360.81 19.209 362.113 19.209ZM370.166 13.4668C370.166 12.0176 370.449 10.7142 371.014 9.55664C371.588 8.39909 372.381 7.50586 373.393 6.87695C374.413 6.24805 375.576 5.93359 376.879 5.93359C378.893 5.93359 380.52 6.63086 381.76 8.02539C383.008 9.41992 383.633 11.2747 383.633 13.5898V13.7676C383.633 15.2077 383.355 16.502 382.799 17.6504C382.252 18.7897 381.464 19.6784 380.434 20.3164C379.413 20.9544 378.237 21.2734 376.906 21.2734C374.901 21.2734 373.274 20.5762 372.025 19.1816C370.786 17.7871 370.166 15.9414 370.166 13.6445V13.4668ZM372.709 13.7676C372.709 15.4082 373.087 16.7253 373.844 17.7188C374.609 18.7122 375.63 19.209 376.906 19.209C378.191 19.209 379.212 18.7077 379.969 17.7051C380.725 16.6934 381.104 15.2806 381.104 13.4668C381.104 11.8444 380.716 10.5319 379.941 9.5293C379.176 8.51758 378.155 8.01172 376.879 8.01172C375.63 8.01172 374.623 8.50846 373.857 9.50195C373.092 10.4954 372.709 11.9173 372.709 13.7676ZM389.197 6.20703L389.279 8.06641C390.41 6.64453 391.886 5.93359 393.709 5.93359C396.835 5.93359 398.412 7.69727 398.439 11.2246V21H395.91V11.2109C395.901 10.1445 395.655 9.35612 395.172 8.8457C394.698 8.33529 393.955 8.08008 392.943 8.08008C392.123 8.08008 391.403 8.29883 390.783 8.73633C390.163 9.17383 389.68 9.74805 389.334 10.459V21H386.805V6.20703H389.197ZM408.393 21.2734C406.387 21.2734 404.756 20.6172 403.498 19.3047C402.24 17.9831 401.611 16.2194 401.611 14.0137V13.5488C401.611 12.0814 401.889 10.7734 402.445 9.625C403.01 8.46745 403.794 7.5651 404.797 6.91797C405.809 6.26172 406.902 5.93359 408.078 5.93359C410.001 5.93359 411.496 6.56706 412.562 7.83398C413.629 9.10091 414.162 10.9147 414.162 13.2754V14.3281H404.141C404.177 15.7865 404.601 16.9668 405.412 17.8691C406.232 18.7624 407.271 19.209 408.529 19.209C409.423 19.209 410.179 19.0267 410.799 18.6621C411.419 18.2975 411.961 17.8145 412.426 17.2129L413.971 18.416C412.731 20.321 410.872 21.2734 408.393 21.2734ZM408.078 8.01172C407.057 8.01172 406.201 8.38542 405.508 9.13281C404.815 9.87109 404.387 10.9102 404.223 12.25H411.633V12.0586C411.56 10.7734 411.214 9.77995 410.594 9.07812C409.974 8.36719 409.135 8.01172 408.078 8.01172ZM423.035 19.209C423.938 19.209 424.726 18.9355 425.4 18.3887C426.075 17.8418 426.449 17.1582 426.521 16.3379H428.914C428.868 17.1855 428.577 17.9922 428.039 18.7578C427.501 19.5234 426.781 20.1341 425.879 20.5898C424.986 21.0456 424.038 21.2734 423.035 21.2734C421.021 21.2734 419.417 20.6035 418.223 19.2637C417.038 17.9147 416.445 16.0736 416.445 13.7402V13.3164C416.445 11.8763 416.71 10.5957 417.238 9.47461C417.767 8.35352 418.523 7.48307 419.508 6.86328C420.501 6.24349 421.673 5.93359 423.021 5.93359C424.68 5.93359 426.057 6.43034 427.15 7.42383C428.253 8.41732 428.841 9.70703 428.914 11.293H426.521C426.449 10.3359 426.084 9.55208 425.428 8.94141C424.781 8.32161 423.979 8.01172 423.021 8.01172C421.736 8.01172 420.738 8.47656 420.027 9.40625C419.326 10.3268 418.975 11.6621 418.975 13.4121V13.8906C418.975 15.5951 419.326 16.9076 420.027 17.8281C420.729 18.7487 421.732 19.209 423.035 19.209ZM435.189 2.625V6.20703H437.951V8.16211H435.189V17.3359C435.189 17.9284 435.312 18.375 435.559 18.6758C435.805 18.9674 436.224 19.1133 436.816 19.1133C437.108 19.1133 437.509 19.0586 438.02 18.9492V21C437.354 21.1823 436.707 21.2734 436.078 21.2734C434.948 21.2734 434.096 20.9316 433.521 20.248C432.947 19.5645 432.66 18.5938 432.66 17.3359V8.16211H429.967V6.20703H432.66V2.625H435.189ZM450.051 21C449.905 20.7083 449.786 20.1888 449.695 19.4414C448.52 20.6628 447.116 21.2734 445.484 21.2734C444.026 21.2734 442.827 20.8633 441.889 20.043C440.959 19.2135 440.494 18.1654 440.494 16.8984C440.494 15.3581 441.077 14.1641 442.244 13.3164C443.42 12.4596 445.07 12.0312 447.193 12.0312H449.654V10.8691C449.654 9.98503 449.39 9.2832 448.861 8.76367C448.333 8.23503 447.553 7.9707 446.523 7.9707C445.621 7.9707 444.865 8.19857 444.254 8.6543C443.643 9.11003 443.338 9.66146 443.338 10.3086H440.795C440.795 9.57031 441.055 8.85938 441.574 8.17578C442.103 7.48307 442.814 6.9362 443.707 6.53516C444.609 6.13411 445.598 5.93359 446.674 5.93359C448.378 5.93359 449.714 6.36198 450.68 7.21875C451.646 8.06641 452.147 9.23763 452.184 10.7324V17.541C452.184 18.8991 452.357 19.9792 452.703 20.7812V21H450.051ZM445.854 19.0723C446.646 19.0723 447.398 18.8672 448.109 18.457C448.82 18.0469 449.335 17.5137 449.654 16.8574V13.8223H447.672C444.573 13.8223 443.023 14.7292 443.023 16.543C443.023 17.3359 443.288 17.9557 443.816 18.4023C444.345 18.849 445.024 19.0723 445.854 19.0723ZM463.299 8.47656C462.916 8.41276 462.501 8.38086 462.055 8.38086C460.396 8.38086 459.27 9.08724 458.678 10.5V21H456.148V6.20703H458.609L458.65 7.91602C459.48 6.5944 460.656 5.93359 462.178 5.93359C462.67 5.93359 463.044 5.9974 463.299 6.125V8.47656ZM478.721 21.2734C476.715 21.2734 475.084 20.6172 473.826 19.3047C472.568 17.9831 471.939 16.2194 471.939 14.0137V13.5488C471.939 12.0814 472.217 10.7734 472.773 9.625C473.339 8.46745 474.122 7.5651 475.125 6.91797C476.137 6.26172 477.23 5.93359 478.406 5.93359C480.329 5.93359 481.824 6.56706 482.891 7.83398C483.957 9.10091 484.49 10.9147 484.49 13.2754V14.3281H474.469C474.505 15.7865 474.929 16.9668 475.74 17.8691C476.561 18.7624 477.6 19.209 478.857 19.209C479.751 19.209 480.507 19.0267 481.127 18.6621C481.747 18.2975 482.289 17.8145 482.754 17.2129L484.299 18.416C483.059 20.321 481.2 21.2734 478.721 21.2734ZM478.406 8.01172C477.385 8.01172 476.529 8.38542 475.836 9.13281C475.143 9.87109 474.715 10.9102 474.551 12.25H481.961V12.0586C481.888 10.7734 481.542 9.77995 480.922 9.07812C480.302 8.36719 479.464 8.01172 478.406 8.01172ZM7.84766 52.209C8.75 52.209 9.53841 51.9355 10.2129 51.3887C10.8874 50.8418 11.2611 50.1582 11.334 49.3379H13.7266C13.681 50.1855 13.3893 50.9922 12.8516 51.7578C12.3138 52.5234 11.5938 53.1341 10.6914 53.5898C9.79818 54.0456 8.85026 54.2734 7.84766 54.2734C5.83333 54.2734 4.22917 53.6035 3.03516 52.2637C1.85026 50.9147 1.25781 49.0736 1.25781 46.7402V46.3164C1.25781 44.8763 1.52214 43.5957 2.05078 42.4746C2.57943 41.3535 3.33594 40.4831 4.32031 39.8633C5.3138 39.2435 6.48503 38.9336 7.83398 38.9336C9.49284 38.9336 10.8691 39.4303 11.9629 40.4238C13.0658 41.4173 13.6536 42.707 13.7266 44.293H11.334C11.2611 43.3359 10.8965 42.5521 10.2402 41.9414C9.5931 41.3216 8.79102 41.0117 7.83398 41.0117C6.54883 41.0117 5.55078 41.4766 4.83984 42.4062C4.13802 43.3268 3.78711 44.6621 3.78711 46.4121V46.8906C3.78711 48.5951 4.13802 49.9076 4.83984 50.8281C5.54167 51.7487 6.54427 52.209 7.84766 52.209ZM15.9004 46.4668C15.9004 45.0176 16.1829 43.7142 16.748 42.5566C17.3223 41.3991 18.1152 40.5059 19.127 39.877C20.1478 39.248 21.3099 38.9336 22.6133 38.9336C24.6276 38.9336 26.2546 39.6309 27.4941 41.0254C28.7428 42.4199 29.3672 44.2747 29.3672 46.5898V46.7676C29.3672 48.2077 29.0892 49.502 28.5332 50.6504C27.9863 51.7897 27.1979 52.6784 26.168 53.3164C25.1471 53.9544 23.9714 54.2734 22.6406 54.2734C20.6354 54.2734 19.0085 53.5762 17.7598 52.1816C16.5202 50.7871 15.9004 48.9414 15.9004 46.6445V46.4668ZM18.4434 46.7676C18.4434 48.4082 18.8216 49.7253 19.5781 50.7188C20.3438 51.7122 21.3646 52.209 22.6406 52.209C23.9258 52.209 24.9466 51.7077 25.7031 50.7051C26.4596 49.6934 26.8379 48.2806 26.8379 46.4668C26.8379 44.8444 26.4505 43.5319 25.6758 42.5293C24.9102 41.5176 23.8893 41.0117 22.6133 41.0117C21.3646 41.0117 20.3574 41.5085 19.5918 42.502C18.8262 43.4954 18.4434 44.9173 18.4434 46.7676ZM34.918 39.207L34.9863 40.8477C36.071 39.5716 37.5339 38.9336 39.375 38.9336C41.444 38.9336 42.8522 39.7266 43.5996 41.3125C44.0918 40.6016 44.7298 40.0273 45.5137 39.5898C46.3066 39.1523 47.2409 38.9336 48.3164 38.9336C51.5612 38.9336 53.2109 40.6517 53.2656 44.0879V54H50.7363V44.2383C50.7363 43.181 50.4948 42.3926 50.0117 41.873C49.5286 41.3444 48.7174 41.0801 47.5781 41.0801C46.6393 41.0801 45.86 41.3626 45.2402 41.9277C44.6204 42.4837 44.2604 43.2357 44.1602 44.1836V54H41.6172V44.3066C41.6172 42.1556 40.5645 41.0801 38.459 41.0801C36.8001 41.0801 35.6654 41.7865 35.0547 43.1992V54H32.5254V39.207H34.918ZM69.5898 46.7676C69.5898 49.0189 69.0749 50.8327 68.0449 52.209C67.015 53.5853 65.6204 54.2734 63.8613 54.2734C62.0658 54.2734 60.653 53.7038 59.623 52.5645V59.6875H57.0938V39.207H59.4043L59.5273 40.8477C60.5573 39.5716 61.9883 38.9336 63.8203 38.9336C65.5977 38.9336 67.0013 39.6035 68.0312 40.9434C69.0703 42.2832 69.5898 44.1471 69.5898 46.5352V46.7676ZM67.0605 46.4805C67.0605 44.8125 66.7051 43.4954 65.9941 42.5293C65.2832 41.5632 64.3079 41.0801 63.0684 41.0801C61.5371 41.0801 60.3887 41.7591 59.623 43.1172V50.1855C60.3796 51.5345 61.5371 52.209 63.0957 52.209C64.3079 52.209 65.2695 51.7305 65.9805 50.7734C66.7005 49.8073 67.0605 48.3763 67.0605 46.4805ZM81.9492 54C81.8034 53.7083 81.6849 53.1888 81.5938 52.4414C80.418 53.6628 79.0143 54.2734 77.3828 54.2734C75.9245 54.2734 74.7259 53.8633 73.7871 53.043C72.8574 52.2135 72.3926 51.1654 72.3926 49.8984C72.3926 48.3581 72.9759 47.1641 74.1426 46.3164C75.3184 45.4596 76.9681 45.0312 79.0918 45.0312H81.5527V43.8691C81.5527 42.985 81.2884 42.2832 80.7598 41.7637C80.2311 41.235 79.4518 40.9707 78.4219 40.9707C77.5195 40.9707 76.763 41.1986 76.1523 41.6543C75.5417 42.11 75.2363 42.6615 75.2363 43.3086H72.6934C72.6934 42.5703 72.9531 41.8594 73.4727 41.1758C74.0013 40.4831 74.7122 39.9362 75.6055 39.5352C76.5078 39.1341 77.4967 38.9336 78.5723 38.9336C80.2767 38.9336 81.612 39.362 82.5781 40.2188C83.5443 41.0664 84.0456 42.2376 84.082 43.7324V50.541C84.082 51.8991 84.2552 52.9792 84.6016 53.7812V54H81.9492ZM77.752 52.0723C78.5449 52.0723 79.2969 51.8672 80.0078 51.457C80.7188 51.0469 81.2337 50.5137 81.5527 49.8574V46.8223H79.5703C76.4714 46.8223 74.9219 47.7292 74.9219 49.543C74.9219 50.3359 75.1862 50.9557 75.7148 51.4023C76.2435 51.849 76.9225 52.0723 77.752 52.0723ZM95.1973 41.4766C94.8145 41.4128 94.3997 41.3809 93.9531 41.3809C92.2943 41.3809 91.1686 42.0872 90.5762 43.5V54H88.0469V39.207H90.5078L90.5488 40.916C91.3783 39.5944 92.554 38.9336 94.0762 38.9336C94.5684 38.9336 94.9421 38.9974 95.1973 39.125V41.4766ZM101.65 35.625V39.207H104.412V41.1621H101.65V50.3359C101.65 50.9284 101.773 51.375 102.02 51.6758C102.266 51.9674 102.685 52.1133 103.277 52.1133C103.569 52.1133 103.97 52.0586 104.48 51.9492V54C103.815 54.1823 103.168 54.2734 102.539 54.2734C101.409 54.2734 100.557 53.9316 99.9824 53.248C99.4082 52.5645 99.1211 51.5938 99.1211 50.3359V41.1621H96.4277V39.207H99.1211V35.625H101.65ZM110.127 54H107.598V39.207H110.127V54ZM107.393 35.2832C107.393 34.873 107.516 34.5267 107.762 34.2441C108.017 33.9616 108.391 33.8203 108.883 33.8203C109.375 33.8203 109.749 33.9616 110.004 34.2441C110.259 34.5267 110.387 34.873 110.387 35.2832C110.387 35.6934 110.259 36.0352 110.004 36.3086C109.749 36.582 109.375 36.7188 108.883 36.7188C108.391 36.7188 108.017 36.582 107.762 36.3086C107.516 36.0352 107.393 35.6934 107.393 35.2832ZM116.936 54H114.406V33H116.936V54ZM123.525 40.998C124.646 39.6217 126.105 38.9336 127.9 38.9336C131.027 38.9336 132.604 40.6973 132.631 44.2246V54H130.102V44.2109C130.092 43.1445 129.846 42.3561 129.363 41.8457C128.889 41.3353 128.146 41.0801 127.135 41.0801C126.314 41.0801 125.594 41.2988 124.975 41.7363C124.355 42.1738 123.872 42.748 123.525 43.459V54H120.996V33H123.525V40.998ZM145.551 54C145.405 53.7083 145.286 53.1888 145.195 52.4414C144.02 53.6628 142.616 54.2734 140.984 54.2734C139.526 54.2734 138.327 53.8633 137.389 53.043C136.459 52.2135 135.994 51.1654 135.994 49.8984C135.994 48.3581 136.577 47.1641 137.744 46.3164C138.92 45.4596 140.57 45.0312 142.693 45.0312H145.154V43.8691C145.154 42.985 144.89 42.2832 144.361 41.7637C143.833 41.235 143.053 40.9707 142.023 40.9707C141.121 40.9707 140.365 41.1986 139.754 41.6543C139.143 42.11 138.838 42.6615 138.838 43.3086H136.295C136.295 42.5703 136.555 41.8594 137.074 41.1758C137.603 40.4831 138.314 39.9362 139.207 39.5352C140.109 39.1341 141.098 38.9336 142.174 38.9336C143.878 38.9336 145.214 39.362 146.18 40.2188C147.146 41.0664 147.647 42.2376 147.684 43.7324V50.541C147.684 51.8991 147.857 52.9792 148.203 53.7812V54H145.551ZM141.354 52.0723C142.146 52.0723 142.898 51.8672 143.609 51.457C144.32 51.0469 144.835 50.5137 145.154 49.8574V46.8223H143.172C140.073 46.8223 138.523 47.7292 138.523 49.543C138.523 50.3359 138.788 50.9557 139.316 51.4023C139.845 51.849 140.524 52.0723 141.354 52.0723ZM158.799 41.4766C158.416 41.4128 158.001 41.3809 157.555 41.3809C155.896 41.3809 154.77 42.0872 154.178 43.5V54H151.648V39.207H154.109L154.15 40.916C154.98 39.5944 156.156 38.9336 157.678 38.9336C158.17 38.9336 158.544 38.9974 158.799 39.125V41.4766ZM174.016 52.209C174.918 52.209 175.706 51.9355 176.381 51.3887C177.055 50.8418 177.429 50.1582 177.502 49.3379H179.895C179.849 50.1855 179.557 50.9922 179.02 51.7578C178.482 52.5234 177.762 53.1341 176.859 53.5898C175.966 54.0456 175.018 54.2734 174.016 54.2734C172.001 54.2734 170.397 53.6035 169.203 52.2637C168.018 50.9147 167.426 49.0736 167.426 46.7402V46.3164C167.426 44.8763 167.69 43.5957 168.219 42.4746C168.747 41.3535 169.504 40.4831 170.488 39.8633C171.482 39.2435 172.653 38.9336 174.002 38.9336C175.661 38.9336 177.037 39.4303 178.131 40.4238C179.234 41.4173 179.822 42.707 179.895 44.293H177.502C177.429 43.3359 177.064 42.5521 176.408 41.9414C175.761 41.3216 174.959 41.0117 174.002 41.0117C172.717 41.0117 171.719 41.4766 171.008 42.4062C170.306 43.3268 169.955 44.6621 169.955 46.4121V46.8906C169.955 48.5951 170.306 49.9076 171.008 50.8281C171.71 51.7487 172.712 52.209 174.016 52.209ZM182.068 46.4668C182.068 45.0176 182.351 43.7142 182.916 42.5566C183.49 41.3991 184.283 40.5059 185.295 39.877C186.316 39.248 187.478 38.9336 188.781 38.9336C190.796 38.9336 192.423 39.6309 193.662 41.0254C194.911 42.4199 195.535 44.2747 195.535 46.5898V46.7676C195.535 48.2077 195.257 49.502 194.701 50.6504C194.154 51.7897 193.366 52.6784 192.336 53.3164C191.315 53.9544 190.139 54.2734 188.809 54.2734C186.803 54.2734 185.176 53.5762 183.928 52.1816C182.688 50.7871 182.068 48.9414 182.068 46.6445V46.4668ZM184.611 46.7676C184.611 48.4082 184.99 49.7253 185.746 50.7188C186.512 51.7122 187.533 52.209 188.809 52.209C190.094 52.209 191.115 51.7077 191.871 50.7051C192.628 49.6934 193.006 48.2806 193.006 46.4668C193.006 44.8444 192.618 43.5319 191.844 42.5293C191.078 41.5176 190.057 41.0117 188.781 41.0117C187.533 41.0117 186.525 41.5085 185.76 42.502C184.994 43.4954 184.611 44.9173 184.611 46.7676ZM201.086 39.207L201.154 40.8477C202.239 39.5716 203.702 38.9336 205.543 38.9336C207.612 38.9336 209.02 39.7266 209.768 41.3125C210.26 40.6016 210.898 40.0273 211.682 39.5898C212.475 39.1523 213.409 38.9336 214.484 38.9336C217.729 38.9336 219.379 40.6517 219.434 44.0879V54H216.904V44.2383C216.904 43.181 216.663 42.3926 216.18 41.873C215.697 41.3444 214.885 41.0801 213.746 41.0801C212.807 41.0801 212.028 41.3626 211.408 41.9277C210.788 42.4837 210.428 43.2357 210.328 44.1836V54H207.785V44.3066C207.785 42.1556 206.732 41.0801 204.627 41.0801C202.968 41.0801 201.833 41.7865 201.223 43.1992V54H198.693V39.207H201.086ZM239.34 54C239.194 53.7083 239.076 53.1888 238.984 52.4414C237.809 53.6628 236.405 54.2734 234.773 54.2734C233.315 54.2734 232.117 53.8633 231.178 53.043C230.248 52.2135 229.783 51.1654 229.783 49.8984C229.783 48.3581 230.367 47.1641 231.533 46.3164C232.709 45.4596 234.359 45.0312 236.482 45.0312H238.943V43.8691C238.943 42.985 238.679 42.2832 238.15 41.7637C237.622 41.235 236.842 40.9707 235.812 40.9707C234.91 40.9707 234.154 41.1986 233.543 41.6543C232.932 42.11 232.627 42.6615 232.627 43.3086H230.084C230.084 42.5703 230.344 41.8594 230.863 41.1758C231.392 40.4831 232.103 39.9362 232.996 39.5352C233.898 39.1341 234.887 38.9336 235.963 38.9336C237.667 38.9336 239.003 39.362 239.969 40.2188C240.935 41.0664 241.436 42.2376 241.473 43.7324V50.541C241.473 51.8991 241.646 52.9792 241.992 53.7812V54H239.34ZM235.143 52.0723C235.936 52.0723 236.688 51.8672 237.398 51.457C238.109 51.0469 238.624 50.5137 238.943 49.8574V46.8223H236.961C233.862 46.8223 232.312 47.7292 232.312 49.543C232.312 50.3359 232.577 50.9557 233.105 51.4023C233.634 51.849 234.313 52.0723 235.143 52.0723ZM254.051 50.0762C254.051 49.3926 253.791 48.8639 253.271 48.4902C252.761 48.1074 251.863 47.7793 250.578 47.5059C249.302 47.2324 248.286 46.9043 247.529 46.5215C246.782 46.1387 246.226 45.6829 245.861 45.1543C245.506 44.6257 245.328 43.9967 245.328 43.2676C245.328 42.0553 245.839 41.0299 246.859 40.1914C247.889 39.3529 249.202 38.9336 250.797 38.9336C252.474 38.9336 253.832 39.3665 254.871 40.2324C255.919 41.0983 256.443 42.2057 256.443 43.5547H253.9C253.9 42.862 253.604 42.265 253.012 41.7637C252.428 41.2624 251.69 41.0117 250.797 41.0117C249.876 41.0117 249.156 41.2122 248.637 41.6133C248.117 42.0143 247.857 42.5384 247.857 43.1855C247.857 43.7962 248.099 44.2565 248.582 44.5664C249.065 44.8763 249.936 45.1725 251.193 45.4551C252.46 45.7376 253.486 46.0749 254.27 46.4668C255.053 46.8587 255.632 47.3327 256.006 47.8887C256.389 48.4355 256.58 49.1055 256.58 49.8984C256.58 51.2201 256.051 52.2819 254.994 53.084C253.937 53.877 252.565 54.2734 250.879 54.2734C249.694 54.2734 248.646 54.0638 247.734 53.6445C246.823 53.2253 246.107 52.6419 245.588 51.8945C245.077 51.138 244.822 50.3223 244.822 49.4473H247.352C247.397 50.2949 247.734 50.9694 248.363 51.4707C249.001 51.9629 249.84 52.209 250.879 52.209C251.836 52.209 252.602 52.0176 253.176 51.6348C253.759 51.2428 254.051 50.7233 254.051 50.0762ZM279.316 46.7676C279.316 49.0189 278.801 50.8327 277.771 52.209C276.742 53.5853 275.347 54.2734 273.588 54.2734C271.792 54.2734 270.38 53.7038 269.35 52.5645V59.6875H266.82V39.207H269.131L269.254 40.8477C270.284 39.5716 271.715 38.9336 273.547 38.9336C275.324 38.9336 276.728 39.6035 277.758 40.9434C278.797 42.2832 279.316 44.1471 279.316 46.5352V46.7676ZM276.787 46.4805C276.787 44.8125 276.432 43.4954 275.721 42.5293C275.01 41.5632 274.035 41.0801 272.795 41.0801C271.264 41.0801 270.115 41.7591 269.35 43.1172V50.1855C270.106 51.5345 271.264 52.209 272.822 52.209C274.035 52.209 274.996 51.7305 275.707 50.7734C276.427 49.8073 276.787 48.3763 276.787 46.4805ZM288.682 54.2734C286.676 54.2734 285.045 53.6172 283.787 52.3047C282.529 50.9831 281.9 49.2194 281.9 47.0137V46.5488C281.9 45.0814 282.178 43.7734 282.734 42.625C283.299 41.4674 284.083 40.5651 285.086 39.918C286.098 39.2617 287.191 38.9336 288.367 38.9336C290.29 38.9336 291.785 39.5671 292.852 40.834C293.918 42.1009 294.451 43.9147 294.451 46.2754V47.3281H284.43C284.466 48.7865 284.89 49.9668 285.701 50.8691C286.521 51.7624 287.561 52.209 288.818 52.209C289.712 52.209 290.468 52.0267 291.088 51.6621C291.708 51.2975 292.25 50.8145 292.715 50.2129L294.26 51.416C293.02 53.321 291.161 54.2734 288.682 54.2734ZM288.367 41.0117C287.346 41.0117 286.49 41.3854 285.797 42.1328C285.104 42.8711 284.676 43.9102 284.512 45.25H291.922V45.0586C291.849 43.7734 291.503 42.7799 290.883 42.0781C290.263 41.3672 289.424 41.0117 288.367 41.0117ZM306.004 50.0762C306.004 49.3926 305.744 48.8639 305.225 48.4902C304.714 48.1074 303.816 47.7793 302.531 47.5059C301.255 47.2324 300.239 46.9043 299.482 46.5215C298.735 46.1387 298.179 45.6829 297.814 45.1543C297.459 44.6257 297.281 43.9967 297.281 43.2676C297.281 42.0553 297.792 41.0299 298.812 40.1914C299.842 39.3529 301.155 38.9336 302.75 38.9336C304.427 38.9336 305.785 39.3665 306.824 40.2324C307.872 41.0983 308.396 42.2057 308.396 43.5547H305.854C305.854 42.862 305.557 42.265 304.965 41.7637C304.382 41.2624 303.643 41.0117 302.75 41.0117C301.829 41.0117 301.109 41.2122 300.59 41.6133C300.07 42.0143 299.811 42.5384 299.811 43.1855C299.811 43.7962 300.052 44.2565 300.535 44.5664C301.018 44.8763 301.889 45.1725 303.146 45.4551C304.413 45.7376 305.439 46.0749 306.223 46.4668C307.007 46.8587 307.585 47.3327 307.959 47.8887C308.342 48.4355 308.533 49.1055 308.533 49.8984C308.533 51.2201 308.005 52.2819 306.947 53.084C305.89 53.877 304.518 54.2734 302.832 54.2734C301.647 54.2734 300.599 54.0638 299.688 53.6445C298.776 53.2253 298.061 52.6419 297.541 51.8945C297.031 51.138 296.775 50.3223 296.775 49.4473H299.305C299.35 50.2949 299.688 50.9694 300.316 51.4707C300.954 51.9629 301.793 52.209 302.832 52.209C303.789 52.209 304.555 52.0176 305.129 51.6348C305.712 51.2428 306.004 50.7233 306.004 50.0762ZM320.441 50.0762C320.441 49.3926 320.182 48.8639 319.662 48.4902C319.152 48.1074 318.254 47.7793 316.969 47.5059C315.693 47.2324 314.676 46.9043 313.92 46.5215C313.173 46.1387 312.617 45.6829 312.252 45.1543C311.896 44.6257 311.719 43.9967 311.719 43.2676C311.719 42.0553 312.229 41.0299 313.25 40.1914C314.28 39.3529 315.592 38.9336 317.188 38.9336C318.865 38.9336 320.223 39.3665 321.262 40.2324C322.31 41.0983 322.834 42.2057 322.834 43.5547H320.291C320.291 42.862 319.995 42.265 319.402 41.7637C318.819 41.2624 318.081 41.0117 317.188 41.0117C316.267 41.0117 315.547 41.2122 315.027 41.6133C314.508 42.0143 314.248 42.5384 314.248 43.1855C314.248 43.7962 314.49 44.2565 314.973 44.5664C315.456 44.8763 316.326 45.1725 317.584 45.4551C318.851 45.7376 319.876 46.0749 320.66 46.4668C321.444 46.8587 322.023 47.3327 322.396 47.8887C322.779 48.4355 322.971 49.1055 322.971 49.8984C322.971 51.2201 322.442 52.2819 321.385 53.084C320.327 53.877 318.956 54.2734 317.27 54.2734C316.085 54.2734 315.036 54.0638 314.125 53.6445C313.214 53.2253 312.498 52.6419 311.979 51.8945C311.468 51.138 311.213 50.3223 311.213 49.4473H313.742C313.788 50.2949 314.125 50.9694 314.754 51.4707C315.392 51.9629 316.23 52.209 317.27 52.209C318.227 52.209 318.992 52.0176 319.566 51.6348C320.15 51.2428 320.441 50.7233 320.441 50.0762ZM325.596 46.4668C325.596 45.0176 325.878 43.7142 326.443 42.5566C327.018 41.3991 327.811 40.5059 328.822 39.877C329.843 39.248 331.005 38.9336 332.309 38.9336C334.323 38.9336 335.95 39.6309 337.189 41.0254C338.438 42.4199 339.062 44.2747 339.062 46.5898V46.7676C339.062 48.2077 338.785 49.502 338.229 50.6504C337.682 51.7897 336.893 52.6784 335.863 53.3164C334.842 53.9544 333.667 54.2734 332.336 54.2734C330.331 54.2734 328.704 53.5762 327.455 52.1816C326.215 50.7871 325.596 48.9414 325.596 46.6445V46.4668ZM328.139 46.7676C328.139 48.4082 328.517 49.7253 329.273 50.7188C330.039 51.7122 331.06 52.209 332.336 52.209C333.621 52.209 334.642 51.7077 335.398 50.7051C336.155 49.6934 336.533 48.2806 336.533 46.4668C336.533 44.8444 336.146 43.5319 335.371 42.5293C334.605 41.5176 333.585 41.0117 332.309 41.0117C331.06 41.0117 330.053 41.5085 329.287 42.502C328.521 43.4954 328.139 44.9173 328.139 46.7676ZM351.367 54C351.221 53.7083 351.103 53.1888 351.012 52.4414C349.836 53.6628 348.432 54.2734 346.801 54.2734C345.342 54.2734 344.144 53.8633 343.205 53.043C342.275 52.2135 341.811 51.1654 341.811 49.8984C341.811 48.3581 342.394 47.1641 343.561 46.3164C344.736 45.4596 346.386 45.0312 348.51 45.0312H350.971V43.8691C350.971 42.985 350.706 42.2832 350.178 41.7637C349.649 41.235 348.87 40.9707 347.84 40.9707C346.938 40.9707 346.181 41.1986 345.57 41.6543C344.96 42.11 344.654 42.6615 344.654 43.3086H342.111C342.111 42.5703 342.371 41.8594 342.891 41.1758C343.419 40.4831 344.13 39.9362 345.023 39.5352C345.926 39.1341 346.915 38.9336 347.99 38.9336C349.695 38.9336 351.03 39.362 351.996 40.2188C352.962 41.0664 353.464 42.2376 353.5 43.7324V50.541C353.5 51.8991 353.673 52.9792 354.02 53.7812V54H351.367ZM347.17 52.0723C347.963 52.0723 348.715 51.8672 349.426 51.457C350.137 51.0469 350.652 50.5137 350.971 49.8574V46.8223H348.988C345.889 46.8223 344.34 47.7292 344.34 49.543C344.34 50.3359 344.604 50.9557 345.133 51.4023C345.661 51.849 346.34 52.0723 347.17 52.0723ZM366.078 50.0762C366.078 49.3926 365.818 48.8639 365.299 48.4902C364.788 48.1074 363.891 47.7793 362.605 47.5059C361.329 47.2324 360.313 46.9043 359.557 46.5215C358.809 46.1387 358.253 45.6829 357.889 45.1543C357.533 44.6257 357.355 43.9967 357.355 43.2676C357.355 42.0553 357.866 41.0299 358.887 40.1914C359.917 39.3529 361.229 38.9336 362.824 38.9336C364.501 38.9336 365.859 39.3665 366.898 40.2324C367.947 41.0983 368.471 42.2057 368.471 43.5547H365.928C365.928 42.862 365.632 42.265 365.039 41.7637C364.456 41.2624 363.717 41.0117 362.824 41.0117C361.904 41.0117 361.184 41.2122 360.664 41.6133C360.145 42.0143 359.885 42.5384 359.885 43.1855C359.885 43.7962 360.126 44.2565 360.609 44.5664C361.092 44.8763 361.963 45.1725 363.221 45.4551C364.488 45.7376 365.513 46.0749 366.297 46.4668C367.081 46.8587 367.66 47.3327 368.033 47.8887C368.416 48.4355 368.607 49.1055 368.607 49.8984C368.607 51.2201 368.079 52.2819 367.021 53.084C365.964 53.877 364.592 54.2734 362.906 54.2734C361.721 54.2734 360.673 54.0638 359.762 53.6445C358.85 53.2253 358.135 52.6419 357.615 51.8945C357.105 51.138 356.85 50.3223 356.85 49.4473H359.379C359.424 50.2949 359.762 50.9694 360.391 51.4707C361.029 51.9629 361.867 52.209 362.906 52.209C363.863 52.209 364.629 52.0176 365.203 51.6348C365.786 51.2428 366.078 50.7233 366.078 50.0762ZM378.232 46.4805C378.232 44.1562 378.766 42.3197 379.832 40.9707C380.898 39.6126 382.329 38.9336 384.125 38.9336C385.875 38.9336 387.256 39.5215 388.268 40.6973L388.377 39.207H390.701V59.6875H388.172V52.6328C387.151 53.7266 385.793 54.2734 384.098 54.2734C382.311 54.2734 380.885 53.5807 379.818 52.1953C378.761 50.8008 378.232 48.9551 378.232 46.6582V46.4805ZM380.762 46.7676C380.762 48.4629 381.117 49.7936 381.828 50.7598C382.548 51.7259 383.514 52.209 384.727 52.209C386.23 52.209 387.379 51.5436 388.172 50.2129V42.9668C387.37 41.6634 386.23 41.0117 384.754 41.0117C383.533 41.0117 382.562 41.4993 381.842 42.4746C381.122 43.4408 380.762 44.8717 380.762 46.7676ZM403.895 52.5371C402.91 53.6947 401.465 54.2734 399.561 54.2734C397.984 54.2734 396.781 53.8177 395.951 52.9062C395.131 51.9857 394.716 50.6276 394.707 48.832V39.207H397.236V48.7637C397.236 51.0059 398.148 52.127 399.971 52.127C401.903 52.127 403.188 51.4069 403.826 49.9668V39.207H406.355V54H403.949L403.895 52.5371ZM416.35 54.2734C414.344 54.2734 412.713 53.6172 411.455 52.3047C410.197 50.9831 409.568 49.2194 409.568 47.0137V46.5488C409.568 45.0814 409.846 43.7734 410.402 42.625C410.967 41.4674 411.751 40.5651 412.754 39.918C413.766 39.2617 414.859 38.9336 416.035 38.9336C417.958 38.9336 419.453 39.5671 420.52 40.834C421.586 42.1009 422.119 43.9147 422.119 46.2754V47.3281H412.098C412.134 48.7865 412.558 49.9668 413.369 50.8691C414.189 51.7624 415.229 52.209 416.486 52.209C417.38 52.209 418.136 52.0267 418.756 51.6621C419.376 51.2975 419.918 50.8145 420.383 50.2129L421.928 51.416C420.688 53.321 418.829 54.2734 416.35 54.2734ZM416.035 41.0117C415.014 41.0117 414.158 41.3854 413.465 42.1328C412.772 42.8711 412.344 43.9102 412.18 45.25H419.59V45.0586C419.517 43.7734 419.171 42.7799 418.551 42.0781C417.931 41.3672 417.092 41.0117 416.035 41.0117ZM3.1582 87V74.1621H0.820312V72.207H3.1582V70.6895C3.1582 69.1035 3.58203 67.8776 4.42969 67.0117C5.27734 66.1458 6.47591 65.7129 8.02539 65.7129C8.60872 65.7129 9.1875 65.7904 9.76172 65.9453L9.625 67.9961C9.19661 67.9141 8.74089 67.873 8.25781 67.873C7.4375 67.873 6.80404 68.1146 6.35742 68.5977C5.91081 69.0716 5.6875 69.7552 5.6875 70.6484V72.207H8.8457V74.1621H5.6875V87H3.1582ZM20.7812 87C20.6354 86.7083 20.5169 86.1888 20.4258 85.4414C19.25 86.6628 17.8464 87.2734 16.2148 87.2734C14.7565 87.2734 13.5579 86.8633 12.6191 86.043C11.6895 85.2135 11.2246 84.1654 11.2246 82.8984C11.2246 81.3581 11.8079 80.1641 12.9746 79.3164C14.1504 78.4596 15.8001 78.0312 17.9238 78.0312H20.3848V76.8691C20.3848 75.985 20.1204 75.2832 19.5918 74.7637C19.0632 74.235 18.2839 73.9707 17.2539 73.9707C16.3516 73.9707 15.5951 74.1986 14.9844 74.6543C14.3737 75.11 14.0684 75.6615 14.0684 76.3086H11.5254C11.5254 75.5703 11.7852 74.8594 12.3047 74.1758C12.8333 73.4831 13.5443 72.9362 14.4375 72.5352C15.3398 72.1341 16.3288 71.9336 17.4043 71.9336C19.1087 71.9336 20.444 72.362 21.4102 73.2188C22.3763 74.0664 22.8776 75.2376 22.9141 76.7324V83.541C22.9141 84.8991 23.0872 85.9792 23.4336 86.7812V87H20.7812ZM16.584 85.0723C17.377 85.0723 18.1289 84.8672 18.8398 84.457C19.5508 84.0469 20.0658 83.5137 20.3848 82.8574V79.8223H18.4023C15.3034 79.8223 13.7539 80.7292 13.7539 82.543C13.7539 83.3359 14.0182 83.9557 14.5469 84.4023C15.0755 84.849 15.7546 85.0723 16.584 85.0723ZM29.2578 84.9355H37.9121V87H26.168V85.1406L34.3301 74.2988H26.291V72.207H37.502V73.998L29.2578 84.9355ZM46.6895 87.2734C44.6842 87.2734 43.0527 86.6172 41.7949 85.3047C40.5371 83.9831 39.9082 82.2194 39.9082 80.0137V79.5488C39.9082 78.0814 40.1862 76.7734 40.7422 75.625C41.3073 74.4674 42.0911 73.5651 43.0938 72.918C44.1055 72.2617 45.1992 71.9336 46.375 71.9336C48.2982 71.9336 49.793 72.5671 50.8594 73.834C51.9258 75.1009 52.459 76.9147 52.459 79.2754V80.3281H42.4375C42.474 81.7865 42.8978 82.9668 43.709 83.8691C44.5293 84.7624 45.5684 85.209 46.8262 85.209C47.7194 85.209 48.4759 85.0267 49.0957 84.6621C49.7155 84.2975 50.2578 83.8145 50.7227 83.2129L52.2676 84.416C51.028 86.321 49.1686 87.2734 46.6895 87.2734ZM46.375 74.0117C45.3542 74.0117 44.4974 74.3854 43.8047 75.1328C43.112 75.8711 42.6836 76.9102 42.5195 78.25H49.9297V78.0586C49.8568 76.7734 49.5104 75.7799 48.8906 75.0781C48.2708 74.3672 47.4323 74.0117 46.375 74.0117ZM57.7773 72.207L57.8457 73.8477C58.9303 72.5716 60.3932 71.9336 62.2344 71.9336C64.3034 71.9336 65.7116 72.7266 66.459 74.3125C66.9512 73.6016 67.5892 73.0273 68.373 72.5898C69.166 72.1523 70.1003 71.9336 71.1758 71.9336C74.4206 71.9336 76.0703 73.6517 76.125 77.0879V87H73.5957V77.2383C73.5957 76.181 73.3542 75.3926 72.8711 74.873C72.388 74.3444 71.5768 74.0801 70.4375 74.0801C69.4987 74.0801 68.7194 74.3626 68.0996 74.9277C67.4798 75.4837 67.1198 76.2357 67.0195 77.1836V87H64.4766V77.3066C64.4766 75.1556 63.4238 74.0801 61.3184 74.0801C59.6595 74.0801 58.5247 74.7865 57.9141 76.1992V87H55.3848V72.207H57.7773ZM99.3945 79.7676C99.3945 82.0189 98.8796 83.8327 97.8496 85.209C96.8197 86.5853 95.4251 87.2734 93.666 87.2734C91.8704 87.2734 90.4577 86.7038 89.4277 85.5645V92.6875H86.8984V72.207H89.209L89.332 73.8477C90.362 72.5716 91.793 71.9336 93.625 71.9336C95.4023 71.9336 96.806 72.6035 97.8359 73.9434C98.875 75.2832 99.3945 77.1471 99.3945 79.5352V79.7676ZM96.8652 79.4805C96.8652 77.8125 96.5098 76.4954 95.7988 75.5293C95.0879 74.5632 94.1126 74.0801 92.873 74.0801C91.3418 74.0801 90.1934 74.7591 89.4277 76.1172V83.1855C90.1842 84.5345 91.3418 85.209 92.9004 85.209C94.1126 85.209 95.0742 84.7305 95.7852 83.7734C96.5052 82.8073 96.8652 81.3763 96.8652 79.4805ZM111.754 87C111.608 86.7083 111.49 86.1888 111.398 85.4414C110.223 86.6628 108.819 87.2734 107.188 87.2734C105.729 87.2734 104.531 86.8633 103.592 86.043C102.662 85.2135 102.197 84.1654 102.197 82.8984C102.197 81.3581 102.781 80.1641 103.947 79.3164C105.123 78.4596 106.773 78.0312 108.896 78.0312H111.357V76.8691C111.357 75.985 111.093 75.2832 110.564 74.7637C110.036 74.235 109.257 73.9707 108.227 73.9707C107.324 73.9707 106.568 74.1986 105.957 74.6543C105.346 75.11 105.041 75.6615 105.041 76.3086H102.498C102.498 75.5703 102.758 74.8594 103.277 74.1758C103.806 73.4831 104.517 72.9362 105.41 72.5352C106.312 72.1341 107.301 71.9336 108.377 71.9336C110.081 71.9336 111.417 72.362 112.383 73.2188C113.349 74.0664 113.85 75.2376 113.887 76.7324V83.541C113.887 84.8991 114.06 85.9792 114.406 86.7812V87H111.754ZM107.557 85.0723C108.35 85.0723 109.102 84.8672 109.812 84.457C110.523 84.0469 111.038 83.5137 111.357 82.8574V79.8223H109.375C106.276 79.8223 104.727 80.7292 104.727 82.543C104.727 83.3359 104.991 83.9557 105.52 84.4023C106.048 84.849 106.727 85.0723 107.557 85.0723ZM125.002 74.4766C124.619 74.4128 124.204 74.3809 123.758 74.3809C122.099 74.3809 120.973 75.0872 120.381 76.5V87H117.852V72.207H120.312L120.354 73.916C121.183 72.5944 122.359 71.9336 123.881 71.9336C124.373 71.9336 124.747 71.9974 125.002 72.125V74.4766ZM131.455 68.625V72.207H134.217V74.1621H131.455V83.3359C131.455 83.9284 131.578 84.375 131.824 84.6758C132.07 84.9674 132.49 85.1133 133.082 85.1133C133.374 85.1133 133.775 85.0586 134.285 84.9492V87C133.62 87.1823 132.973 87.2734 132.344 87.2734C131.214 87.2734 130.361 86.9316 129.787 86.248C129.213 85.5645 128.926 84.5938 128.926 83.3359V74.1621H126.232V72.207H128.926V68.625H131.455ZM143.322 87.2734C141.317 87.2734 139.686 86.6172 138.428 85.3047C137.17 83.9831 136.541 82.2194 136.541 80.0137V79.5488C136.541 78.0814 136.819 76.7734 137.375 75.625C137.94 74.4674 138.724 73.5651 139.727 72.918C140.738 72.2617 141.832 71.9336 143.008 71.9336C144.931 71.9336 146.426 72.5671 147.492 73.834C148.559 75.1009 149.092 76.9147 149.092 79.2754V80.3281H139.07C139.107 81.7865 139.531 82.9668 140.342 83.8691C141.162 84.7624 142.201 85.209 143.459 85.209C144.352 85.209 145.109 85.0267 145.729 84.6621C146.348 84.2975 146.891 83.8145 147.355 83.2129L148.9 84.416C147.661 86.321 145.801 87.2734 143.322 87.2734ZM143.008 74.0117C141.987 74.0117 141.13 74.3854 140.438 75.1328C139.745 75.8711 139.316 76.9102 139.152 78.25H146.562V78.0586C146.49 76.7734 146.143 75.7799 145.523 75.0781C144.904 74.3672 144.065 74.0117 143.008 74.0117ZM158.361 79.4805C158.361 77.2109 158.899 75.388 159.975 74.0117C161.05 72.6263 162.458 71.9336 164.199 71.9336C165.931 71.9336 167.303 72.526 168.314 73.7109V66H170.844V87H168.52L168.396 85.4141C167.385 86.6536 165.977 87.2734 164.172 87.2734C162.458 87.2734 161.059 86.5716 159.975 85.168C158.899 83.7643 158.361 81.9323 158.361 79.6719V79.4805ZM160.891 79.7676C160.891 81.4447 161.237 82.7572 161.93 83.7051C162.622 84.653 163.579 85.127 164.801 85.127C166.405 85.127 167.576 84.4069 168.314 82.9668V76.1719C167.558 74.7773 166.396 74.0801 164.828 74.0801C163.589 74.0801 162.622 74.5586 161.93 75.5156C161.237 76.4727 160.891 77.89 160.891 79.7676ZM183.914 87C183.768 86.7083 183.65 86.1888 183.559 85.4414C182.383 86.6628 180.979 87.2734 179.348 87.2734C177.889 87.2734 176.691 86.8633 175.752 86.043C174.822 85.2135 174.357 84.1654 174.357 82.8984C174.357 81.3581 174.941 80.1641 176.107 79.3164C177.283 78.4596 178.933 78.0312 181.057 78.0312H183.518V76.8691C183.518 75.985 183.253 75.2832 182.725 74.7637C182.196 74.235 181.417 73.9707 180.387 73.9707C179.484 73.9707 178.728 74.1986 178.117 74.6543C177.507 75.11 177.201 75.6615 177.201 76.3086H174.658C174.658 75.5703 174.918 74.8594 175.438 74.1758C175.966 73.4831 176.677 72.9362 177.57 72.5352C178.473 72.1341 179.462 71.9336 180.537 71.9336C182.242 71.9336 183.577 72.362 184.543 73.2188C185.509 74.0664 186.01 75.2376 186.047 76.7324V83.541C186.047 84.8991 186.22 85.9792 186.566 86.7812V87H183.914ZM179.717 85.0723C180.51 85.0723 181.262 84.8672 181.973 84.457C182.684 84.0469 183.199 83.5137 183.518 82.8574V79.8223H181.535C178.436 79.8223 176.887 80.7292 176.887 82.543C176.887 83.3359 177.151 83.9557 177.68 84.4023C178.208 84.849 178.887 85.0723 179.717 85.0723ZM205.57 83.0762C205.57 82.3926 205.311 81.8639 204.791 81.4902C204.281 81.1074 203.383 80.7793 202.098 80.5059C200.822 80.2324 199.805 79.9043 199.049 79.5215C198.301 79.1387 197.745 78.6829 197.381 78.1543C197.025 77.6257 196.848 76.9967 196.848 76.2676C196.848 75.0553 197.358 74.0299 198.379 73.1914C199.409 72.3529 200.721 71.9336 202.316 71.9336C203.993 71.9336 205.352 72.3665 206.391 73.2324C207.439 74.0983 207.963 75.2057 207.963 76.5547H205.42C205.42 75.862 205.124 75.265 204.531 74.7637C203.948 74.2624 203.21 74.0117 202.316 74.0117C201.396 74.0117 200.676 74.2122 200.156 74.6133C199.637 75.0143 199.377 75.5384 199.377 76.1855C199.377 76.7962 199.618 77.2565 200.102 77.5664C200.585 77.8763 201.455 78.1725 202.713 78.4551C203.98 78.7376 205.005 79.0749 205.789 79.4668C206.573 79.8587 207.152 80.3327 207.525 80.8887C207.908 81.4355 208.1 82.1055 208.1 82.8984C208.1 84.2201 207.571 85.2819 206.514 86.084C205.456 86.877 204.085 87.2734 202.398 87.2734C201.214 87.2734 200.165 87.0638 199.254 86.6445C198.342 86.2253 197.627 85.6419 197.107 84.8945C196.597 84.138 196.342 83.3223 196.342 82.4473H198.871C198.917 83.2949 199.254 83.9694 199.883 84.4707C200.521 84.9629 201.359 85.209 202.398 85.209C203.355 85.209 204.121 85.0176 204.695 84.6348C205.279 84.2428 205.57 83.7233 205.57 83.0762ZM220.527 85.5371C219.543 86.6947 218.098 87.2734 216.193 87.2734C214.617 87.2734 213.413 86.8177 212.584 85.9062C211.764 84.9857 211.349 83.6276 211.34 81.832V72.207H213.869V81.7637C213.869 84.0059 214.781 85.127 216.604 85.127C218.536 85.127 219.821 84.4069 220.459 82.9668V72.207H222.988V87H220.582L220.527 85.5371ZM235.977 87C235.831 86.7083 235.712 86.1888 235.621 85.4414C234.445 86.6628 233.042 87.2734 231.41 87.2734C229.952 87.2734 228.753 86.8633 227.814 86.043C226.885 85.2135 226.42 84.1654 226.42 82.8984C226.42 81.3581 227.003 80.1641 228.17 79.3164C229.346 78.4596 230.995 78.0312 233.119 78.0312H235.58V76.8691C235.58 75.985 235.316 75.2832 234.787 74.7637C234.258 74.235 233.479 73.9707 232.449 73.9707C231.547 73.9707 230.79 74.1986 230.18 74.6543C229.569 75.11 229.264 75.6615 229.264 76.3086H226.721C226.721 75.5703 226.98 74.8594 227.5 74.1758C228.029 73.4831 228.74 72.9362 229.633 72.5352C230.535 72.1341 231.524 71.9336 232.6 71.9336C234.304 71.9336 235.639 72.362 236.605 73.2188C237.572 74.0664 238.073 75.2376 238.109 76.7324V83.541C238.109 84.8991 238.283 85.9792 238.629 86.7812V87H235.977ZM231.779 85.0723C232.572 85.0723 233.324 84.8672 234.035 84.457C234.746 84.0469 235.261 83.5137 235.58 82.8574V79.8223H233.598C230.499 79.8223 228.949 80.7292 228.949 82.543C228.949 83.3359 229.214 83.9557 229.742 84.4023C230.271 84.849 230.95 85.0723 231.779 85.0723ZM253.9 83.5684L257.564 72.207H260.148L254.844 87H252.916L247.557 72.207H250.141L253.9 83.5684ZM265.33 87H262.801V72.207H265.33V87ZM262.596 68.2832C262.596 67.873 262.719 67.5267 262.965 67.2441C263.22 66.9616 263.594 66.8203 264.086 66.8203C264.578 66.8203 264.952 66.9616 265.207 67.2441C265.462 67.5267 265.59 67.873 265.59 68.2832C265.59 68.6934 265.462 69.0352 265.207 69.3086C264.952 69.582 264.578 69.7188 264.086 69.7188C263.594 69.7188 263.22 69.582 262.965 69.3086C262.719 69.0352 262.596 68.6934 262.596 68.2832ZM268.775 79.4805C268.775 77.2109 269.313 75.388 270.389 74.0117C271.464 72.6263 272.872 71.9336 274.613 71.9336C276.345 71.9336 277.717 72.526 278.729 73.7109V66H281.258V87H278.934L278.811 85.4141C277.799 86.6536 276.391 87.2734 274.586 87.2734C272.872 87.2734 271.473 86.5716 270.389 85.168C269.313 83.7643 268.775 81.9323 268.775 79.6719V79.4805ZM271.305 79.7676C271.305 81.4447 271.651 82.7572 272.344 83.7051C273.036 84.653 273.993 85.127 275.215 85.127C276.819 85.127 277.99 84.4069 278.729 82.9668V76.1719C277.972 74.7773 276.81 74.0801 275.242 74.0801C274.003 74.0801 273.036 74.5586 272.344 75.5156C271.651 76.4727 271.305 77.89 271.305 79.7676ZM294.328 87C294.182 86.7083 294.064 86.1888 293.973 85.4414C292.797 86.6628 291.393 87.2734 289.762 87.2734C288.303 87.2734 287.105 86.8633 286.166 86.043C285.236 85.2135 284.771 84.1654 284.771 82.8984C284.771 81.3581 285.355 80.1641 286.521 79.3164C287.697 78.4596 289.347 78.0312 291.471 78.0312H293.932V76.8691C293.932 75.985 293.667 75.2832 293.139 74.7637C292.61 74.235 291.831 73.9707 290.801 73.9707C289.898 73.9707 289.142 74.1986 288.531 74.6543C287.921 75.11 287.615 75.6615 287.615 76.3086H285.072C285.072 75.5703 285.332 74.8594 285.852 74.1758C286.38 73.4831 287.091 72.9362 287.984 72.5352C288.887 72.1341 289.876 71.9336 290.951 71.9336C292.656 71.9336 293.991 72.362 294.957 73.2188C295.923 74.0664 296.424 75.2376 296.461 76.7324V83.541C296.461 84.8991 296.634 85.9792 296.98 86.7812V87H294.328ZM290.131 85.0723C290.924 85.0723 291.676 84.8672 292.387 84.457C293.098 84.0469 293.613 83.5137 293.932 82.8574V79.8223H291.949C288.85 79.8223 287.301 80.7292 287.301 82.543C287.301 83.3359 287.565 83.9557 288.094 84.4023C288.622 84.849 289.301 85.0723 290.131 85.0723ZM300.48 85.6738C300.48 85.2363 300.608 84.8717 300.863 84.5801C301.128 84.2884 301.52 84.1426 302.039 84.1426C302.559 84.1426 302.951 84.2884 303.215 84.5801C303.488 84.8717 303.625 85.2363 303.625 85.6738C303.625 86.0931 303.488 86.444 303.215 86.7266C302.951 87.0091 302.559 87.1504 302.039 87.1504C301.52 87.1504 301.128 87.0091 300.863 86.7266C300.608 86.444 300.48 86.0931 300.48 85.6738Z" fill="black"/>
</svg>
